%TF.GenerationSoftware,KiCad,Pcbnew,7.0.6*%
%TF.CreationDate,2024-01-24T15:29:16+09:00*%
%TF.ProjectId,EVO2_ICS_CARD,45564f32-5f49-4435-935f-434152442e6b,rev?*%
%TF.SameCoordinates,Original*%
%TF.FileFunction,Soldermask,Bot*%
%TF.FilePolarity,Negative*%
%FSLAX46Y46*%
G04 Gerber Fmt 4.6, Leading zero omitted, Abs format (unit mm)*
G04 Created by KiCad (PCBNEW 7.0.6) date 2024-01-24 15:29:16*
%MOMM*%
%LPD*%
G01*
G04 APERTURE LIST*
G04 Aperture macros list*
%AMRoundRect*
0 Rectangle with rounded corners*
0 $1 Rounding radius*
0 $2 $3 $4 $5 $6 $7 $8 $9 X,Y pos of 4 corners*
0 Add a 4 corners polygon primitive as box body*
4,1,4,$2,$3,$4,$5,$6,$7,$8,$9,$2,$3,0*
0 Add four circle primitives for the rounded corners*
1,1,$1+$1,$2,$3*
1,1,$1+$1,$4,$5*
1,1,$1+$1,$6,$7*
1,1,$1+$1,$8,$9*
0 Add four rect primitives between the rounded corners*
20,1,$1+$1,$2,$3,$4,$5,0*
20,1,$1+$1,$4,$5,$6,$7,0*
20,1,$1+$1,$6,$7,$8,$9,0*
20,1,$1+$1,$8,$9,$2,$3,0*%
%AMFreePoly0*
4,1,6,1.000000,0.000000,0.500000,-0.750000,-0.500000,-0.750000,-0.500000,0.750000,0.500000,0.750000,1.000000,0.000000,1.000000,0.000000,$1*%
%AMFreePoly1*
4,1,6,0.500000,-0.750000,-0.650000,-0.750000,-0.150000,0.000000,-0.650000,0.750000,0.500000,0.750000,0.500000,-0.750000,0.500000,-0.750000,$1*%
G04 Aperture macros list end*
%ADD10R,1.700000X1.700000*%
%ADD11O,1.700000X1.700000*%
%ADD12C,1.800000*%
%ADD13C,3.500000*%
%ADD14FreePoly0,180.000000*%
%ADD15FreePoly1,180.000000*%
%ADD16RoundRect,0.250000X-0.337500X-0.475000X0.337500X-0.475000X0.337500X0.475000X-0.337500X0.475000X0*%
%ADD17FreePoly0,270.000000*%
%ADD18FreePoly1,270.000000*%
%ADD19RoundRect,0.250000X-0.450000X0.350000X-0.450000X-0.350000X0.450000X-0.350000X0.450000X0.350000X0*%
%ADD20RoundRect,0.250000X-0.350000X-0.450000X0.350000X-0.450000X0.350000X0.450000X-0.350000X0.450000X0*%
%ADD21R,0.900000X0.600000*%
%ADD22R,1.475000X0.450000*%
%ADD23FreePoly0,0.000000*%
%ADD24FreePoly1,0.000000*%
%ADD25RoundRect,0.250000X-0.475000X0.337500X-0.475000X-0.337500X0.475000X-0.337500X0.475000X0.337500X0*%
%ADD26R,2.000000X1.100000*%
%ADD27R,0.800000X1.100000*%
G04 APERTURE END LIST*
D10*
%TO.C,ICS*%
X22225000Y-34910000D03*
D11*
X22225000Y-32370000D03*
X22225000Y-29830000D03*
%TD*%
D12*
%TO.C,REF\u002A\u002A*%
X80860000Y-20410000D03*
%TD*%
%TO.C,REF\u002A\u002A*%
X80860000Y-45310000D03*
%TD*%
D10*
%TO.C,SWD*%
X85090000Y-25400000D03*
D11*
X85090000Y-27940000D03*
X85090000Y-30480000D03*
X85090000Y-33020000D03*
X85090000Y-35560000D03*
%TD*%
D12*
%TO.C,REF\u002A\u002A*%
X24860000Y-45310000D03*
%TD*%
D13*
%TO.C,DISP*%
X63754000Y-21244000D03*
X42754000Y-21244000D03*
X63754000Y-43304000D03*
X42754000Y-43304000D03*
D11*
X49444000Y-20574000D03*
X51984000Y-20574000D03*
X54524000Y-20574000D03*
D10*
X57064000Y-20574000D03*
%TD*%
D12*
%TO.C,REF\u002A\u002A*%
X24860000Y-20410000D03*
%TD*%
D14*
%TO.C,JP3*%
X57965000Y-41275000D03*
D15*
X56515000Y-41275000D03*
%TD*%
D16*
%TO.C,C4*%
X66438000Y-35885000D03*
X68513000Y-35885000D03*
%TD*%
D17*
%TO.C,JP1*%
X52324000Y-23622000D03*
D18*
X52324000Y-25072000D03*
%TD*%
D19*
%TO.C,R3*%
X58166000Y-23622000D03*
X58166000Y-25622000D03*
%TD*%
D20*
%TO.C,R4*%
X66675000Y-26670000D03*
X68675000Y-26670000D03*
%TD*%
D21*
%TO.C,IC3*%
X69238000Y-31445000D03*
X69238000Y-32395000D03*
X69238000Y-33345000D03*
X66438000Y-33345000D03*
X66438000Y-31445000D03*
%TD*%
D19*
%TO.C,R2*%
X50038000Y-23368000D03*
X50038000Y-25368000D03*
%TD*%
D22*
%TO.C,IC2*%
X61358000Y-28190000D03*
X61358000Y-28840000D03*
X61358000Y-29490000D03*
X61358000Y-30140000D03*
X61358000Y-30790000D03*
X61358000Y-31440000D03*
X61358000Y-32090000D03*
X61358000Y-32740000D03*
X61358000Y-33390000D03*
X61358000Y-34040000D03*
X55482000Y-34040000D03*
X55482000Y-33390000D03*
X55482000Y-32740000D03*
X55482000Y-32090000D03*
X55482000Y-31440000D03*
X55482000Y-30790000D03*
X55482000Y-30140000D03*
X55482000Y-29490000D03*
X55482000Y-28840000D03*
X55482000Y-28190000D03*
%TD*%
D23*
%TO.C,JP4*%
X66675000Y-24130000D03*
D24*
X68125000Y-24130000D03*
%TD*%
D16*
%TO.C,C3*%
X66675000Y-29210000D03*
X68750000Y-29210000D03*
%TD*%
D25*
%TO.C,C5*%
X51435000Y-30805000D03*
X51435000Y-32880000D03*
%TD*%
D17*
%TO.C,JP2*%
X55880000Y-23622000D03*
D18*
X55880000Y-25072000D03*
%TD*%
D20*
%TO.C,R6*%
X66438000Y-38425000D03*
X68438000Y-38425000D03*
%TD*%
D26*
%TO.C,D1*%
X57780000Y-44450000D03*
D27*
X55880000Y-44450000D03*
%TD*%
M02*
