%TF.GenerationSoftware,KiCad,Pcbnew,7.0.6*%
%TF.CreationDate,2024-01-24T15:29:16+09:00*%
%TF.ProjectId,EVO2_ICS_CARD,45564f32-5f49-4435-935f-434152442e6b,rev?*%
%TF.SameCoordinates,Original*%
%TF.FileFunction,Copper,L1,Top*%
%TF.FilePolarity,Positive*%
%FSLAX46Y46*%
G04 Gerber Fmt 4.6, Leading zero omitted, Abs format (unit mm)*
G04 Created by KiCad (PCBNEW 7.0.6) date 2024-01-24 15:29:16*
%MOMM*%
%LPD*%
G01*
G04 APERTURE LIST*
G04 Aperture macros list*
%AMRoundRect*
0 Rectangle with rounded corners*
0 $1 Rounding radius*
0 $2 $3 $4 $5 $6 $7 $8 $9 X,Y pos of 4 corners*
0 Add a 4 corners polygon primitive as box body*
4,1,4,$2,$3,$4,$5,$6,$7,$8,$9,$2,$3,0*
0 Add four circle primitives for the rounded corners*
1,1,$1+$1,$2,$3*
1,1,$1+$1,$4,$5*
1,1,$1+$1,$6,$7*
1,1,$1+$1,$8,$9*
0 Add four rect primitives between the rounded corners*
20,1,$1+$1,$2,$3,$4,$5,0*
20,1,$1+$1,$4,$5,$6,$7,0*
20,1,$1+$1,$6,$7,$8,$9,0*
20,1,$1+$1,$8,$9,$2,$3,0*%
%AMRotRect*
0 Rectangle, with rotation*
0 The origin of the aperture is its center*
0 $1 length*
0 $2 width*
0 $3 Rotation angle, in degrees counterclockwise*
0 Add horizontal line*
21,1,$1,$2,0,0,$3*%
G04 Aperture macros list end*
%TA.AperFunction,SMDPad,CuDef*%
%ADD10R,1.100000X2.000000*%
%TD*%
%TA.AperFunction,SMDPad,CuDef*%
%ADD11R,1.100000X0.800000*%
%TD*%
%TA.AperFunction,SMDPad,CuDef*%
%ADD12C,1.500000*%
%TD*%
%TA.AperFunction,SMDPad,CuDef*%
%ADD13RoundRect,0.250000X-0.337500X-0.475000X0.337500X-0.475000X0.337500X0.475000X-0.337500X0.475000X0*%
%TD*%
%TA.AperFunction,SMDPad,CuDef*%
%ADD14R,0.800000X0.900000*%
%TD*%
%TA.AperFunction,ComponentPad*%
%ADD15R,1.700000X1.700000*%
%TD*%
%TA.AperFunction,ComponentPad*%
%ADD16O,1.700000X1.700000*%
%TD*%
%TA.AperFunction,ComponentPad*%
%ADD17C,1.800000*%
%TD*%
%TA.AperFunction,SMDPad,CuDef*%
%ADD18R,1.850000X0.900000*%
%TD*%
%TA.AperFunction,SMDPad,CuDef*%
%ADD19R,1.850000X3.200000*%
%TD*%
%TA.AperFunction,SMDPad,CuDef*%
%ADD20RoundRect,0.250000X0.565685X0.070711X0.070711X0.565685X-0.565685X-0.070711X-0.070711X-0.565685X0*%
%TD*%
%TA.AperFunction,SMDPad,CuDef*%
%ADD21RoundRect,0.250000X-0.565685X-0.070711X-0.070711X-0.565685X0.565685X0.070711X0.070711X0.565685X0*%
%TD*%
%TA.AperFunction,SMDPad,CuDef*%
%ADD22R,2.810000X0.880000*%
%TD*%
%TA.AperFunction,ComponentPad*%
%ADD23C,3.500000*%
%TD*%
%TA.AperFunction,SMDPad,CuDef*%
%ADD24RotRect,1.000000X1.350000X45.000000*%
%TD*%
%TA.AperFunction,SMDPad,CuDef*%
%ADD25RotRect,1.800000X2.000000X45.000000*%
%TD*%
%TA.AperFunction,SMDPad,CuDef*%
%ADD26RoundRect,0.250000X0.450000X-0.350000X0.450000X0.350000X-0.450000X0.350000X-0.450000X-0.350000X0*%
%TD*%
%TA.AperFunction,SMDPad,CuDef*%
%ADD27RoundRect,0.250000X0.337500X0.475000X-0.337500X0.475000X-0.337500X-0.475000X0.337500X-0.475000X0*%
%TD*%
%TA.AperFunction,ViaPad*%
%ADD28C,0.800000*%
%TD*%
%TA.AperFunction,Conductor*%
%ADD29C,0.250000*%
%TD*%
%TA.AperFunction,Conductor*%
%ADD30C,0.900000*%
%TD*%
G04 APERTURE END LIST*
D10*
%TO.P,D2,1,K*%
%TO.N,VDD*%
X37465000Y-32370000D03*
D11*
%TO.P,D2,2,A*%
%TO.N,+3.3V*%
X37465000Y-34270000D03*
%TD*%
D12*
%TO.P,V33,1,1*%
%TO.N,+3.3V*%
X37465000Y-37846000D03*
%TD*%
D13*
%TO.P,C2,1*%
%TO.N,+3.3V*%
X31580000Y-39370000D03*
%TO.P,C2,2*%
%TO.N,GND*%
X33655000Y-39370000D03*
%TD*%
D14*
%TO.P,Q1,1,G*%
%TO.N,GND*%
X28575000Y-26575000D03*
%TO.P,Q1,2,S*%
%TO.N,Net-(Q1-S)*%
X30475000Y-26575000D03*
%TO.P,Q1,3,D*%
%TO.N,Net-(J1-Pin_2)*%
X29525000Y-24475000D03*
%TD*%
D15*
%TO.P,ICS,1,Pin_1*%
%TO.N,/RX*%
X22225000Y-34910000D03*
D16*
%TO.P,ICS,2,Pin_2*%
%TO.N,Net-(J1-Pin_2)*%
X22225000Y-32370000D03*
%TO.P,ICS,3,Pin_3*%
%TO.N,GND*%
X22225000Y-29830000D03*
%TD*%
D12*
%TO.P,COM,1,1*%
%TO.N,/RX*%
X22225000Y-40640000D03*
%TD*%
%TO.P,VDD,1,1*%
%TO.N,VDD*%
X37465000Y-27305000D03*
%TD*%
D17*
%TO.P,REF\u002A\u002A,1*%
%TO.N,N/C*%
X80860000Y-20410000D03*
%TD*%
D18*
%TO.P,IC1,1,ADJ/GND*%
%TO.N,GND*%
X33505000Y-36590000D03*
%TO.P,IC1,2,OUTPUT*%
%TO.N,+3.3V*%
X33505000Y-34290000D03*
%TO.P,IC1,3,INPUT*%
%TO.N,VDD*%
X33505000Y-31990000D03*
D19*
%TO.P,IC1,4,VOUT*%
%TO.N,+3.3V*%
X27305000Y-34290000D03*
%TD*%
D20*
%TO.P,R9,1*%
%TO.N,+3.3V*%
X81461055Y-41238159D03*
%TO.P,R9,2*%
%TO.N,/SW_DOWN*%
X80046841Y-39823945D03*
%TD*%
D21*
%TO.P,R5,1*%
%TO.N,+3.3V*%
X68544735Y-27686837D03*
%TO.P,R5,2*%
%TO.N,/SW_LEFT*%
X69958949Y-29101051D03*
%TD*%
D17*
%TO.P,REF\u002A\u002A,1*%
%TO.N,N/C*%
X80860000Y-45310000D03*
%TD*%
D15*
%TO.P,SWD,1,Pin_1*%
%TO.N,/SWCLK*%
X85090000Y-25400000D03*
D16*
%TO.P,SWD,2,Pin_2*%
%TO.N,/SWDIO*%
X85090000Y-27940000D03*
%TO.P,SWD,3,Pin_3*%
%TO.N,/NRST*%
X85090000Y-30480000D03*
%TO.P,SWD,4,Pin_4*%
%TO.N,+3.3V*%
X85090000Y-33020000D03*
%TO.P,SWD,5,Pin_5*%
%TO.N,GND*%
X85090000Y-35560000D03*
%TD*%
D22*
%TO.P,F1,1*%
%TO.N,Net-(Q1-S)*%
X33655000Y-24035000D03*
%TO.P,F1,2*%
%TO.N,VDD*%
X33655000Y-27305000D03*
%TD*%
D21*
%TO.P,R8,1*%
%TO.N,+3.3V*%
X72136837Y-24094735D03*
%TO.P,R8,2*%
%TO.N,/SW_UP*%
X73551051Y-25508949D03*
%TD*%
D17*
%TO.P,REF\u002A\u002A,1*%
%TO.N,N/C*%
X24860000Y-45310000D03*
%TD*%
D21*
%TO.P,R7,1*%
%TO.N,+3.3V*%
X70340786Y-25890786D03*
%TO.P,R7,2*%
%TO.N,/SW_PUSH*%
X71755000Y-27305000D03*
%TD*%
D23*
%TO.P,DISP,*%
%TO.N,*%
X63754000Y-21244000D03*
X42754000Y-21244000D03*
X63754000Y-43304000D03*
X42754000Y-43304000D03*
D16*
%TO.P,DISP,1,Pin_1*%
%TO.N,GND*%
X49444000Y-20574000D03*
%TO.P,DISP,2,Pin_2*%
%TO.N,+3.3V*%
X51984000Y-20574000D03*
%TO.P,DISP,3,Pin_3*%
%TO.N,/SCL*%
X54524000Y-20574000D03*
D15*
%TO.P,DISP,4,Pin_4*%
%TO.N,/SDA*%
X57064000Y-20574000D03*
%TD*%
D24*
%TO.P,S1,1,A*%
%TO.N,/SW_UP*%
X74044720Y-29879466D03*
%TO.P,S1,2,CENTER_PUSH*%
%TO.N,/SW_PUSH*%
X73037093Y-30887093D03*
%TO.P,S1,3,C*%
%TO.N,/SW_LEFT*%
X72029466Y-31894720D03*
%TO.P,S1,4,B*%
%TO.N,/SW_RIGHT*%
X79100534Y-34935280D03*
%TO.P,S1,5,COMMON*%
%TO.N,GND*%
X78092907Y-35942907D03*
%TO.P,S1,6,D*%
%TO.N,/SW_DOWN*%
X77085280Y-36950534D03*
D25*
%TO.P,S1,7*%
%TO.N,N/C*%
X72701218Y-36278782D03*
%TO.P,S1,8*%
X78428782Y-30551218D03*
%TD*%
D20*
%TO.P,R10,1*%
%TO.N,+3.3V*%
X83257107Y-39442107D03*
%TO.P,R10,2*%
%TO.N,/SW_RIGHT*%
X81842893Y-38027893D03*
%TD*%
D17*
%TO.P,REF\u002A\u002A,1*%
%TO.N,N/C*%
X24860000Y-20410000D03*
%TD*%
D26*
%TO.P,R1,1*%
%TO.N,Net-(J1-Pin_2)*%
X26035000Y-26575000D03*
%TO.P,R1,2*%
%TO.N,GND*%
X26035000Y-24575000D03*
%TD*%
D27*
%TO.P,C1,1*%
%TO.N,VDD*%
X33655000Y-29210000D03*
%TO.P,C1,2*%
%TO.N,GND*%
X31580000Y-29210000D03*
%TD*%
D12*
%TO.P,GND,1,1*%
%TO.N,GND*%
X22225000Y-25400000D03*
%TD*%
D28*
%TO.N,GND*%
X68513000Y-35885000D03*
X26670000Y-30480000D03*
X35560000Y-40640000D03*
X19685000Y-38100000D03*
X51435000Y-32880000D03*
X77470000Y-19685000D03*
X49276000Y-38354000D03*
X71120000Y-37465000D03*
X29845000Y-30480000D03*
X28575000Y-41275000D03*
X22225000Y-25400000D03*
X28575000Y-26575000D03*
X24765000Y-38735000D03*
X42418000Y-26670000D03*
X40640000Y-33782000D03*
X86360000Y-40640000D03*
X36195000Y-36195000D03*
X67945000Y-19685000D03*
X60960000Y-44450000D03*
X54102000Y-44196000D03*
X57150000Y-38100000D03*
X48260000Y-29464000D03*
X39370000Y-44450000D03*
X66040000Y-46355000D03*
X24130000Y-43180000D03*
X46228000Y-33020000D03*
X27305000Y-46355000D03*
X31580000Y-29210000D03*
X31115000Y-43815000D03*
X29845000Y-37465000D03*
X46990000Y-27305000D03*
X60325000Y-40640000D03*
X34544000Y-21590000D03*
X61595000Y-38100000D03*
X37846000Y-29972000D03*
X76200000Y-46355000D03*
X33782000Y-25654000D03*
X82550000Y-36195000D03*
X28575000Y-21590000D03*
X60960000Y-24130000D03*
X33655000Y-39370000D03*
X42926000Y-38608000D03*
X26035000Y-24575000D03*
X19685000Y-27305000D03*
X78740000Y-26035000D03*
X82550000Y-30480000D03*
X76200000Y-40005000D03*
X68580000Y-40005000D03*
X49530000Y-44450000D03*
X64770000Y-38100000D03*
X75565000Y-24130000D03*
X74422000Y-32766000D03*
X78092907Y-35942907D03*
%TO.N,+3.3V*%
X59690000Y-29845000D03*
X66438000Y-38425000D03*
X72136837Y-24094735D03*
X51435000Y-30805000D03*
X66675000Y-29210000D03*
%TO.N,/RX*%
X57780000Y-44450000D03*
%TO.N,Net-(IC2-PB9-BOOT0)*%
X61595000Y-27305000D03*
X66675000Y-26670000D03*
%TO.N,/NRST*%
X62708516Y-28485500D03*
%TO.N,/SW_UP*%
X62865000Y-33361290D03*
%TO.N,/SW_DOWN*%
X53594000Y-34535790D03*
%TO.N,/SW_LEFT*%
X53521696Y-33400304D03*
%TO.N,/SW_RIGHT*%
X56816405Y-33109266D03*
%TO.N,/SW_PUSH*%
X53340000Y-31529500D03*
%TO.N,/SWDIO*%
X59690000Y-28448000D03*
%TO.N,/SWCLK*%
X59739042Y-27111054D03*
%TD*%
D29*
%TO.N,VDD*%
X37465000Y-32370000D02*
X33885000Y-32370000D01*
X37465000Y-27305000D02*
X33655000Y-27305000D01*
X33655000Y-27305000D02*
X33655000Y-29210000D01*
X33885000Y-32370000D02*
X33505000Y-31990000D01*
X33505000Y-29360000D02*
X33505000Y-31990000D01*
%TO.N,GND*%
X33505000Y-39220000D02*
X33505000Y-36590000D01*
%TO.N,+3.3V*%
X81461055Y-41238159D02*
X79973159Y-41238159D01*
X31580000Y-39370000D02*
X31580000Y-36215000D01*
X63273790Y-35260790D02*
X53293695Y-35260790D01*
X33505000Y-34290000D02*
X37445000Y-34290000D01*
X53293695Y-35260790D02*
X52160000Y-34127095D01*
X86265000Y-34195000D02*
X86265000Y-36434214D01*
X34256000Y-40420000D02*
X36830000Y-37846000D01*
X38100000Y-37846000D02*
X37465000Y-37846000D01*
X53488000Y-29210000D02*
X51893000Y-30805000D01*
X51893000Y-30805000D02*
X51435000Y-30805000D01*
X66675000Y-29210000D02*
X66040000Y-29845000D01*
D30*
X27305000Y-34290000D02*
X33505000Y-34290000D01*
D29*
X52070000Y-20574000D02*
X50038000Y-22606000D01*
X36830000Y-37846000D02*
X37465000Y-37846000D01*
X52160000Y-31530000D02*
X51435000Y-30805000D01*
X66675000Y-29210000D02*
X68198163Y-27686837D01*
X77160000Y-38425000D02*
X66438000Y-38425000D01*
X79973159Y-41238159D02*
X77160000Y-38425000D01*
X31580000Y-36215000D02*
X33505000Y-34290000D01*
X66040000Y-29845000D02*
X59690000Y-29845000D01*
X81461055Y-41238159D02*
X83257107Y-39442107D01*
X66675000Y-29210000D02*
X53488000Y-29210000D01*
X50038000Y-25908000D02*
X38100000Y-37846000D01*
X32630000Y-40420000D02*
X34256000Y-40420000D01*
X31580000Y-39370000D02*
X32630000Y-40420000D01*
X52160000Y-34127095D02*
X52160000Y-31530000D01*
X66438000Y-38425000D02*
X63273790Y-35260790D01*
X85090000Y-33020000D02*
X86265000Y-34195000D01*
X45141000Y-30805000D02*
X44958000Y-30988000D01*
X72136837Y-24094735D02*
X70340786Y-25890786D01*
X51435000Y-30805000D02*
X45141000Y-30805000D01*
X86265000Y-36434214D02*
X83257107Y-39442107D01*
X50038000Y-22606000D02*
X50038000Y-25908000D01*
X70340786Y-25890786D02*
X68544735Y-27686837D01*
%TO.N,/RX*%
X24765000Y-40640000D02*
X22225000Y-40640000D01*
X22225000Y-34910000D02*
X22225000Y-40640000D01*
X29845000Y-45720000D02*
X24765000Y-40640000D01*
X57780000Y-44450000D02*
X56510000Y-45720000D01*
X56510000Y-45720000D02*
X29845000Y-45720000D01*
%TO.N,Net-(Q1-S)*%
X30475000Y-26575000D02*
X31115000Y-26575000D01*
X31115000Y-26575000D02*
X33655000Y-24035000D01*
%TO.N,Net-(IC2-PB9-BOOT0)*%
X66167000Y-27305000D02*
X66675000Y-26797000D01*
X61595000Y-27305000D02*
X66167000Y-27305000D01*
X66675000Y-26797000D02*
X66675000Y-26670000D01*
%TO.N,/NRST*%
X71755000Y-22860000D02*
X77470000Y-22860000D01*
X77470000Y-22860000D02*
X85090000Y-30480000D01*
X66129500Y-28485500D02*
X71755000Y-22860000D01*
X62708516Y-28485500D02*
X66129500Y-28485500D01*
%TO.N,/SW_UP*%
X72048710Y-33361290D02*
X74522017Y-30887983D01*
X62865000Y-33361290D02*
X72048710Y-33361290D01*
X74522017Y-30356763D02*
X74044720Y-29879466D01*
X74044720Y-26002618D02*
X74044720Y-29879466D01*
X74522017Y-30887983D02*
X74522017Y-30356763D01*
X73551051Y-25508949D02*
X74044720Y-26002618D01*
%TO.N,/SW_DOWN*%
X53594000Y-34535790D02*
X74670536Y-34535790D01*
X79958691Y-39823945D02*
X77085280Y-36950534D01*
X74670536Y-34535790D02*
X77085280Y-36950534D01*
%TO.N,/SW_LEFT*%
X53521696Y-33363384D02*
X54627080Y-32258000D01*
X54627080Y-32258000D02*
X71666186Y-32258000D01*
X71666186Y-32258000D02*
X72029466Y-31894720D01*
X69958949Y-29826949D02*
X69958949Y-29101051D01*
X72029466Y-31894720D02*
X72026720Y-31894720D01*
X53521696Y-33400304D02*
X53521696Y-33363384D01*
X72026720Y-31894720D02*
X69958949Y-29826949D01*
%TO.N,/SW_RIGHT*%
X57792929Y-34085790D02*
X78251044Y-34085790D01*
X78251044Y-34085790D02*
X79100534Y-34935280D01*
X81842893Y-37677639D02*
X79100534Y-34935280D01*
X56816405Y-33109266D02*
X57792929Y-34085790D01*
%TO.N,/SW_PUSH*%
X70446854Y-27305000D02*
X71755000Y-27305000D01*
X71755000Y-27305000D02*
X71755000Y-29605000D01*
X67181854Y-30570000D02*
X70446854Y-27305000D01*
X71755000Y-29605000D02*
X73037093Y-30887093D01*
X54299500Y-30570000D02*
X67181854Y-30570000D01*
X53340000Y-31529500D02*
X54299500Y-30570000D01*
%TO.N,/SWDIO*%
X69665000Y-22410000D02*
X78290000Y-22410000D01*
X59690000Y-28184695D02*
X62024695Y-25850000D01*
X78290000Y-22410000D02*
X83820000Y-27940000D01*
X59690000Y-28448000D02*
X59690000Y-28184695D01*
X66225000Y-25850000D02*
X69665000Y-22410000D01*
X83820000Y-27940000D02*
X85090000Y-27940000D01*
X62024695Y-25850000D02*
X66225000Y-25850000D01*
%TO.N,/SWCLK*%
X83185000Y-25400000D02*
X85090000Y-25400000D01*
X69478604Y-21960000D02*
X79745000Y-21960000D01*
X66038604Y-25400000D02*
X69478604Y-21960000D01*
X79745000Y-21960000D02*
X83185000Y-25400000D01*
X59739042Y-27111054D02*
X61450096Y-25400000D01*
X61450096Y-25400000D02*
X66038604Y-25400000D01*
%TO.N,Net-(J1-Pin_2)*%
X26035000Y-26575000D02*
X26035000Y-28560000D01*
X28135000Y-24475000D02*
X29525000Y-24475000D01*
X26035000Y-28560000D02*
X22225000Y-32370000D01*
X26035000Y-26575000D02*
X28135000Y-24475000D01*
%TD*%
%TA.AperFunction,Conductor*%
%TO.N,GND*%
G36*
X77709216Y-34730975D02*
G01*
X77754971Y-34783779D01*
X77764915Y-34817644D01*
X77784517Y-34953993D01*
X77844304Y-35084906D01*
X77844305Y-35084907D01*
X77844306Y-35084909D01*
X77881925Y-35131592D01*
X77881928Y-35131595D01*
X77881933Y-35131601D01*
X78904218Y-36153883D01*
X78904228Y-36153892D01*
X78950900Y-36191505D01*
X78950903Y-36191506D01*
X78950905Y-36191508D01*
X79081820Y-36251296D01*
X79224277Y-36271777D01*
X79224277Y-36271776D01*
X79224278Y-36271777D01*
X79366735Y-36251296D01*
X79401844Y-36235261D01*
X79471000Y-36225317D01*
X79534557Y-36254340D01*
X79541037Y-36260374D01*
X80709873Y-37429210D01*
X80743358Y-37490533D01*
X80738374Y-37560225D01*
X80712602Y-37600349D01*
X80712957Y-37600671D01*
X80713158Y-37600834D01*
X80713149Y-37600844D01*
X80713269Y-37600952D01*
X80711158Y-37603288D01*
X80645904Y-37683390D01*
X80567166Y-37840172D01*
X80526708Y-38010875D01*
X80526707Y-38010886D01*
X80526707Y-38186321D01*
X80526708Y-38186332D01*
X80567167Y-38357036D01*
X80592109Y-38406700D01*
X80604605Y-38475443D01*
X80577952Y-38540029D01*
X80520612Y-38579953D01*
X80450790Y-38582538D01*
X80425648Y-38573161D01*
X80375984Y-38548219D01*
X80205280Y-38507760D01*
X80205275Y-38507759D01*
X80205273Y-38507759D01*
X80029831Y-38507759D01*
X80029829Y-38507759D01*
X80029823Y-38507760D01*
X79859118Y-38548219D01*
X79745045Y-38605508D01*
X79676302Y-38618004D01*
X79611716Y-38591351D01*
X79601714Y-38582378D01*
X78410374Y-37391037D01*
X78376889Y-37329714D01*
X78381873Y-37260022D01*
X78385253Y-37251862D01*
X78401296Y-37216735D01*
X78421777Y-37074278D01*
X78401296Y-36931820D01*
X78379641Y-36884402D01*
X78341509Y-36800907D01*
X78341508Y-36800906D01*
X78341508Y-36800905D01*
X78303889Y-36754222D01*
X78303884Y-36754217D01*
X78303880Y-36754212D01*
X77281595Y-35731930D01*
X77281585Y-35731921D01*
X77234913Y-35694308D01*
X77234907Y-35694305D01*
X77103992Y-35634517D01*
X77103993Y-35634517D01*
X76961536Y-35614037D01*
X76819080Y-35634517D01*
X76819078Y-35634518D01*
X76783965Y-35650553D01*
X76714806Y-35660494D01*
X76651251Y-35631468D01*
X76644775Y-35625438D01*
X75942308Y-34922971D01*
X75908823Y-34861648D01*
X75913807Y-34791956D01*
X75955679Y-34736023D01*
X76021143Y-34711606D01*
X76029989Y-34711290D01*
X77642177Y-34711290D01*
X77709216Y-34730975D01*
G37*
%TD.AperFunction*%
%TA.AperFunction,Conductor*%
G36*
X77226587Y-23505185D02*
G01*
X77247229Y-23521819D01*
X83749761Y-30024352D01*
X83783246Y-30085675D01*
X83781855Y-30144124D01*
X83754937Y-30244589D01*
X83754937Y-30244590D01*
X83734341Y-30479999D01*
X83734341Y-30480000D01*
X83754936Y-30715403D01*
X83754938Y-30715413D01*
X83816094Y-30943655D01*
X83816096Y-30943659D01*
X83816097Y-30943663D01*
X83887179Y-31096098D01*
X83915965Y-31157830D01*
X83915967Y-31157834D01*
X84051501Y-31351395D01*
X84051506Y-31351402D01*
X84218597Y-31518493D01*
X84218603Y-31518498D01*
X84404158Y-31648425D01*
X84447783Y-31703002D01*
X84454977Y-31772500D01*
X84423454Y-31834855D01*
X84404158Y-31851575D01*
X84218597Y-31981505D01*
X84051505Y-32148597D01*
X83915965Y-32342169D01*
X83915964Y-32342171D01*
X83816098Y-32556335D01*
X83816094Y-32556344D01*
X83754938Y-32784586D01*
X83754936Y-32784596D01*
X83734341Y-33019999D01*
X83734341Y-33020000D01*
X83754936Y-33255403D01*
X83754938Y-33255413D01*
X83816094Y-33483655D01*
X83816096Y-33483659D01*
X83816097Y-33483663D01*
X83907208Y-33679051D01*
X83915965Y-33697830D01*
X83915967Y-33697834D01*
X84002996Y-33822123D01*
X84051505Y-33891401D01*
X84218599Y-34058495D01*
X84315384Y-34126264D01*
X84412165Y-34194032D01*
X84412167Y-34194033D01*
X84412170Y-34194035D01*
X84626337Y-34293903D01*
X84854592Y-34355063D01*
X85042918Y-34371539D01*
X85089999Y-34375659D01*
X85090000Y-34375659D01*
X85090001Y-34375659D01*
X85129234Y-34372226D01*
X85325408Y-34355063D01*
X85425875Y-34328143D01*
X85495721Y-34329806D01*
X85545647Y-34360238D01*
X85603181Y-34417773D01*
X85636665Y-34479096D01*
X85639499Y-34505453D01*
X85639500Y-36123761D01*
X85619815Y-36190800D01*
X85603181Y-36211442D01*
X83685300Y-38129322D01*
X83623977Y-38162807D01*
X83569022Y-38162298D01*
X83415546Y-38125922D01*
X83415541Y-38125921D01*
X83415539Y-38125921D01*
X83283079Y-38125921D01*
X83216040Y-38106236D01*
X83170285Y-38053432D01*
X83159079Y-38001921D01*
X83159079Y-37869464D01*
X83159079Y-37869461D01*
X83142497Y-37799500D01*
X83118619Y-37698751D01*
X83118618Y-37698749D01*
X83039881Y-37541968D01*
X83039877Y-37541963D01*
X83039876Y-37541961D01*
X82974633Y-37461871D01*
X82974632Y-37461870D01*
X82974624Y-37461860D01*
X82408926Y-36896164D01*
X82328818Y-36830905D01*
X82209474Y-36770969D01*
X82172034Y-36752166D01*
X82001332Y-36711708D01*
X82001327Y-36711707D01*
X82001325Y-36711707D01*
X81825883Y-36711707D01*
X81818661Y-36711707D01*
X81818660Y-36709891D01*
X81759029Y-36699696D01*
X81725834Y-36675989D01*
X80425628Y-35375783D01*
X80392143Y-35314460D01*
X80397127Y-35244768D01*
X80400507Y-35236608D01*
X80416550Y-35201481D01*
X80437031Y-35059024D01*
X80432505Y-35027546D01*
X80416550Y-34916566D01*
X80356763Y-34785653D01*
X80356762Y-34785652D01*
X80356762Y-34785651D01*
X80319143Y-34738968D01*
X80319138Y-34738963D01*
X80319134Y-34738958D01*
X79296849Y-33716676D01*
X79296839Y-33716667D01*
X79250167Y-33679054D01*
X79250161Y-33679051D01*
X79119246Y-33619263D01*
X79119247Y-33619263D01*
X78976790Y-33598783D01*
X78834334Y-33619263D01*
X78834332Y-33619264D01*
X78798978Y-33635409D01*
X78729819Y-33645350D01*
X78668978Y-33617563D01*
X78668594Y-33618059D01*
X78666491Y-33616427D01*
X78666264Y-33616324D01*
X78665525Y-33615678D01*
X78660030Y-33611415D01*
X78655605Y-33607637D01*
X78621626Y-33575728D01*
X78621624Y-33575726D01*
X78621621Y-33575725D01*
X78604073Y-33566078D01*
X78587807Y-33555394D01*
X78571980Y-33543117D01*
X78571979Y-33543116D01*
X78571977Y-33543115D01*
X78529212Y-33524608D01*
X78523966Y-33522038D01*
X78483137Y-33499593D01*
X78483136Y-33499592D01*
X78463737Y-33494612D01*
X78445325Y-33488308D01*
X78426942Y-33480352D01*
X78426936Y-33480350D01*
X78380918Y-33473062D01*
X78375196Y-33471877D01*
X78330065Y-33460290D01*
X78330063Y-33460290D01*
X78310028Y-33460290D01*
X78290630Y-33458763D01*
X78283206Y-33457587D01*
X78270849Y-33455630D01*
X78270848Y-33455630D01*
X78224460Y-33460015D01*
X78218622Y-33460290D01*
X73133662Y-33460290D01*
X73066623Y-33440605D01*
X73020868Y-33387801D01*
X73010924Y-33318643D01*
X73039949Y-33255087D01*
X73045981Y-33248609D01*
X73974494Y-32320096D01*
X74905805Y-31388784D01*
X74918059Y-31378969D01*
X74917876Y-31378747D01*
X74923883Y-31373775D01*
X74923894Y-31373769D01*
X74954792Y-31340865D01*
X74971244Y-31323347D01*
X74981688Y-31312901D01*
X74992137Y-31302454D01*
X74996396Y-31296961D01*
X75000169Y-31292544D01*
X75032079Y-31258565D01*
X75041730Y-31241007D01*
X75052413Y-31224744D01*
X75064690Y-31208919D01*
X75083202Y-31166136D01*
X75085755Y-31160924D01*
X75108214Y-31120075D01*
X75113197Y-31100663D01*
X75119498Y-31082263D01*
X75127454Y-31063879D01*
X75134746Y-31017835D01*
X75135923Y-31012154D01*
X75147517Y-30967002D01*
X75147517Y-30946966D01*
X75149044Y-30927565D01*
X75152177Y-30907787D01*
X75147792Y-30861398D01*
X75147517Y-30855560D01*
X75147517Y-30490437D01*
X75150433Y-30480507D01*
X76579633Y-30480507D01*
X76600113Y-30622964D01*
X76659900Y-30753877D01*
X76659901Y-30753878D01*
X76659902Y-30753880D01*
X76697521Y-30800563D01*
X76697524Y-30800566D01*
X76697529Y-30800572D01*
X77811310Y-31914351D01*
X78179437Y-32282478D01*
X78226120Y-32320098D01*
X78357035Y-32379886D01*
X78499492Y-32400367D01*
X78499492Y-32400366D01*
X78499493Y-32400367D01*
X78641950Y-32379886D01*
X78772866Y-32320098D01*
X78819548Y-32282479D01*
X80160042Y-30941984D01*
X80197662Y-30895302D01*
X80257450Y-30764386D01*
X80277931Y-30621929D01*
X80257450Y-30479471D01*
X80207370Y-30369814D01*
X80197663Y-30348558D01*
X80197662Y-30348557D01*
X80197662Y-30348556D01*
X80160043Y-30301873D01*
X80160038Y-30301868D01*
X80160034Y-30301863D01*
X78678134Y-28819965D01*
X78678127Y-28819958D01*
X78631444Y-28782338D01*
X78508072Y-28725995D01*
X78500527Y-28722549D01*
X78500528Y-28722549D01*
X78358071Y-28702069D01*
X78215615Y-28722549D01*
X78215611Y-28722550D01*
X78084700Y-28782336D01*
X78084695Y-28782339D01*
X78038020Y-28819953D01*
X78038013Y-28819959D01*
X76697525Y-30160448D01*
X76697516Y-30160458D01*
X76659901Y-30207133D01*
X76600114Y-30338047D01*
X76600113Y-30338051D01*
X76579633Y-30480507D01*
X75150433Y-30480507D01*
X75167202Y-30423398D01*
X75183831Y-30402760D01*
X75263327Y-30323265D01*
X75300948Y-30276583D01*
X75360736Y-30145667D01*
X75381217Y-30003210D01*
X75374971Y-29959768D01*
X75360736Y-29860752D01*
X75300949Y-29729839D01*
X75300948Y-29729838D01*
X75300948Y-29729837D01*
X75263329Y-29683154D01*
X75263324Y-29683149D01*
X75263320Y-29683144D01*
X74706538Y-29126364D01*
X74673053Y-29065041D01*
X74670219Y-29038683D01*
X74670219Y-27609814D01*
X74670219Y-26085345D01*
X74671945Y-26069741D01*
X74671658Y-26069714D01*
X74672392Y-26061952D01*
X74671865Y-26045185D01*
X74670348Y-25996903D01*
X74687917Y-25929280D01*
X74698145Y-25914698D01*
X74748039Y-25853453D01*
X74826776Y-25696672D01*
X74830443Y-25681203D01*
X74857475Y-25567146D01*
X74867237Y-25525959D01*
X74867237Y-25350517D01*
X74851127Y-25282544D01*
X74826777Y-25179807D01*
X74818118Y-25162565D01*
X74748039Y-25023024D01*
X74748035Y-25023019D01*
X74748034Y-25023017D01*
X74682791Y-24942927D01*
X74682790Y-24942926D01*
X74682782Y-24942916D01*
X74117084Y-24377220D01*
X74036976Y-24311961D01*
X73918940Y-24252682D01*
X73880192Y-24233222D01*
X73709490Y-24192764D01*
X73709485Y-24192763D01*
X73709483Y-24192763D01*
X73577023Y-24192763D01*
X73509984Y-24173078D01*
X73464229Y-24120274D01*
X73453023Y-24068763D01*
X73453023Y-23936306D01*
X73453023Y-23936303D01*
X73416609Y-23782664D01*
X73412563Y-23765594D01*
X73412562Y-23765592D01*
X73412562Y-23765591D01*
X73362118Y-23665147D01*
X73349623Y-23596408D01*
X73376276Y-23531821D01*
X73433615Y-23491897D01*
X73472930Y-23485500D01*
X77159548Y-23485500D01*
X77226587Y-23505185D01*
G37*
%TD.AperFunction*%
%TA.AperFunction,Conductor*%
G36*
X71464360Y-35180975D02*
G01*
X71510115Y-35233779D01*
X71520059Y-35302937D01*
X71491034Y-35366493D01*
X71485002Y-35372971D01*
X70969961Y-35888012D01*
X70969952Y-35888022D01*
X70932337Y-35934697D01*
X70872550Y-36065611D01*
X70872549Y-36065615D01*
X70852069Y-36208071D01*
X70872549Y-36350528D01*
X70932336Y-36481441D01*
X70932337Y-36481442D01*
X70932338Y-36481444D01*
X70969957Y-36528127D01*
X70969960Y-36528130D01*
X70969965Y-36528136D01*
X72029650Y-37587819D01*
X72063135Y-37649142D01*
X72058151Y-37718833D01*
X72016280Y-37774767D01*
X71950815Y-37799184D01*
X71941969Y-37799500D01*
X67141748Y-37799500D01*
X67074709Y-37779815D01*
X67049600Y-37758474D01*
X67043873Y-37752114D01*
X67043869Y-37752110D01*
X66890734Y-37640851D01*
X66890729Y-37640848D01*
X66717807Y-37563857D01*
X66717802Y-37563855D01*
X66572000Y-37532865D01*
X66532646Y-37524500D01*
X66532645Y-37524500D01*
X66473452Y-37524500D01*
X66406413Y-37504815D01*
X66385771Y-37488181D01*
X64270562Y-35372971D01*
X64237077Y-35311648D01*
X64242061Y-35241956D01*
X64283933Y-35186023D01*
X64349397Y-35161606D01*
X64358243Y-35161290D01*
X71397321Y-35161290D01*
X71464360Y-35180975D01*
G37*
%TD.AperFunction*%
%TA.AperFunction,Conductor*%
G36*
X81362207Y-18410657D02*
G01*
X81429755Y-18415489D01*
X81576644Y-18427049D01*
X81584947Y-18428274D01*
X81679760Y-18448899D01*
X81796225Y-18476860D01*
X81803401Y-18479051D01*
X81899737Y-18514983D01*
X81977922Y-18547368D01*
X82005856Y-18558939D01*
X82011847Y-18561805D01*
X82102937Y-18611543D01*
X82105580Y-18613073D01*
X82200903Y-18671488D01*
X82205643Y-18674705D01*
X82289440Y-18737435D01*
X82292520Y-18739898D01*
X82376937Y-18811997D01*
X82380513Y-18815303D01*
X82454695Y-18889485D01*
X82458001Y-18893061D01*
X82530094Y-18977471D01*
X82532570Y-18980567D01*
X82577232Y-19040228D01*
X82595289Y-19064349D01*
X82598517Y-19069106D01*
X82654432Y-19160349D01*
X82656910Y-19164393D01*
X82658463Y-19167076D01*
X82708193Y-19258151D01*
X82711059Y-19264141D01*
X82748392Y-19354270D01*
X82753438Y-19366452D01*
X82755016Y-19370260D01*
X82790942Y-19466582D01*
X82793140Y-19473781D01*
X82821098Y-19590231D01*
X82841723Y-19685044D01*
X82842950Y-19693367D01*
X82854517Y-19840331D01*
X82859342Y-19907789D01*
X82859500Y-19912213D01*
X82859500Y-21315082D01*
X82857105Y-21323236D01*
X82859309Y-21351235D01*
X82859500Y-21356102D01*
X82859500Y-21467319D01*
X82874071Y-21568665D01*
X82873380Y-21573467D01*
X82876151Y-21585009D01*
X82877232Y-21590657D01*
X82878980Y-21602803D01*
X82879420Y-21606767D01*
X82884390Y-21669908D01*
X82892054Y-21686610D01*
X82923758Y-21794583D01*
X82923758Y-21800215D01*
X82928168Y-21810862D01*
X82930378Y-21817126D01*
X82938168Y-21843658D01*
X82938966Y-21846651D01*
X82949041Y-21888614D01*
X82958447Y-21903079D01*
X83006060Y-22007337D01*
X83007038Y-22014139D01*
X83013424Y-22024561D01*
X83016961Y-22031205D01*
X83039894Y-22081422D01*
X83042463Y-22086791D01*
X83045915Y-22095126D01*
X83056494Y-22107115D01*
X83118982Y-22204349D01*
X83121281Y-22212180D01*
X83129586Y-22221904D01*
X83134601Y-22228653D01*
X83155719Y-22261513D01*
X83155729Y-22261525D01*
X83158979Y-22265275D01*
X83170994Y-22281689D01*
X83172873Y-22284755D01*
X83184015Y-22294169D01*
X83259962Y-22381817D01*
X83263863Y-22390359D01*
X83270250Y-22395814D01*
X83283434Y-22408904D01*
X83296276Y-22423725D01*
X83296277Y-22423726D01*
X83311096Y-22436567D01*
X83324183Y-22449747D01*
X83327103Y-22453165D01*
X83338181Y-22460036D01*
X83425829Y-22535983D01*
X83431526Y-22544848D01*
X83438311Y-22549006D01*
X83454717Y-22561015D01*
X83458482Y-22564277D01*
X83458487Y-22564281D01*
X83487057Y-22582641D01*
X83491341Y-22585395D01*
X83498096Y-22590413D01*
X83505222Y-22596500D01*
X83515646Y-22601014D01*
X83612884Y-22663505D01*
X83620469Y-22672258D01*
X83633210Y-22677536D01*
X83638631Y-22680130D01*
X83688795Y-22703039D01*
X83695440Y-22706576D01*
X83703393Y-22711449D01*
X83712661Y-22713938D01*
X83816919Y-22761551D01*
X83826392Y-22769759D01*
X83873341Y-22781031D01*
X83876303Y-22781820D01*
X83900908Y-22789045D01*
X83902880Y-22789624D01*
X83909143Y-22791833D01*
X83917579Y-22795327D01*
X83925409Y-22796239D01*
X84033383Y-22827943D01*
X84044644Y-22835180D01*
X84113222Y-22840578D01*
X84117170Y-22841016D01*
X84121800Y-22841681D01*
X84129348Y-22842768D01*
X84134998Y-22843850D01*
X84144521Y-22846136D01*
X84151332Y-22845928D01*
X84252682Y-22860500D01*
X84359901Y-22860500D01*
X84363910Y-22860500D01*
X84368777Y-22860691D01*
X84393121Y-22862606D01*
X84404917Y-22860500D01*
X85807787Y-22860500D01*
X85812207Y-22860657D01*
X85879755Y-22865489D01*
X86026644Y-22877049D01*
X86034947Y-22878274D01*
X86129760Y-22898899D01*
X86246225Y-22926860D01*
X86253401Y-22929051D01*
X86349737Y-22964983D01*
X86427922Y-22997368D01*
X86455856Y-23008939D01*
X86461847Y-23011805D01*
X86552937Y-23061543D01*
X86555580Y-23063073D01*
X86650903Y-23121488D01*
X86655643Y-23124705D01*
X86739440Y-23187435D01*
X86742520Y-23189898D01*
X86798202Y-23237455D01*
X86826937Y-23261997D01*
X86830513Y-23265303D01*
X86904695Y-23339485D01*
X86908001Y-23343061D01*
X86980094Y-23427471D01*
X86982576Y-23430574D01*
X87045289Y-23514349D01*
X87048517Y-23519106D01*
X87065687Y-23547123D01*
X87106910Y-23614393D01*
X87108463Y-23617076D01*
X87158193Y-23708151D01*
X87161059Y-23714141D01*
X87205014Y-23820256D01*
X87216416Y-23850826D01*
X87240942Y-23916582D01*
X87243140Y-23923781D01*
X87271098Y-24040231D01*
X87291723Y-24135044D01*
X87292950Y-24143367D01*
X87304517Y-24290331D01*
X87309342Y-24357789D01*
X87309500Y-24362213D01*
X87309500Y-41357786D01*
X87309342Y-41362210D01*
X87304517Y-41429668D01*
X87292950Y-41576632D01*
X87291723Y-41584955D01*
X87271101Y-41679755D01*
X87243140Y-41796217D01*
X87240942Y-41803416D01*
X87205016Y-41899739D01*
X87161059Y-42005857D01*
X87158193Y-42011847D01*
X87108463Y-42102922D01*
X87106910Y-42105605D01*
X87048521Y-42200887D01*
X87045289Y-42205649D01*
X86982576Y-42289424D01*
X86980087Y-42292536D01*
X86908001Y-42376937D01*
X86904695Y-42380513D01*
X86830513Y-42454695D01*
X86826937Y-42458001D01*
X86742536Y-42530087D01*
X86739424Y-42532576D01*
X86655649Y-42595289D01*
X86650887Y-42598521D01*
X86555605Y-42656910D01*
X86552922Y-42658463D01*
X86461847Y-42708193D01*
X86455857Y-42711059D01*
X86349739Y-42755016D01*
X86253416Y-42790942D01*
X86246217Y-42793140D01*
X86129755Y-42821101D01*
X86034955Y-42841723D01*
X86026632Y-42842950D01*
X85879668Y-42854517D01*
X85839473Y-42857392D01*
X85812208Y-42859342D01*
X85807786Y-42859500D01*
X84404916Y-42859500D01*
X84396761Y-42857105D01*
X84368763Y-42859309D01*
X84363896Y-42859500D01*
X84252680Y-42859500D01*
X84151333Y-42874071D01*
X84146528Y-42873380D01*
X84134981Y-42876152D01*
X84129329Y-42877234D01*
X84117200Y-42878978D01*
X84113241Y-42879418D01*
X84050098Y-42884388D01*
X84033391Y-42892054D01*
X83950558Y-42916376D01*
X83933995Y-42921240D01*
X83925416Y-42923759D01*
X83919785Y-42923759D01*
X83909140Y-42928168D01*
X83902876Y-42930377D01*
X83876357Y-42938163D01*
X83873365Y-42938961D01*
X83831389Y-42949039D01*
X83816920Y-42958447D01*
X83712662Y-43006060D01*
X83705857Y-43007038D01*
X83695431Y-43013427D01*
X83688789Y-43016962D01*
X83638617Y-43039875D01*
X83633181Y-43042473D01*
X83624879Y-43045911D01*
X83612885Y-43056493D01*
X83515649Y-43118983D01*
X83507815Y-43121283D01*
X83498089Y-43129590D01*
X83491338Y-43134606D01*
X83458485Y-43155719D01*
X83458481Y-43155723D01*
X83454725Y-43158978D01*
X83438317Y-43170989D01*
X83435247Y-43172870D01*
X83425831Y-43184015D01*
X83338182Y-43259963D01*
X83329635Y-43263866D01*
X83324174Y-43270260D01*
X83311092Y-43283436D01*
X83296275Y-43296275D01*
X83283436Y-43311092D01*
X83270260Y-43324174D01*
X83266838Y-43327096D01*
X83259963Y-43338182D01*
X83184015Y-43425831D01*
X83175148Y-43431528D01*
X83170989Y-43438317D01*
X83158978Y-43454725D01*
X83155723Y-43458481D01*
X83155719Y-43458485D01*
X83134606Y-43491338D01*
X83129590Y-43498089D01*
X83123500Y-43505219D01*
X83118983Y-43515649D01*
X83056493Y-43612885D01*
X83047738Y-43620471D01*
X83042473Y-43633181D01*
X83039875Y-43638617D01*
X83016962Y-43688789D01*
X83013427Y-43695431D01*
X83008552Y-43703386D01*
X83006061Y-43712662D01*
X82958448Y-43816922D01*
X82950237Y-43826397D01*
X82938961Y-43873366D01*
X82938163Y-43876359D01*
X82930377Y-43902877D01*
X82928167Y-43909140D01*
X82924672Y-43917578D01*
X82923759Y-43925416D01*
X82892054Y-44033391D01*
X82884817Y-44044650D01*
X82879420Y-44113232D01*
X82878980Y-44117189D01*
X82877232Y-44129349D01*
X82876150Y-44135003D01*
X82873866Y-44144516D01*
X82874073Y-44151321D01*
X82859500Y-44252680D01*
X82859500Y-44363914D01*
X82859309Y-44368780D01*
X82857392Y-44393127D01*
X82859500Y-44404924D01*
X82859500Y-45807786D01*
X82859342Y-45812210D01*
X82854517Y-45879668D01*
X82842950Y-46026632D01*
X82841723Y-46034955D01*
X82821101Y-46129755D01*
X82793140Y-46246217D01*
X82790942Y-46253416D01*
X82755016Y-46349739D01*
X82711059Y-46455857D01*
X82708193Y-46461847D01*
X82658463Y-46552922D01*
X82656910Y-46555605D01*
X82598521Y-46650887D01*
X82595289Y-46655649D01*
X82532576Y-46739424D01*
X82530087Y-46742536D01*
X82458001Y-46826937D01*
X82454695Y-46830513D01*
X82380513Y-46904695D01*
X82376937Y-46908001D01*
X82292536Y-46980087D01*
X82289424Y-46982576D01*
X82205649Y-47045289D01*
X82200887Y-47048521D01*
X82105605Y-47106910D01*
X82102922Y-47108463D01*
X82011847Y-47158193D01*
X82005857Y-47161059D01*
X81899739Y-47205016D01*
X81803416Y-47240942D01*
X81796217Y-47243140D01*
X81679755Y-47271101D01*
X81584955Y-47291723D01*
X81576632Y-47292950D01*
X81429668Y-47304517D01*
X81381555Y-47307958D01*
X81362208Y-47309342D01*
X81357786Y-47309500D01*
X24362214Y-47309500D01*
X24357791Y-47309342D01*
X24329525Y-47307320D01*
X24290331Y-47304517D01*
X24143366Y-47292950D01*
X24135043Y-47291723D01*
X24040244Y-47271101D01*
X23923781Y-47243140D01*
X23916582Y-47240942D01*
X23820260Y-47205016D01*
X23714141Y-47161059D01*
X23708151Y-47158193D01*
X23617076Y-47108463D01*
X23614393Y-47106910D01*
X23519106Y-47048517D01*
X23514349Y-47045289D01*
X23430574Y-46982576D01*
X23427471Y-46980094D01*
X23343061Y-46908001D01*
X23339485Y-46904695D01*
X23265303Y-46830513D01*
X23261997Y-46826937D01*
X23189898Y-46742520D01*
X23187435Y-46739440D01*
X23124705Y-46655643D01*
X23121488Y-46650903D01*
X23063073Y-46555580D01*
X23061535Y-46552922D01*
X23011805Y-46461847D01*
X23008939Y-46455856D01*
X22997368Y-46427922D01*
X22964983Y-46349737D01*
X22929051Y-46253401D01*
X22926860Y-46246225D01*
X22898899Y-46129760D01*
X22878274Y-46034947D01*
X22877049Y-46026644D01*
X22865489Y-45879755D01*
X22860657Y-45812207D01*
X22860500Y-45807787D01*
X22860500Y-45310006D01*
X23454700Y-45310006D01*
X23473864Y-45541297D01*
X23473866Y-45541308D01*
X23530842Y-45766300D01*
X23624075Y-45978848D01*
X23751016Y-46173147D01*
X23751019Y-46173151D01*
X23751021Y-46173153D01*
X23908216Y-46343913D01*
X23908219Y-46343915D01*
X23908222Y-46343918D01*
X24091365Y-46486464D01*
X24091371Y-46486468D01*
X24091374Y-46486470D01*
X24295497Y-46596936D01*
X24364693Y-46620691D01*
X24515015Y-46672297D01*
X24515017Y-46672297D01*
X24515019Y-46672298D01*
X24743951Y-46710500D01*
X24743952Y-46710500D01*
X24976048Y-46710500D01*
X24976049Y-46710500D01*
X25204981Y-46672298D01*
X25424503Y-46596936D01*
X25628626Y-46486470D01*
X25811784Y-46343913D01*
X25968979Y-46173153D01*
X26095924Y-45978849D01*
X26189157Y-45766300D01*
X26246134Y-45541305D01*
X26246135Y-45541297D01*
X26265300Y-45310006D01*
X26265300Y-45309993D01*
X26246135Y-45078702D01*
X26246133Y-45078691D01*
X26189157Y-44853699D01*
X26095924Y-44641151D01*
X25968983Y-44446852D01*
X25968980Y-44446849D01*
X25968979Y-44446847D01*
X25811784Y-44276087D01*
X25811779Y-44276083D01*
X25811777Y-44276081D01*
X25628634Y-44133535D01*
X25628628Y-44133531D01*
X25424504Y-44023064D01*
X25424495Y-44023061D01*
X25204984Y-43947702D01*
X25024458Y-43917578D01*
X24976049Y-43909500D01*
X24743951Y-43909500D01*
X24698164Y-43917140D01*
X24515015Y-43947702D01*
X24295504Y-44023061D01*
X24295495Y-44023064D01*
X24091371Y-44133531D01*
X24091365Y-44133535D01*
X23908222Y-44276081D01*
X23908219Y-44276084D01*
X23751016Y-44446852D01*
X23624075Y-44641151D01*
X23530842Y-44853699D01*
X23473866Y-45078691D01*
X23473864Y-45078702D01*
X23454700Y-45309993D01*
X23454700Y-45310006D01*
X22860500Y-45310006D01*
X22860500Y-44404917D01*
X22862893Y-44396764D01*
X22860691Y-44368775D01*
X22860500Y-44363909D01*
X22860500Y-44252683D01*
X22848192Y-44167080D01*
X22845926Y-44151319D01*
X22846616Y-44146520D01*
X22843850Y-44134998D01*
X22842768Y-44129349D01*
X22841867Y-44123087D01*
X22841015Y-44117166D01*
X22840578Y-44113223D01*
X22835609Y-44050089D01*
X22827943Y-44033383D01*
X22824912Y-44023061D01*
X22796240Y-43925412D01*
X22796240Y-43919782D01*
X22791833Y-43909143D01*
X22789624Y-43902880D01*
X22785171Y-43887716D01*
X22781820Y-43876303D01*
X22781031Y-43873341D01*
X22770958Y-43831385D01*
X22761550Y-43816918D01*
X22743371Y-43777112D01*
X22713938Y-43712661D01*
X22712959Y-43705857D01*
X22706576Y-43695440D01*
X22703039Y-43688795D01*
X22680130Y-43638631D01*
X22677536Y-43633210D01*
X22674084Y-43624876D01*
X22663506Y-43612885D01*
X22601015Y-43515647D01*
X22598716Y-43507817D01*
X22590413Y-43498096D01*
X22585395Y-43491341D01*
X22582641Y-43487057D01*
X22564281Y-43458487D01*
X22564276Y-43458481D01*
X22561015Y-43454717D01*
X22549006Y-43438311D01*
X22547127Y-43435245D01*
X22535983Y-43425829D01*
X22460036Y-43338181D01*
X22456134Y-43329638D01*
X22449747Y-43324183D01*
X22436567Y-43311096D01*
X22423726Y-43296277D01*
X22423725Y-43296276D01*
X22408904Y-43283434D01*
X22395814Y-43270250D01*
X22392898Y-43266836D01*
X22381817Y-43259962D01*
X22294169Y-43184015D01*
X22288472Y-43175150D01*
X22281689Y-43170994D01*
X22265275Y-43158979D01*
X22261517Y-43155723D01*
X22261513Y-43155719D01*
X22228653Y-43134601D01*
X22221904Y-43129586D01*
X22214780Y-43123502D01*
X22204349Y-43118982D01*
X22107115Y-43056494D01*
X22099529Y-43047739D01*
X22086791Y-43042463D01*
X22081422Y-43039894D01*
X22031205Y-43016961D01*
X22024561Y-43013424D01*
X22016607Y-43008550D01*
X22007337Y-43006060D01*
X21903079Y-42958447D01*
X21893607Y-42950240D01*
X21846651Y-42938966D01*
X21843658Y-42938168D01*
X21825503Y-42932837D01*
X21817123Y-42930376D01*
X21810862Y-42928168D01*
X21802423Y-42924672D01*
X21794583Y-42923758D01*
X21686610Y-42892054D01*
X21675351Y-42884818D01*
X21606767Y-42879420D01*
X21602805Y-42878980D01*
X21602091Y-42878877D01*
X21590657Y-42877232D01*
X21585009Y-42876151D01*
X21575482Y-42873864D01*
X21568665Y-42874071D01*
X21467319Y-42859500D01*
X21467318Y-42859500D01*
X21360099Y-42859500D01*
X21356102Y-42859500D01*
X21351235Y-42859309D01*
X21326881Y-42857392D01*
X21315083Y-42859500D01*
X19912214Y-42859500D01*
X19907791Y-42859342D01*
X19876514Y-42857105D01*
X19840331Y-42854517D01*
X19693366Y-42842950D01*
X19685043Y-42841723D01*
X19590244Y-42821101D01*
X19473781Y-42793140D01*
X19466582Y-42790942D01*
X19370260Y-42755016D01*
X19264141Y-42711059D01*
X19258151Y-42708193D01*
X19167076Y-42658463D01*
X19164393Y-42656910D01*
X19069106Y-42598517D01*
X19064349Y-42595289D01*
X19009654Y-42554345D01*
X18980567Y-42532570D01*
X18977471Y-42530094D01*
X18893061Y-42458001D01*
X18889485Y-42454695D01*
X18815303Y-42380513D01*
X18811997Y-42376937D01*
X18805979Y-42369891D01*
X18739898Y-42292520D01*
X18737435Y-42289440D01*
X18674705Y-42205643D01*
X18671488Y-42200903D01*
X18613073Y-42105580D01*
X18611535Y-42102922D01*
X18561805Y-42011847D01*
X18558939Y-42005856D01*
X18527949Y-41931041D01*
X18514983Y-41899737D01*
X18479051Y-41803401D01*
X18476860Y-41796225D01*
X18448899Y-41679760D01*
X18428274Y-41584947D01*
X18427049Y-41576644D01*
X18415489Y-41429755D01*
X18410657Y-41362207D01*
X18410500Y-41357787D01*
X18410500Y-32370000D01*
X20869341Y-32370000D01*
X20889936Y-32605403D01*
X20889938Y-32605413D01*
X20951094Y-32833655D01*
X20951096Y-32833659D01*
X20951097Y-32833663D01*
X21020606Y-32982725D01*
X21050965Y-33047830D01*
X21050967Y-33047834D01*
X21138631Y-33173030D01*
X21186501Y-33241396D01*
X21186506Y-33241402D01*
X21308430Y-33363326D01*
X21341915Y-33424649D01*
X21336931Y-33494341D01*
X21295059Y-33550274D01*
X21264083Y-33567189D01*
X21132669Y-33616203D01*
X21132664Y-33616206D01*
X21017455Y-33702452D01*
X21017452Y-33702455D01*
X20931206Y-33817664D01*
X20931202Y-33817671D01*
X20880908Y-33952517D01*
X20876353Y-33994888D01*
X20874501Y-34012123D01*
X20874500Y-34012135D01*
X20874500Y-35807870D01*
X20874501Y-35807876D01*
X20880908Y-35867483D01*
X20931202Y-36002328D01*
X20931206Y-36002335D01*
X21017452Y-36117544D01*
X21017455Y-36117547D01*
X21132664Y-36203793D01*
X21132671Y-36203797D01*
X21153169Y-36211442D01*
X21267517Y-36254091D01*
X21327127Y-36260500D01*
X21475499Y-36260499D01*
X21542538Y-36280183D01*
X21588293Y-36332987D01*
X21599499Y-36384499D01*
X21599500Y-39486850D01*
X21579815Y-39553889D01*
X21546623Y-39588425D01*
X21418121Y-39678402D01*
X21263402Y-39833121D01*
X21137900Y-40012357D01*
X21137898Y-40012361D01*
X21045426Y-40210668D01*
X21045422Y-40210677D01*
X20988793Y-40422020D01*
X20988793Y-40422024D01*
X20969803Y-40639089D01*
X20969723Y-40640000D01*
X20984592Y-40809963D01*
X20988793Y-40857975D01*
X20988793Y-40857979D01*
X21045422Y-41069322D01*
X21045424Y-41069326D01*
X21045425Y-41069330D01*
X21091661Y-41168484D01*
X21137897Y-41267638D01*
X21150184Y-41285185D01*
X21263402Y-41446877D01*
X21418123Y-41601598D01*
X21597361Y-41727102D01*
X21795670Y-41819575D01*
X22007023Y-41876207D01*
X22189926Y-41892208D01*
X22224998Y-41895277D01*
X22225000Y-41895277D01*
X22225002Y-41895277D01*
X22253254Y-41892805D01*
X22442977Y-41876207D01*
X22654330Y-41819575D01*
X22852639Y-41727102D01*
X23031877Y-41601598D01*
X23186598Y-41446877D01*
X23276575Y-41318375D01*
X23331151Y-41274752D01*
X23378149Y-41265500D01*
X24454548Y-41265500D01*
X24521587Y-41285185D01*
X24542228Y-41301818D01*
X26943795Y-43703386D01*
X29344197Y-46103788D01*
X29354022Y-46116051D01*
X29354243Y-46115869D01*
X29359214Y-46121878D01*
X29380043Y-46141437D01*
X29409635Y-46169226D01*
X29430529Y-46190120D01*
X29436011Y-46194373D01*
X29440443Y-46198157D01*
X29474418Y-46230062D01*
X29491976Y-46239714D01*
X29508233Y-46250393D01*
X29524064Y-46262673D01*
X29543737Y-46271186D01*
X29566833Y-46281182D01*
X29572077Y-46283750D01*
X29612908Y-46306197D01*
X29625523Y-46309435D01*
X29632305Y-46311177D01*
X29650719Y-46317481D01*
X29669104Y-46325438D01*
X29715157Y-46332732D01*
X29720826Y-46333906D01*
X29765981Y-46345500D01*
X29786016Y-46345500D01*
X29805413Y-46347026D01*
X29825196Y-46350160D01*
X29871583Y-46345775D01*
X29877422Y-46345500D01*
X56427257Y-46345500D01*
X56442877Y-46347224D01*
X56442904Y-46346939D01*
X56450660Y-46347671D01*
X56450667Y-46347673D01*
X56519814Y-46345500D01*
X56549350Y-46345500D01*
X56556228Y-46344630D01*
X56562041Y-46344172D01*
X56608627Y-46342709D01*
X56627869Y-46337117D01*
X56646912Y-46333174D01*
X56666792Y-46330664D01*
X56710122Y-46313507D01*
X56715646Y-46311617D01*
X56719396Y-46310527D01*
X56760390Y-46298618D01*
X56777629Y-46288422D01*
X56795103Y-46279862D01*
X56813727Y-46272488D01*
X56813727Y-46272487D01*
X56813732Y-46272486D01*
X56851449Y-46245082D01*
X56856305Y-46241892D01*
X56896420Y-46218170D01*
X56910589Y-46203999D01*
X56925379Y-46191368D01*
X56941587Y-46179594D01*
X56971299Y-46143676D01*
X56975212Y-46139376D01*
X57727771Y-45386819D01*
X57789095Y-45353334D01*
X57815453Y-45350500D01*
X57874644Y-45350500D01*
X57874646Y-45350500D01*
X58059803Y-45311144D01*
X58232730Y-45234151D01*
X58385871Y-45122888D01*
X58512533Y-44982216D01*
X58607179Y-44818284D01*
X58665674Y-44638256D01*
X58685460Y-44450000D01*
X58665674Y-44261744D01*
X58607179Y-44081716D01*
X58512533Y-43917784D01*
X58385871Y-43777112D01*
X58385870Y-43777111D01*
X58232734Y-43665851D01*
X58232729Y-43665848D01*
X58059807Y-43588857D01*
X58059802Y-43588855D01*
X57914000Y-43557865D01*
X57874646Y-43549500D01*
X57685354Y-43549500D01*
X57652897Y-43556398D01*
X57500197Y-43588855D01*
X57500192Y-43588857D01*
X57327270Y-43665848D01*
X57327265Y-43665851D01*
X57174129Y-43777111D01*
X57047466Y-43917785D01*
X56952821Y-44081715D01*
X56952818Y-44081722D01*
X56925085Y-44167077D01*
X56894326Y-44261744D01*
X56880135Y-44396764D01*
X56876679Y-44429649D01*
X56850094Y-44494263D01*
X56841039Y-44504368D01*
X56287228Y-45058181D01*
X56225905Y-45091666D01*
X56199547Y-45094500D01*
X44450771Y-45094500D01*
X44383732Y-45074815D01*
X44337977Y-45022011D01*
X44328033Y-44952853D01*
X44357058Y-44889297D01*
X44357543Y-44888741D01*
X44419338Y-44818277D01*
X44543273Y-44676957D01*
X44707172Y-44431665D01*
X44837652Y-44167077D01*
X44932481Y-43887722D01*
X44990034Y-43598380D01*
X44999203Y-43458487D01*
X45009329Y-43304007D01*
X61498671Y-43304007D01*
X61517964Y-43598363D01*
X61517965Y-43598373D01*
X61517966Y-43598380D01*
X61572663Y-43873366D01*
X61575518Y-43887716D01*
X61575521Y-43887730D01*
X61670349Y-44167080D01*
X61800825Y-44431660D01*
X61800829Y-44431667D01*
X61964725Y-44676955D01*
X62159241Y-44898758D01*
X62381043Y-45093273D01*
X62626335Y-45257172D01*
X62890923Y-45387652D01*
X63170278Y-45482481D01*
X63459620Y-45540034D01*
X63479057Y-45541308D01*
X63753993Y-45559329D01*
X63754000Y-45559329D01*
X63754007Y-45559329D01*
X63989675Y-45543881D01*
X64048380Y-45540034D01*
X64337722Y-45482481D01*
X64617077Y-45387652D01*
X64774528Y-45310006D01*
X79454700Y-45310006D01*
X79473864Y-45541297D01*
X79473866Y-45541308D01*
X79530842Y-45766300D01*
X79624075Y-45978848D01*
X79751016Y-46173147D01*
X79751019Y-46173151D01*
X79751021Y-46173153D01*
X79908216Y-46343913D01*
X79908219Y-46343915D01*
X79908222Y-46343918D01*
X80091365Y-46486464D01*
X80091371Y-46486468D01*
X80091374Y-46486470D01*
X80295497Y-46596936D01*
X80364693Y-46620691D01*
X80515015Y-46672297D01*
X80515017Y-46672297D01*
X80515019Y-46672298D01*
X80743951Y-46710500D01*
X80743952Y-46710500D01*
X80976048Y-46710500D01*
X80976049Y-46710500D01*
X81204981Y-46672298D01*
X81424503Y-46596936D01*
X81628626Y-46486470D01*
X81811784Y-46343913D01*
X81968979Y-46173153D01*
X82095924Y-45978849D01*
X82189157Y-45766300D01*
X82246134Y-45541305D01*
X82246135Y-45541297D01*
X82265300Y-45310006D01*
X82265300Y-45309993D01*
X82246135Y-45078702D01*
X82246133Y-45078691D01*
X82189157Y-44853699D01*
X82095924Y-44641151D01*
X81968983Y-44446852D01*
X81968980Y-44446849D01*
X81968979Y-44446847D01*
X81811784Y-44276087D01*
X81811779Y-44276083D01*
X81811777Y-44276081D01*
X81628634Y-44133535D01*
X81628628Y-44133531D01*
X81424504Y-44023064D01*
X81424495Y-44023061D01*
X81204984Y-43947702D01*
X81024458Y-43917578D01*
X80976049Y-43909500D01*
X80743951Y-43909500D01*
X80698164Y-43917140D01*
X80515015Y-43947702D01*
X80295504Y-44023061D01*
X80295495Y-44023064D01*
X80091371Y-44133531D01*
X80091365Y-44133535D01*
X79908222Y-44276081D01*
X79908219Y-44276084D01*
X79751016Y-44446852D01*
X79624075Y-44641151D01*
X79530842Y-44853699D01*
X79473866Y-45078691D01*
X79473864Y-45078702D01*
X79454700Y-45309993D01*
X79454700Y-45310006D01*
X64774528Y-45310006D01*
X64881665Y-45257172D01*
X65126957Y-45093273D01*
X65348758Y-44898758D01*
X65543273Y-44676957D01*
X65707172Y-44431665D01*
X65837652Y-44167077D01*
X65932481Y-43887722D01*
X65990034Y-43598380D01*
X65999203Y-43458487D01*
X66009329Y-43304007D01*
X66009329Y-43303992D01*
X65990515Y-43016961D01*
X65990034Y-43009620D01*
X65932481Y-42720278D01*
X65837652Y-42440923D01*
X65707172Y-42176336D01*
X65658118Y-42102922D01*
X65593261Y-42005856D01*
X65543273Y-41931043D01*
X65488265Y-41868319D01*
X65348758Y-41709241D01*
X65126955Y-41514725D01*
X64881667Y-41350829D01*
X64881660Y-41350825D01*
X64617080Y-41220349D01*
X64337730Y-41125521D01*
X64337724Y-41125519D01*
X64337722Y-41125519D01*
X64048380Y-41067966D01*
X64048373Y-41067965D01*
X64048363Y-41067964D01*
X63754007Y-41048671D01*
X63753993Y-41048671D01*
X63459636Y-41067964D01*
X63459624Y-41067965D01*
X63459620Y-41067966D01*
X63459612Y-41067967D01*
X63459609Y-41067968D01*
X63170283Y-41125518D01*
X63170269Y-41125521D01*
X62890919Y-41220349D01*
X62626334Y-41350828D01*
X62381041Y-41514728D01*
X62159241Y-41709241D01*
X61964728Y-41931041D01*
X61800828Y-42176334D01*
X61670349Y-42440919D01*
X61575521Y-42720269D01*
X61575518Y-42720283D01*
X61517968Y-43009609D01*
X61517964Y-43009636D01*
X61498671Y-43303992D01*
X61498671Y-43304007D01*
X45009329Y-43304007D01*
X45009329Y-43303992D01*
X44990515Y-43016961D01*
X44990034Y-43009620D01*
X44932481Y-42720278D01*
X44837652Y-42440923D01*
X44707172Y-42176336D01*
X44658118Y-42102922D01*
X44593261Y-42005856D01*
X44543273Y-41931043D01*
X44488265Y-41868319D01*
X44348758Y-41709241D01*
X44126955Y-41514725D01*
X43881667Y-41350829D01*
X43881660Y-41350825D01*
X43617080Y-41220349D01*
X43337730Y-41125521D01*
X43337724Y-41125519D01*
X43337722Y-41125519D01*
X43048380Y-41067966D01*
X43048373Y-41067965D01*
X43048363Y-41067964D01*
X42754007Y-41048671D01*
X42753993Y-41048671D01*
X42459636Y-41067964D01*
X42459624Y-41067965D01*
X42459620Y-41067966D01*
X42459612Y-41067967D01*
X42459609Y-41067968D01*
X42170283Y-41125518D01*
X42170269Y-41125521D01*
X41890919Y-41220349D01*
X41626334Y-41350828D01*
X41381041Y-41514728D01*
X41159241Y-41709241D01*
X40964728Y-41931041D01*
X40800828Y-42176334D01*
X40670349Y-42440919D01*
X40575521Y-42720269D01*
X40575518Y-42720283D01*
X40517968Y-43009609D01*
X40517964Y-43009636D01*
X40498671Y-43303992D01*
X40498671Y-43304007D01*
X40517964Y-43598363D01*
X40517965Y-43598373D01*
X40517966Y-43598380D01*
X40572663Y-43873366D01*
X40575518Y-43887716D01*
X40575521Y-43887730D01*
X40670349Y-44167080D01*
X40800825Y-44431660D01*
X40800829Y-44431667D01*
X40964725Y-44676955D01*
X41150457Y-44888741D01*
X41179860Y-44952123D01*
X41170328Y-45021339D01*
X41124888Y-45074415D01*
X41057967Y-45094498D01*
X41057229Y-45094500D01*
X30155452Y-45094500D01*
X30088413Y-45074815D01*
X30067771Y-45058181D01*
X27668053Y-42658463D01*
X25265803Y-40256212D01*
X25255980Y-40243950D01*
X25255759Y-40244134D01*
X25250786Y-40238123D01*
X25221559Y-40210677D01*
X25200364Y-40190773D01*
X25189919Y-40180328D01*
X25179475Y-40169883D01*
X25173986Y-40165625D01*
X25169561Y-40161847D01*
X25135582Y-40129938D01*
X25135580Y-40129936D01*
X25135577Y-40129935D01*
X25118029Y-40120288D01*
X25101763Y-40109604D01*
X25085933Y-40097325D01*
X25043168Y-40078818D01*
X25037922Y-40076248D01*
X24997093Y-40053803D01*
X24997092Y-40053802D01*
X24977693Y-40048822D01*
X24959281Y-40042518D01*
X24940898Y-40034562D01*
X24940892Y-40034560D01*
X24894874Y-40027272D01*
X24889152Y-40026087D01*
X24844021Y-40014500D01*
X24844019Y-40014500D01*
X24823984Y-40014500D01*
X24804586Y-40012973D01*
X24797162Y-40011797D01*
X24784805Y-40009840D01*
X24784804Y-40009840D01*
X24738416Y-40014225D01*
X24732578Y-40014500D01*
X23378150Y-40014500D01*
X23311111Y-39994815D01*
X23276575Y-39961623D01*
X23186599Y-39833124D01*
X23111656Y-39758181D01*
X23031877Y-39678402D01*
X22903375Y-39588423D01*
X22859751Y-39533847D01*
X22850500Y-39486850D01*
X22850500Y-36384499D01*
X22870185Y-36317460D01*
X22922989Y-36271705D01*
X22974500Y-36260499D01*
X23122871Y-36260499D01*
X23122872Y-36260499D01*
X23182483Y-36254091D01*
X23317331Y-36203796D01*
X23432546Y-36117546D01*
X23518796Y-36002331D01*
X23569091Y-35867483D01*
X23575500Y-35807873D01*
X23575499Y-34012128D01*
X23569091Y-33952517D01*
X23566140Y-33944606D01*
X23518797Y-33817671D01*
X23518793Y-33817664D01*
X23432547Y-33702455D01*
X23432544Y-33702452D01*
X23317335Y-33616206D01*
X23317328Y-33616202D01*
X23185917Y-33567189D01*
X23129983Y-33525318D01*
X23105566Y-33459853D01*
X23120418Y-33391580D01*
X23141563Y-33363332D01*
X23263495Y-33241401D01*
X23399035Y-33047830D01*
X23498903Y-32833663D01*
X23560063Y-32605408D01*
X23580659Y-32370000D01*
X23560063Y-32134592D01*
X23533142Y-32034125D01*
X23534806Y-31964276D01*
X23565235Y-31914353D01*
X26418786Y-29060802D01*
X26431048Y-29050980D01*
X26430865Y-29050759D01*
X26436867Y-29045792D01*
X26436877Y-29045786D01*
X26484241Y-28995348D01*
X26505120Y-28974470D01*
X26509373Y-28968986D01*
X26513150Y-28964563D01*
X26545062Y-28930582D01*
X26554714Y-28913023D01*
X26565389Y-28896772D01*
X26577674Y-28880936D01*
X26596186Y-28838152D01*
X26598742Y-28832935D01*
X26621197Y-28792092D01*
X26626180Y-28772680D01*
X26632477Y-28754291D01*
X26640438Y-28735895D01*
X26647729Y-28689853D01*
X26648908Y-28684162D01*
X26660500Y-28639019D01*
X26660500Y-28618982D01*
X26662027Y-28599582D01*
X26662067Y-28599334D01*
X26665160Y-28579804D01*
X26664995Y-28578061D01*
X26661215Y-28538076D01*
X26660772Y-28533394D01*
X26660499Y-28527599D01*
X26660499Y-27747015D01*
X26680184Y-27679977D01*
X26732988Y-27634222D01*
X26745484Y-27629314D01*
X26804334Y-27609814D01*
X26953656Y-27517712D01*
X27077712Y-27393656D01*
X27169814Y-27244334D01*
X27224999Y-27077797D01*
X27235500Y-26975009D01*
X27235499Y-26310451D01*
X27255183Y-26243413D01*
X27271813Y-26222776D01*
X28357771Y-25136819D01*
X28419095Y-25103334D01*
X28445453Y-25100500D01*
X28571139Y-25100500D01*
X28638178Y-25120185D01*
X28675637Y-25160418D01*
X28675888Y-25160231D01*
X28677635Y-25162565D01*
X28679973Y-25165076D01*
X28681207Y-25167336D01*
X28767452Y-25282544D01*
X28767455Y-25282547D01*
X28882664Y-25368793D01*
X28882671Y-25368797D01*
X29017517Y-25419091D01*
X29017516Y-25419091D01*
X29024444Y-25419835D01*
X29077127Y-25425500D01*
X29830953Y-25425499D01*
X29897992Y-25445183D01*
X29943747Y-25497987D01*
X29953691Y-25567146D01*
X29924666Y-25630702D01*
X29874287Y-25665681D01*
X29832670Y-25681203D01*
X29832664Y-25681206D01*
X29717455Y-25767452D01*
X29717452Y-25767455D01*
X29631206Y-25882664D01*
X29631202Y-25882671D01*
X29580908Y-26017517D01*
X29574501Y-26077116D01*
X29574500Y-26077135D01*
X29574500Y-27072870D01*
X29574501Y-27072876D01*
X29580908Y-27132483D01*
X29631202Y-27267328D01*
X29631206Y-27267335D01*
X29717452Y-27382544D01*
X29717455Y-27382547D01*
X29832664Y-27468793D01*
X29832671Y-27468797D01*
X29967517Y-27519091D01*
X29967516Y-27519091D01*
X29974444Y-27519835D01*
X30027127Y-27525500D01*
X30922872Y-27525499D01*
X30982483Y-27519091D01*
X31117331Y-27468796D01*
X31232546Y-27382546D01*
X31318796Y-27267331D01*
X31343407Y-27201341D01*
X31385277Y-27145409D01*
X31413946Y-27129381D01*
X31414784Y-27129048D01*
X31418732Y-27127486D01*
X31456449Y-27100082D01*
X31461305Y-27096892D01*
X31501420Y-27073170D01*
X31515589Y-27058999D01*
X31530373Y-27046373D01*
X31546587Y-27034594D01*
X31546587Y-27034593D01*
X31552620Y-27030211D01*
X31618428Y-27006735D01*
X31686481Y-27022564D01*
X31735173Y-27072672D01*
X31749500Y-27130533D01*
X31749500Y-27792870D01*
X31749501Y-27792876D01*
X31755908Y-27852483D01*
X31806202Y-27987328D01*
X31806206Y-27987335D01*
X31892452Y-28102544D01*
X31892455Y-28102547D01*
X32007664Y-28188793D01*
X32007671Y-28188797D01*
X32019388Y-28193167D01*
X32142517Y-28239091D01*
X32202127Y-28245500D01*
X32517396Y-28245499D01*
X32584434Y-28265183D01*
X32630189Y-28317987D01*
X32640133Y-28387146D01*
X32633810Y-28408430D01*
X32634958Y-28408811D01*
X32632687Y-28415664D01*
X32632686Y-28415666D01*
X32577501Y-28582203D01*
X32577501Y-28582204D01*
X32577500Y-28582204D01*
X32567000Y-28684983D01*
X32567000Y-29735001D01*
X32567001Y-29735019D01*
X32577500Y-29837796D01*
X32577501Y-29837799D01*
X32632685Y-30004331D01*
X32632687Y-30004336D01*
X32655118Y-30040703D01*
X32722922Y-30150631D01*
X32724789Y-30153657D01*
X32843180Y-30272048D01*
X32876665Y-30333371D01*
X32879499Y-30359729D01*
X32879499Y-30915500D01*
X32859814Y-30982539D01*
X32807010Y-31028294D01*
X32755500Y-31039500D01*
X32532130Y-31039500D01*
X32532123Y-31039501D01*
X32472516Y-31045908D01*
X32337671Y-31096202D01*
X32337664Y-31096206D01*
X32222455Y-31182452D01*
X32222452Y-31182455D01*
X32136206Y-31297664D01*
X32136202Y-31297671D01*
X32085908Y-31432517D01*
X32079501Y-31492116D01*
X32079501Y-31492123D01*
X32079500Y-31492135D01*
X32079500Y-32487870D01*
X32079501Y-32487876D01*
X32085908Y-32547483D01*
X32136202Y-32682328D01*
X32136206Y-32682335D01*
X32222452Y-32797544D01*
X32222455Y-32797547D01*
X32337664Y-32883793D01*
X32337671Y-32883797D01*
X32472517Y-32934091D01*
X32472516Y-32934091D01*
X32479444Y-32934835D01*
X32532127Y-32940500D01*
X33592515Y-32940499D01*
X33645358Y-32954066D01*
X33645653Y-32953324D01*
X33651532Y-32955651D01*
X33652250Y-32955836D01*
X33652856Y-32956168D01*
X33652908Y-32956197D01*
X33672316Y-32961180D01*
X33690717Y-32967480D01*
X33709104Y-32975437D01*
X33752488Y-32982308D01*
X33755119Y-32982725D01*
X33760839Y-32983909D01*
X33805981Y-32995500D01*
X33826016Y-32995500D01*
X33845414Y-32997026D01*
X33865194Y-33000159D01*
X33865195Y-33000160D01*
X33865195Y-33000159D01*
X33865196Y-33000160D01*
X33911583Y-32995775D01*
X33917422Y-32995500D01*
X36290501Y-32995500D01*
X36357540Y-33015185D01*
X36403295Y-33067989D01*
X36414501Y-33119500D01*
X36414501Y-33417876D01*
X36420908Y-33477482D01*
X36428251Y-33497169D01*
X36433234Y-33566860D01*
X36399748Y-33628183D01*
X36338424Y-33661667D01*
X36312068Y-33664500D01*
X34983861Y-33664500D01*
X34916822Y-33644815D01*
X34879362Y-33604581D01*
X34879112Y-33604769D01*
X34877364Y-33602434D01*
X34875027Y-33599924D01*
X34873797Y-33597673D01*
X34873796Y-33597669D01*
X34870781Y-33593642D01*
X34787547Y-33482455D01*
X34787544Y-33482452D01*
X34672335Y-33396206D01*
X34672328Y-33396202D01*
X34537482Y-33345908D01*
X34537483Y-33345908D01*
X34477883Y-33339501D01*
X34477881Y-33339500D01*
X34477873Y-33339500D01*
X34477865Y-33339500D01*
X28854499Y-33339500D01*
X28787460Y-33319815D01*
X28741705Y-33267011D01*
X28730499Y-33215500D01*
X28730499Y-32642129D01*
X28730498Y-32642123D01*
X28730497Y-32642116D01*
X28724091Y-32582517D01*
X28711024Y-32547483D01*
X28673797Y-32447671D01*
X28673793Y-32447664D01*
X28587547Y-32332455D01*
X28587544Y-32332452D01*
X28472335Y-32246206D01*
X28472328Y-32246202D01*
X28337482Y-32195908D01*
X28337483Y-32195908D01*
X28277883Y-32189501D01*
X28277881Y-32189500D01*
X28277873Y-32189500D01*
X28277864Y-32189500D01*
X26332129Y-32189500D01*
X26332123Y-32189501D01*
X26272516Y-32195908D01*
X26137671Y-32246202D01*
X26137664Y-32246206D01*
X26022455Y-32332452D01*
X26022452Y-32332455D01*
X25936206Y-32447664D01*
X25936202Y-32447671D01*
X25885908Y-32582517D01*
X25879501Y-32642116D01*
X25879501Y-32642123D01*
X25879500Y-32642135D01*
X25879500Y-35937870D01*
X25879501Y-35937876D01*
X25885908Y-35997483D01*
X25936202Y-36132328D01*
X25936206Y-36132335D01*
X26022452Y-36247544D01*
X26022455Y-36247547D01*
X26137664Y-36333793D01*
X26137671Y-36333797D01*
X26272517Y-36384091D01*
X26272516Y-36384091D01*
X26279444Y-36384835D01*
X26332127Y-36390500D01*
X28277872Y-36390499D01*
X28337483Y-36384091D01*
X28472331Y-36333796D01*
X28587546Y-36247546D01*
X28673796Y-36132331D01*
X28724091Y-35997483D01*
X28730500Y-35937873D01*
X28730500Y-35364499D01*
X28750185Y-35297461D01*
X28802989Y-35251706D01*
X28854500Y-35240500D01*
X31370547Y-35240500D01*
X31437586Y-35260185D01*
X31483341Y-35312989D01*
X31493285Y-35382147D01*
X31464260Y-35445703D01*
X31458247Y-35452161D01*
X31259855Y-35650553D01*
X31196208Y-35714200D01*
X31183951Y-35724020D01*
X31184134Y-35724241D01*
X31178123Y-35729213D01*
X31130772Y-35779636D01*
X31109889Y-35800519D01*
X31109877Y-35800532D01*
X31105621Y-35806017D01*
X31101837Y-35810447D01*
X31069937Y-35844418D01*
X31069936Y-35844420D01*
X31060284Y-35861976D01*
X31049610Y-35878226D01*
X31037329Y-35894061D01*
X31037324Y-35894068D01*
X31018815Y-35936838D01*
X31016245Y-35942084D01*
X30993803Y-35982906D01*
X30988822Y-36002307D01*
X30982521Y-36020710D01*
X30974562Y-36039102D01*
X30974561Y-36039105D01*
X30967271Y-36085127D01*
X30966087Y-36090846D01*
X30954501Y-36135972D01*
X30954500Y-36135982D01*
X30954500Y-36156016D01*
X30952973Y-36175415D01*
X30950425Y-36191505D01*
X30949840Y-36195196D01*
X30950653Y-36203793D01*
X30954225Y-36241583D01*
X30954500Y-36247421D01*
X30954500Y-38121652D01*
X30934815Y-38188691D01*
X30895598Y-38227189D01*
X30818335Y-38274845D01*
X30773842Y-38302289D01*
X30649789Y-38426342D01*
X30557687Y-38575663D01*
X30557685Y-38575668D01*
X30540690Y-38626957D01*
X30502501Y-38742203D01*
X30502501Y-38742204D01*
X30502500Y-38742204D01*
X30492000Y-38844983D01*
X30492000Y-39895001D01*
X30492001Y-39895019D01*
X30502500Y-39997796D01*
X30502501Y-39997799D01*
X30557685Y-40164331D01*
X30557687Y-40164336D01*
X30586265Y-40210668D01*
X30649788Y-40313656D01*
X30773844Y-40437712D01*
X30923166Y-40529814D01*
X31089703Y-40584999D01*
X31192491Y-40595500D01*
X31869546Y-40595499D01*
X31936585Y-40615183D01*
X31957227Y-40631818D01*
X32129197Y-40803788D01*
X32139022Y-40816051D01*
X32139243Y-40815869D01*
X32144214Y-40821878D01*
X32165043Y-40841437D01*
X32194635Y-40869226D01*
X32215529Y-40890120D01*
X32221011Y-40894373D01*
X32225443Y-40898157D01*
X32259418Y-40930062D01*
X32276976Y-40939714D01*
X32293235Y-40950395D01*
X32309064Y-40962673D01*
X32351838Y-40981182D01*
X32357056Y-40983738D01*
X32397908Y-41006197D01*
X32417316Y-41011180D01*
X32435717Y-41017480D01*
X32454104Y-41025437D01*
X32497488Y-41032308D01*
X32500119Y-41032725D01*
X32505839Y-41033909D01*
X32550981Y-41045500D01*
X32571016Y-41045500D01*
X32590414Y-41047026D01*
X32610194Y-41050159D01*
X32610195Y-41050160D01*
X32610195Y-41050159D01*
X32610196Y-41050160D01*
X32656583Y-41045775D01*
X32662422Y-41045500D01*
X34173257Y-41045500D01*
X34188877Y-41047224D01*
X34188904Y-41046939D01*
X34196660Y-41047671D01*
X34196667Y-41047673D01*
X34265814Y-41045500D01*
X34295350Y-41045500D01*
X34302228Y-41044630D01*
X34308041Y-41044172D01*
X34354627Y-41042709D01*
X34373869Y-41037117D01*
X34392912Y-41033174D01*
X34412792Y-41030664D01*
X34456122Y-41013507D01*
X34461646Y-41011617D01*
X34465396Y-41010527D01*
X34506390Y-40998618D01*
X34523629Y-40988422D01*
X34541103Y-40979862D01*
X34559727Y-40972488D01*
X34559727Y-40972487D01*
X34559732Y-40972486D01*
X34597449Y-40945082D01*
X34602305Y-40941892D01*
X34642420Y-40918170D01*
X34656589Y-40903999D01*
X34671379Y-40891368D01*
X34687587Y-40879594D01*
X34717299Y-40843676D01*
X34721212Y-40839376D01*
X36640349Y-38920239D01*
X36701670Y-38886756D01*
X36771362Y-38891740D01*
X36799152Y-38906348D01*
X36837361Y-38933102D01*
X37035670Y-39025575D01*
X37247023Y-39082207D01*
X37426228Y-39097885D01*
X37464998Y-39101277D01*
X37465000Y-39101277D01*
X37465002Y-39101277D01*
X37493254Y-39098805D01*
X37682977Y-39082207D01*
X37894330Y-39025575D01*
X38092639Y-38933102D01*
X38271877Y-38807598D01*
X38426598Y-38652877D01*
X38552102Y-38473639D01*
X38644575Y-38275330D01*
X38644577Y-38275320D01*
X38644579Y-38275317D01*
X38668666Y-38185418D01*
X38700758Y-38129830D01*
X45363770Y-31466819D01*
X45425094Y-31433334D01*
X45451452Y-31430500D01*
X50731252Y-31430500D01*
X50798291Y-31450185D01*
X50823400Y-31471526D01*
X50829126Y-31477885D01*
X50829130Y-31477889D01*
X50982265Y-31589148D01*
X50982270Y-31589151D01*
X51155192Y-31666142D01*
X51155197Y-31666144D01*
X51340354Y-31705500D01*
X51399546Y-31705500D01*
X51466585Y-31725185D01*
X51487223Y-31741815D01*
X51498177Y-31752768D01*
X51531665Y-31814089D01*
X51534500Y-31840453D01*
X51534500Y-34044350D01*
X51532775Y-34059967D01*
X51533061Y-34059994D01*
X51532326Y-34067760D01*
X51534500Y-34136909D01*
X51534500Y-34166438D01*
X51534501Y-34166455D01*
X51535368Y-34173326D01*
X51535826Y-34179145D01*
X51537290Y-34225719D01*
X51537291Y-34225722D01*
X51542880Y-34244962D01*
X51546824Y-34264006D01*
X51549336Y-34283887D01*
X51559522Y-34309615D01*
X51566490Y-34327214D01*
X51568382Y-34332742D01*
X51581381Y-34377483D01*
X51591580Y-34394729D01*
X51600138Y-34412198D01*
X51607514Y-34430827D01*
X51634898Y-34468518D01*
X51638106Y-34473402D01*
X51661827Y-34513511D01*
X51661833Y-34513519D01*
X51675990Y-34527675D01*
X51688628Y-34542471D01*
X51700405Y-34558681D01*
X51700406Y-34558682D01*
X51736309Y-34588383D01*
X51740620Y-34592305D01*
X52530461Y-35382147D01*
X52792892Y-35644578D01*
X52802717Y-35656841D01*
X52802938Y-35656659D01*
X52807909Y-35662668D01*
X52833093Y-35686317D01*
X52858330Y-35710016D01*
X52879224Y-35730910D01*
X52884706Y-35735163D01*
X52889138Y-35738947D01*
X52923113Y-35770852D01*
X52940671Y-35780504D01*
X52956928Y-35791183D01*
X52972759Y-35803463D01*
X52988898Y-35810447D01*
X53015528Y-35821972D01*
X53020772Y-35824540D01*
X53061603Y-35846987D01*
X53074218Y-35850225D01*
X53081000Y-35851967D01*
X53099414Y-35858271D01*
X53117799Y-35866228D01*
X53163852Y-35873522D01*
X53169521Y-35874696D01*
X53214676Y-35886290D01*
X53234711Y-35886290D01*
X53254108Y-35887816D01*
X53273891Y-35890950D01*
X53320278Y-35886565D01*
X53326117Y-35886290D01*
X62963338Y-35886290D01*
X63030377Y-35905975D01*
X63051019Y-35922609D01*
X65499038Y-38370628D01*
X65532523Y-38431951D01*
X65534678Y-38445347D01*
X65541238Y-38507759D01*
X65552326Y-38613256D01*
X65552327Y-38613259D01*
X65610818Y-38793277D01*
X65610821Y-38793284D01*
X65705467Y-38957216D01*
X65798391Y-39060418D01*
X65832129Y-39097888D01*
X65985265Y-39209148D01*
X65985270Y-39209151D01*
X66158192Y-39286142D01*
X66158197Y-39286144D01*
X66343354Y-39325500D01*
X66343355Y-39325500D01*
X66532644Y-39325500D01*
X66532646Y-39325500D01*
X66717803Y-39286144D01*
X66890730Y-39209151D01*
X67043871Y-39097888D01*
X67046788Y-39094647D01*
X67049600Y-39091526D01*
X67109087Y-39054879D01*
X67141748Y-39050500D01*
X76849548Y-39050500D01*
X76916587Y-39070185D01*
X76937229Y-39086819D01*
X79472353Y-41621943D01*
X79482178Y-41634207D01*
X79482399Y-41634025D01*
X79487369Y-41640032D01*
X79487372Y-41640035D01*
X79487373Y-41640036D01*
X79537810Y-41687400D01*
X79558689Y-41708279D01*
X79564163Y-41712525D01*
X79568601Y-41716315D01*
X79602577Y-41748221D01*
X79602581Y-41748223D01*
X79620132Y-41757872D01*
X79636390Y-41768551D01*
X79652223Y-41780833D01*
X79674174Y-41790331D01*
X79694996Y-41799342D01*
X79700240Y-41801911D01*
X79741067Y-41824356D01*
X79760471Y-41829338D01*
X79778869Y-41835637D01*
X79797264Y-41843597D01*
X79843288Y-41850885D01*
X79848991Y-41852066D01*
X79894140Y-41863659D01*
X79914175Y-41863659D01*
X79933572Y-41865185D01*
X79953355Y-41868319D01*
X79999742Y-41863934D01*
X80005581Y-41863659D01*
X80337429Y-41863659D01*
X80404468Y-41883344D01*
X80425110Y-41899978D01*
X80606083Y-42080950D01*
X80895022Y-42369888D01*
X80975130Y-42435147D01*
X81090817Y-42493246D01*
X81131913Y-42513885D01*
X81274458Y-42547669D01*
X81302623Y-42554345D01*
X81302626Y-42554345D01*
X81478062Y-42554345D01*
X81478065Y-42554345D01*
X81580414Y-42530087D01*
X81648775Y-42513885D01*
X81648776Y-42513884D01*
X81648778Y-42513884D01*
X81805559Y-42435147D01*
X81885666Y-42369890D01*
X82592784Y-41662770D01*
X82658043Y-41582663D01*
X82736780Y-41425882D01*
X82777241Y-41255169D01*
X82777241Y-41079727D01*
X82740863Y-40926241D01*
X82744556Y-40856470D01*
X82773837Y-40809965D01*
X82828913Y-40754889D01*
X82890234Y-40721406D01*
X82945189Y-40721914D01*
X83098675Y-40758293D01*
X83098678Y-40758293D01*
X83274114Y-40758293D01*
X83274117Y-40758293D01*
X83366515Y-40736393D01*
X83444827Y-40717833D01*
X83444828Y-40717832D01*
X83444830Y-40717832D01*
X83601611Y-40639095D01*
X83681718Y-40573838D01*
X84388836Y-39866718D01*
X84454095Y-39786611D01*
X84532832Y-39629830D01*
X84542646Y-39588425D01*
X84564835Y-39494801D01*
X84573293Y-39459117D01*
X84573293Y-39283675D01*
X84536915Y-39130189D01*
X84540608Y-39060418D01*
X84569889Y-39013913D01*
X86648788Y-36935015D01*
X86661042Y-36925200D01*
X86660859Y-36924978D01*
X86666866Y-36920006D01*
X86666877Y-36920000D01*
X86697775Y-36887096D01*
X86714227Y-36869578D01*
X86724671Y-36859132D01*
X86735120Y-36848685D01*
X86739379Y-36843192D01*
X86743152Y-36838775D01*
X86775062Y-36804796D01*
X86784715Y-36787234D01*
X86795389Y-36770984D01*
X86807673Y-36755150D01*
X86826180Y-36712381D01*
X86828749Y-36707138D01*
X86841287Y-36684332D01*
X86851197Y-36666306D01*
X86856177Y-36646905D01*
X86862478Y-36628502D01*
X86870438Y-36610110D01*
X86877730Y-36564063D01*
X86878911Y-36558366D01*
X86890500Y-36513233D01*
X86890500Y-36493197D01*
X86892027Y-36473796D01*
X86895160Y-36454018D01*
X86890775Y-36407629D01*
X86890500Y-36401791D01*
X86890500Y-34277742D01*
X86892224Y-34262122D01*
X86891939Y-34262096D01*
X86892671Y-34254340D01*
X86892673Y-34254333D01*
X86890500Y-34185185D01*
X86890500Y-34155650D01*
X86889631Y-34148772D01*
X86889172Y-34142943D01*
X86887709Y-34096373D01*
X86887709Y-34096372D01*
X86882120Y-34077133D01*
X86878175Y-34058081D01*
X86875665Y-34038215D01*
X86875664Y-34038213D01*
X86875664Y-34038208D01*
X86858510Y-33994882D01*
X86856619Y-33989359D01*
X86845915Y-33952517D01*
X86843618Y-33944610D01*
X86833422Y-33927370D01*
X86824861Y-33909894D01*
X86817487Y-33891270D01*
X86816063Y-33889310D01*
X86790079Y-33853545D01*
X86786888Y-33848686D01*
X86763172Y-33808583D01*
X86763165Y-33808574D01*
X86749006Y-33794415D01*
X86736368Y-33779619D01*
X86724594Y-33763413D01*
X86723512Y-33762518D01*
X86688688Y-33733709D01*
X86684376Y-33729786D01*
X86430237Y-33475646D01*
X86396752Y-33414324D01*
X86398143Y-33355872D01*
X86425063Y-33255408D01*
X86445659Y-33020000D01*
X86443515Y-32995500D01*
X86433964Y-32886334D01*
X86425063Y-32784592D01*
X86363903Y-32556337D01*
X86264035Y-32342171D01*
X86257232Y-32332454D01*
X86128494Y-32148597D01*
X85961402Y-31981506D01*
X85961396Y-31981501D01*
X85775842Y-31851575D01*
X85732217Y-31796998D01*
X85725023Y-31727500D01*
X85756546Y-31665145D01*
X85775842Y-31648425D01*
X85801687Y-31630328D01*
X85961401Y-31518495D01*
X86128495Y-31351401D01*
X86264035Y-31157830D01*
X86363903Y-30943663D01*
X86425063Y-30715408D01*
X86445659Y-30480000D01*
X86425063Y-30244592D01*
X86363903Y-30016337D01*
X86264035Y-29802171D01*
X86260649Y-29797334D01*
X86128494Y-29608597D01*
X85961402Y-29441506D01*
X85961396Y-29441501D01*
X85775842Y-29311575D01*
X85732217Y-29256998D01*
X85725023Y-29187500D01*
X85756546Y-29125145D01*
X85775842Y-29108425D01*
X85802090Y-29090046D01*
X85961401Y-28978495D01*
X86128495Y-28811401D01*
X86264035Y-28617830D01*
X86363903Y-28403663D01*
X86425063Y-28175408D01*
X86445659Y-27940000D01*
X86444564Y-27927490D01*
X86436496Y-27835266D01*
X86425063Y-27704592D01*
X86377076Y-27525499D01*
X86363905Y-27476344D01*
X86363904Y-27476343D01*
X86363903Y-27476337D01*
X86264035Y-27262171D01*
X86251545Y-27244334D01*
X86128496Y-27068600D01*
X86082460Y-27022564D01*
X86006567Y-26946671D01*
X85973084Y-26885351D01*
X85978068Y-26815659D01*
X86019939Y-26759725D01*
X86050915Y-26742810D01*
X86182331Y-26693796D01*
X86297546Y-26607546D01*
X86383796Y-26492331D01*
X86434091Y-26357483D01*
X86440500Y-26297873D01*
X86440499Y-24502128D01*
X86434091Y-24442517D01*
X86409739Y-24377227D01*
X86383797Y-24307671D01*
X86383793Y-24307664D01*
X86297547Y-24192455D01*
X86297544Y-24192452D01*
X86182335Y-24106206D01*
X86182328Y-24106202D01*
X86047482Y-24055908D01*
X86047483Y-24055908D01*
X85987883Y-24049501D01*
X85987881Y-24049500D01*
X85987873Y-24049500D01*
X85987864Y-24049500D01*
X84192129Y-24049500D01*
X84192123Y-24049501D01*
X84132516Y-24055908D01*
X83997671Y-24106202D01*
X83997664Y-24106206D01*
X83882455Y-24192452D01*
X83882452Y-24192455D01*
X83796206Y-24307664D01*
X83796202Y-24307671D01*
X83745908Y-24442517D01*
X83739501Y-24502116D01*
X83739501Y-24502123D01*
X83739500Y-24502135D01*
X83739500Y-24650500D01*
X83719815Y-24717539D01*
X83667011Y-24763294D01*
X83615500Y-24774500D01*
X83495452Y-24774500D01*
X83428413Y-24754815D01*
X83407771Y-24738181D01*
X80691771Y-22022181D01*
X80658286Y-21960858D01*
X80663270Y-21891166D01*
X80705142Y-21835233D01*
X80770606Y-21810816D01*
X80779452Y-21810500D01*
X80976048Y-21810500D01*
X80976049Y-21810500D01*
X81204981Y-21772298D01*
X81424503Y-21696936D01*
X81628626Y-21586470D01*
X81645333Y-21573467D01*
X81761701Y-21482894D01*
X81811784Y-21443913D01*
X81968979Y-21273153D01*
X82095924Y-21078849D01*
X82189157Y-20866300D01*
X82246134Y-20641305D01*
X82265300Y-20410000D01*
X82265300Y-20409993D01*
X82246135Y-20178702D01*
X82246133Y-20178691D01*
X82189157Y-19953699D01*
X82095924Y-19741151D01*
X81968983Y-19546852D01*
X81968980Y-19546849D01*
X81968979Y-19546847D01*
X81811784Y-19376087D01*
X81811779Y-19376083D01*
X81811777Y-19376081D01*
X81628634Y-19233535D01*
X81628628Y-19233531D01*
X81424504Y-19123064D01*
X81424495Y-19123061D01*
X81204984Y-19047702D01*
X81033281Y-19019050D01*
X80976049Y-19009500D01*
X80743951Y-19009500D01*
X80698164Y-19017140D01*
X80515015Y-19047702D01*
X80295504Y-19123061D01*
X80295495Y-19123064D01*
X80091371Y-19233531D01*
X80091365Y-19233535D01*
X79908222Y-19376081D01*
X79908219Y-19376084D01*
X79751016Y-19546852D01*
X79624075Y-19741151D01*
X79530842Y-19953699D01*
X79473866Y-20178691D01*
X79473864Y-20178702D01*
X79454700Y-20409993D01*
X79454700Y-20410006D01*
X79473864Y-20641297D01*
X79473866Y-20641308D01*
X79530842Y-20866300D01*
X79609681Y-21046032D01*
X79624076Y-21078849D01*
X79665778Y-21142678D01*
X79685965Y-21209568D01*
X79666785Y-21276754D01*
X79614327Y-21322904D01*
X79561969Y-21334500D01*
X69561347Y-21334500D01*
X69545726Y-21332775D01*
X69545699Y-21333061D01*
X69537937Y-21332326D01*
X69468776Y-21334500D01*
X69439253Y-21334500D01*
X69432382Y-21335367D01*
X69426563Y-21335825D01*
X69379978Y-21337289D01*
X69379972Y-21337290D01*
X69360730Y-21342880D01*
X69341691Y-21346823D01*
X69321821Y-21349334D01*
X69321807Y-21349337D01*
X69278487Y-21366488D01*
X69272962Y-21368380D01*
X69228217Y-21381380D01*
X69228214Y-21381381D01*
X69210970Y-21391579D01*
X69193509Y-21400133D01*
X69174878Y-21407510D01*
X69174866Y-21407517D01*
X69137174Y-21434902D01*
X69132291Y-21438109D01*
X69092184Y-21461829D01*
X69078018Y-21475995D01*
X69063228Y-21488627D01*
X69047018Y-21500404D01*
X69047015Y-21500407D01*
X69017314Y-21536309D01*
X69013381Y-21540631D01*
X65815832Y-24738181D01*
X65754509Y-24771666D01*
X65728151Y-24774500D01*
X61532839Y-24774500D01*
X61517218Y-24772775D01*
X61517191Y-24773061D01*
X61509429Y-24772326D01*
X61440268Y-24774500D01*
X61410745Y-24774500D01*
X61403874Y-24775367D01*
X61398055Y-24775825D01*
X61351470Y-24777289D01*
X61351464Y-24777290D01*
X61332222Y-24782880D01*
X61313183Y-24786823D01*
X61293313Y-24789334D01*
X61293299Y-24789337D01*
X61249979Y-24806488D01*
X61244454Y-24808380D01*
X61199709Y-24821380D01*
X61199706Y-24821381D01*
X61182462Y-24831579D01*
X61165001Y-24840133D01*
X61146370Y-24847510D01*
X61146358Y-24847517D01*
X61108666Y-24874902D01*
X61103783Y-24878109D01*
X61063676Y-24901829D01*
X61049510Y-24915995D01*
X61034720Y-24928627D01*
X61018510Y-24940404D01*
X61018507Y-24940407D01*
X60988806Y-24976309D01*
X60984873Y-24980631D01*
X59791270Y-26174235D01*
X59729947Y-26207720D01*
X59703589Y-26210554D01*
X59644396Y-26210554D01*
X59611939Y-26217452D01*
X59459239Y-26249909D01*
X59459234Y-26249911D01*
X59286312Y-26326902D01*
X59286307Y-26326905D01*
X59133171Y-26438165D01*
X59006508Y-26578839D01*
X58911863Y-26742769D01*
X58911860Y-26742776D01*
X58859029Y-26905375D01*
X58853368Y-26922798D01*
X58833582Y-27111054D01*
X58853368Y-27299310D01*
X58853369Y-27299313D01*
X58911860Y-27479331D01*
X58911863Y-27479338D01*
X59006507Y-27643268D01*
X59006508Y-27643269D01*
X59029966Y-27669322D01*
X59060195Y-27732314D01*
X59051569Y-27801649D01*
X59029965Y-27835266D01*
X58957466Y-27915784D01*
X58862821Y-28079715D01*
X58862818Y-28079722D01*
X58807219Y-28250839D01*
X58804326Y-28259744D01*
X58784540Y-28448000D01*
X58784540Y-28448002D01*
X58784540Y-28454498D01*
X58783218Y-28454498D01*
X58771924Y-28516265D01*
X58724193Y-28567290D01*
X58661171Y-28584500D01*
X53570743Y-28584500D01*
X53555122Y-28582775D01*
X53555095Y-28583061D01*
X53547333Y-28582326D01*
X53478172Y-28584500D01*
X53448649Y-28584500D01*
X53441778Y-28585367D01*
X53435959Y-28585825D01*
X53389374Y-28587289D01*
X53389368Y-28587290D01*
X53370126Y-28592880D01*
X53351087Y-28596823D01*
X53331217Y-28599334D01*
X53331203Y-28599337D01*
X53287883Y-28616488D01*
X53282358Y-28618380D01*
X53237613Y-28631380D01*
X53237610Y-28631381D01*
X53220366Y-28641579D01*
X53202905Y-28650133D01*
X53184274Y-28657510D01*
X53184262Y-28657517D01*
X53146570Y-28684902D01*
X53141687Y-28688109D01*
X53101580Y-28711829D01*
X53087414Y-28725995D01*
X53072624Y-28738627D01*
X53056414Y-28750404D01*
X53056411Y-28750407D01*
X53026710Y-28786309D01*
X53022777Y-28790631D01*
X51882140Y-29931267D01*
X51820817Y-29964752D01*
X51751125Y-29959768D01*
X51744025Y-29956866D01*
X51714806Y-29943857D01*
X51714801Y-29943855D01*
X51549556Y-29908732D01*
X51529646Y-29904500D01*
X51340354Y-29904500D01*
X51320444Y-29908732D01*
X51155197Y-29943855D01*
X51155192Y-29943857D01*
X50982270Y-30020848D01*
X50982265Y-30020851D01*
X50829130Y-30132110D01*
X50829126Y-30132114D01*
X50823400Y-30138474D01*
X50763913Y-30175121D01*
X50731252Y-30179500D01*
X46950452Y-30179500D01*
X46883413Y-30159815D01*
X46837658Y-30107011D01*
X46827714Y-30037853D01*
X46856739Y-29974297D01*
X46862771Y-29967819D01*
X47740544Y-29090046D01*
X50421786Y-26408802D01*
X50434048Y-26398980D01*
X50433865Y-26398759D01*
X50439867Y-26393792D01*
X50439877Y-26393786D01*
X50487241Y-26343348D01*
X50508120Y-26322470D01*
X50512373Y-26316986D01*
X50516150Y-26312563D01*
X50548062Y-26278582D01*
X50557714Y-26261023D01*
X50568389Y-26244772D01*
X50580674Y-26228936D01*
X50599186Y-26186152D01*
X50601742Y-26180935D01*
X50624197Y-26140092D01*
X50629180Y-26120680D01*
X50635477Y-26102291D01*
X50643438Y-26083895D01*
X50650729Y-26037853D01*
X50651908Y-26032162D01*
X50663500Y-25987019D01*
X50663500Y-25966982D01*
X50665027Y-25947582D01*
X50668160Y-25927804D01*
X50663894Y-25882671D01*
X50663775Y-25881415D01*
X50663500Y-25875577D01*
X50663500Y-24442516D01*
X50663500Y-22916447D01*
X50683184Y-22849412D01*
X50699809Y-22828780D01*
X51596179Y-21932409D01*
X51657500Y-21898926D01*
X51715951Y-21900317D01*
X51726260Y-21903079D01*
X51748592Y-21909063D01*
X51925034Y-21924500D01*
X51983999Y-21929659D01*
X51984000Y-21929659D01*
X51984001Y-21929659D01*
X52042966Y-21924500D01*
X52219408Y-21909063D01*
X52447663Y-21847903D01*
X52661830Y-21748035D01*
X52855401Y-21612495D01*
X53022495Y-21445401D01*
X53152424Y-21259842D01*
X53207002Y-21216217D01*
X53276500Y-21209023D01*
X53338855Y-21240546D01*
X53355575Y-21259842D01*
X53484466Y-21443918D01*
X53485505Y-21445401D01*
X53652599Y-21612495D01*
X53734593Y-21669908D01*
X53846165Y-21748032D01*
X53846167Y-21748033D01*
X53846170Y-21748035D01*
X54060337Y-21847903D01*
X54288592Y-21909063D01*
X54465034Y-21924500D01*
X54523999Y-21929659D01*
X54524000Y-21929659D01*
X54524001Y-21929659D01*
X54582966Y-21924500D01*
X54759408Y-21909063D01*
X54987663Y-21847903D01*
X55201830Y-21748035D01*
X55395401Y-21612495D01*
X55517329Y-21490566D01*
X55578648Y-21457084D01*
X55648340Y-21462068D01*
X55704274Y-21503939D01*
X55721189Y-21534917D01*
X55770202Y-21666328D01*
X55770206Y-21666335D01*
X55856452Y-21781544D01*
X55856455Y-21781547D01*
X55971664Y-21867793D01*
X55971671Y-21867797D01*
X56106517Y-21918091D01*
X56106516Y-21918091D01*
X56113444Y-21918835D01*
X56166127Y-21924500D01*
X57961872Y-21924499D01*
X58021483Y-21918091D01*
X58156331Y-21867796D01*
X58271546Y-21781546D01*
X58357796Y-21666331D01*
X58408091Y-21531483D01*
X58414500Y-21471873D01*
X58414500Y-21244007D01*
X61498671Y-21244007D01*
X61517964Y-21538363D01*
X61517965Y-21538373D01*
X61517966Y-21538380D01*
X61573411Y-21817126D01*
X61575518Y-21827716D01*
X61575521Y-21827730D01*
X61670349Y-22107080D01*
X61800825Y-22371660D01*
X61800829Y-22371667D01*
X61964725Y-22616955D01*
X62159241Y-22838758D01*
X62381044Y-23033274D01*
X62626332Y-23197170D01*
X62626339Y-23197174D01*
X62757787Y-23261997D01*
X62890923Y-23327652D01*
X63170278Y-23422481D01*
X63459620Y-23480034D01*
X63487888Y-23481886D01*
X63753993Y-23499329D01*
X63754000Y-23499329D01*
X63754007Y-23499329D01*
X63989675Y-23483881D01*
X64048380Y-23480034D01*
X64337722Y-23422481D01*
X64617077Y-23327652D01*
X64881665Y-23197172D01*
X65126957Y-23033273D01*
X65348758Y-22838758D01*
X65543273Y-22616957D01*
X65707172Y-22371665D01*
X65837652Y-22107077D01*
X65932481Y-21827722D01*
X65990034Y-21538380D01*
X65995051Y-21461830D01*
X66009329Y-21244007D01*
X66009329Y-21243992D01*
X65990035Y-20949636D01*
X65990034Y-20949620D01*
X65932481Y-20660278D01*
X65837652Y-20380923D01*
X65707172Y-20116336D01*
X65703168Y-20110344D01*
X65598502Y-19953700D01*
X65543273Y-19871043D01*
X65483322Y-19802682D01*
X65348758Y-19649241D01*
X65126955Y-19454725D01*
X64881667Y-19290829D01*
X64881660Y-19290825D01*
X64617080Y-19160349D01*
X64337730Y-19065521D01*
X64337724Y-19065519D01*
X64337722Y-19065519D01*
X64048380Y-19007966D01*
X64048373Y-19007965D01*
X64048363Y-19007964D01*
X63754007Y-18988671D01*
X63753993Y-18988671D01*
X63459636Y-19007964D01*
X63459624Y-19007965D01*
X63459620Y-19007966D01*
X63459612Y-19007967D01*
X63459609Y-19007968D01*
X63170283Y-19065518D01*
X63170269Y-19065521D01*
X62890919Y-19160349D01*
X62626334Y-19290828D01*
X62381041Y-19454728D01*
X62159241Y-19649241D01*
X61964728Y-19871041D01*
X61800828Y-20116334D01*
X61670349Y-20380919D01*
X61575521Y-20660269D01*
X61575518Y-20660283D01*
X61517968Y-20949609D01*
X61517964Y-20949636D01*
X61498671Y-21243992D01*
X61498671Y-21244007D01*
X58414500Y-21244007D01*
X58414499Y-19676128D01*
X58408091Y-19616517D01*
X58406810Y-19613083D01*
X58357797Y-19481671D01*
X58357793Y-19481664D01*
X58271547Y-19366455D01*
X58271544Y-19366452D01*
X58156335Y-19280206D01*
X58156328Y-19280202D01*
X58021482Y-19229908D01*
X58021483Y-19229908D01*
X57961883Y-19223501D01*
X57961881Y-19223500D01*
X57961873Y-19223500D01*
X57961864Y-19223500D01*
X56166129Y-19223500D01*
X56166123Y-19223501D01*
X56106516Y-19229908D01*
X55971671Y-19280202D01*
X55971664Y-19280206D01*
X55856455Y-19366452D01*
X55856452Y-19366455D01*
X55770206Y-19481664D01*
X55770203Y-19481669D01*
X55721189Y-19613083D01*
X55679317Y-19669016D01*
X55613853Y-19693433D01*
X55545580Y-19678581D01*
X55517326Y-19657430D01*
X55395402Y-19535506D01*
X55395395Y-19535501D01*
X55201834Y-19399967D01*
X55201830Y-19399965D01*
X55168215Y-19384290D01*
X54987663Y-19300097D01*
X54987659Y-19300096D01*
X54987655Y-19300094D01*
X54759413Y-19238938D01*
X54759403Y-19238936D01*
X54524001Y-19218341D01*
X54523999Y-19218341D01*
X54288596Y-19238936D01*
X54288586Y-19238938D01*
X54060344Y-19300094D01*
X54060335Y-19300098D01*
X53846171Y-19399964D01*
X53846169Y-19399965D01*
X53652597Y-19535505D01*
X53485508Y-19702594D01*
X53355574Y-19888159D01*
X53300997Y-19931784D01*
X53231498Y-19938976D01*
X53169144Y-19907454D01*
X53152424Y-19888158D01*
X53118935Y-19840331D01*
X53092574Y-19802682D01*
X53022494Y-19702597D01*
X52855402Y-19535506D01*
X52855395Y-19535501D01*
X52661834Y-19399967D01*
X52661830Y-19399965D01*
X52628215Y-19384290D01*
X52447663Y-19300097D01*
X52447659Y-19300096D01*
X52447655Y-19300094D01*
X52219413Y-19238938D01*
X52219403Y-19238936D01*
X51984001Y-19218341D01*
X51983999Y-19218341D01*
X51748596Y-19238936D01*
X51748586Y-19238938D01*
X51520344Y-19300094D01*
X51520335Y-19300098D01*
X51306171Y-19399964D01*
X51306169Y-19399965D01*
X51112597Y-19535505D01*
X50945505Y-19702597D01*
X50809965Y-19896169D01*
X50809964Y-19896171D01*
X50710098Y-20110335D01*
X50710094Y-20110344D01*
X50648938Y-20338586D01*
X50648936Y-20338596D01*
X50628341Y-20573999D01*
X50628341Y-20574000D01*
X50648936Y-20809403D01*
X50648938Y-20809413D01*
X50694029Y-20977698D01*
X50692366Y-21047548D01*
X50661935Y-21097472D01*
X49654208Y-22105199D01*
X49641951Y-22115020D01*
X49642134Y-22115241D01*
X49636123Y-22120213D01*
X49588772Y-22170636D01*
X49567889Y-22191519D01*
X49567877Y-22191532D01*
X49563621Y-22197017D01*
X49559837Y-22201447D01*
X49527937Y-22235418D01*
X49527936Y-22235420D01*
X49518284Y-22252976D01*
X49507610Y-22269226D01*
X49495329Y-22285061D01*
X49495324Y-22285068D01*
X49476815Y-22327838D01*
X49474245Y-22333084D01*
X49451803Y-22373906D01*
X49446822Y-22393307D01*
X49440521Y-22411710D01*
X49432562Y-22430102D01*
X49432561Y-22430105D01*
X49425271Y-22476127D01*
X49424087Y-22481846D01*
X49412501Y-22526972D01*
X49412500Y-22526982D01*
X49412500Y-22547016D01*
X49410973Y-22566415D01*
X49407840Y-22586194D01*
X49407839Y-22586197D01*
X49412224Y-22632585D01*
X49412499Y-22638421D01*
X49412500Y-25597546D01*
X49392815Y-25664585D01*
X49376181Y-25685227D01*
X44740411Y-30320996D01*
X44725621Y-30333629D01*
X44709414Y-30345405D01*
X44709412Y-30345406D01*
X44679709Y-30381310D01*
X44675777Y-30385631D01*
X38289650Y-36771757D01*
X38228327Y-36805242D01*
X38158635Y-36800258D01*
X38130845Y-36785650D01*
X38092645Y-36758902D01*
X38092639Y-36758898D01*
X38078202Y-36752166D01*
X37894330Y-36666425D01*
X37894326Y-36666424D01*
X37894322Y-36666422D01*
X37682977Y-36609793D01*
X37465002Y-36590723D01*
X37464998Y-36590723D01*
X37319682Y-36603436D01*
X37247023Y-36609793D01*
X37247020Y-36609793D01*
X37035677Y-36666422D01*
X37035668Y-36666426D01*
X36837361Y-36758898D01*
X36837357Y-36758900D01*
X36658121Y-36884402D01*
X36503402Y-37039121D01*
X36377900Y-37218357D01*
X36377898Y-37218361D01*
X36285425Y-37416669D01*
X36261331Y-37506585D01*
X36229238Y-37562170D01*
X34033228Y-39758181D01*
X33971905Y-39791666D01*
X33945547Y-39794500D01*
X32940453Y-39794500D01*
X32873414Y-39774815D01*
X32852772Y-39758181D01*
X32704318Y-39609727D01*
X32670833Y-39548404D01*
X32667999Y-39522046D01*
X32667999Y-38844998D01*
X32667998Y-38844981D01*
X32657499Y-38742203D01*
X32657498Y-38742200D01*
X32640935Y-38692216D01*
X32602314Y-38575666D01*
X32510212Y-38426344D01*
X32386156Y-38302288D01*
X32264402Y-38227190D01*
X32217679Y-38175243D01*
X32205500Y-38121652D01*
X32205500Y-36525452D01*
X32225185Y-36458413D01*
X32241819Y-36437771D01*
X33402772Y-35276819D01*
X33464095Y-35243334D01*
X33490453Y-35240500D01*
X33556230Y-35240500D01*
X33556250Y-35240499D01*
X34477871Y-35240499D01*
X34477872Y-35240499D01*
X34537483Y-35234091D01*
X34672331Y-35183796D01*
X34787546Y-35097546D01*
X34873796Y-34982331D01*
X34873798Y-34982323D01*
X34875027Y-34980076D01*
X34876849Y-34978253D01*
X34879112Y-34975231D01*
X34879546Y-34975556D01*
X34924431Y-34930669D01*
X34983861Y-34915500D01*
X36411506Y-34915500D01*
X36478545Y-34935185D01*
X36510772Y-34965189D01*
X36557448Y-35027539D01*
X36557451Y-35027542D01*
X36557454Y-35027546D01*
X36557457Y-35027548D01*
X36672664Y-35113793D01*
X36672671Y-35113797D01*
X36807517Y-35164091D01*
X36807516Y-35164091D01*
X36814444Y-35164835D01*
X36867127Y-35170500D01*
X38062872Y-35170499D01*
X38122483Y-35164091D01*
X38257331Y-35113796D01*
X38372546Y-35027546D01*
X38458796Y-34912331D01*
X38509091Y-34777483D01*
X38515500Y-34717873D01*
X38515499Y-33822128D01*
X38509091Y-33762517D01*
X38472096Y-33663330D01*
X38467113Y-33593642D01*
X38472092Y-33576680D01*
X38509091Y-33477483D01*
X38515500Y-33417873D01*
X38515499Y-31322128D01*
X38509091Y-31262517D01*
X38507617Y-31258566D01*
X38458797Y-31127671D01*
X38458793Y-31127664D01*
X38372547Y-31012455D01*
X38372544Y-31012452D01*
X38257335Y-30926206D01*
X38257328Y-30926202D01*
X38122482Y-30875908D01*
X38122483Y-30875908D01*
X38062883Y-30869501D01*
X38062881Y-30869500D01*
X38062873Y-30869500D01*
X38062864Y-30869500D01*
X36867129Y-30869500D01*
X36867123Y-30869501D01*
X36807516Y-30875908D01*
X36672671Y-30926202D01*
X36672664Y-30926206D01*
X36557455Y-31012452D01*
X36557452Y-31012455D01*
X36471206Y-31127664D01*
X36471202Y-31127671D01*
X36420908Y-31262517D01*
X36414501Y-31322116D01*
X36414501Y-31322123D01*
X36414500Y-31322135D01*
X36414500Y-31620500D01*
X36394815Y-31687539D01*
X36342011Y-31733294D01*
X36290500Y-31744500D01*
X35054499Y-31744500D01*
X34987460Y-31724815D01*
X34941705Y-31672011D01*
X34930499Y-31620500D01*
X34930499Y-31492129D01*
X34930498Y-31492123D01*
X34930497Y-31492116D01*
X34924091Y-31432517D01*
X34904169Y-31379104D01*
X34873797Y-31297671D01*
X34873793Y-31297664D01*
X34787547Y-31182455D01*
X34787544Y-31182452D01*
X34672335Y-31096206D01*
X34672328Y-31096202D01*
X34537482Y-31045908D01*
X34537483Y-31045908D01*
X34477883Y-31039501D01*
X34477881Y-31039500D01*
X34477873Y-31039500D01*
X34477865Y-31039500D01*
X34254500Y-31039500D01*
X34187461Y-31019815D01*
X34141706Y-30967011D01*
X34130500Y-30915500D01*
X34130500Y-30519443D01*
X34150185Y-30452404D01*
X34202989Y-30406649D01*
X34215490Y-30401738D01*
X34311834Y-30369814D01*
X34461156Y-30277712D01*
X34585212Y-30153656D01*
X34677314Y-30004334D01*
X34732499Y-29837797D01*
X34743000Y-29735009D01*
X34742999Y-28684992D01*
X34740192Y-28657517D01*
X34732499Y-28582203D01*
X34732498Y-28582200D01*
X34716333Y-28533417D01*
X34677314Y-28415666D01*
X34677313Y-28415664D01*
X34675042Y-28408811D01*
X34678100Y-28407797D01*
X34669713Y-28352950D01*
X34698169Y-28289137D01*
X34756607Y-28250839D01*
X34792604Y-28245499D01*
X35107871Y-28245499D01*
X35107872Y-28245499D01*
X35167483Y-28239091D01*
X35302331Y-28188796D01*
X35417546Y-28102546D01*
X35464075Y-28040392D01*
X35509112Y-27980231D01*
X35512125Y-27982486D01*
X35549106Y-27945596D01*
X35608401Y-27930500D01*
X36311851Y-27930500D01*
X36378890Y-27950185D01*
X36413423Y-27983374D01*
X36503402Y-28111877D01*
X36658123Y-28266598D01*
X36837361Y-28392102D01*
X37035670Y-28484575D01*
X37247023Y-28541207D01*
X37429926Y-28557208D01*
X37464998Y-28560277D01*
X37465000Y-28560277D01*
X37465002Y-28560277D01*
X37493254Y-28557805D01*
X37682977Y-28541207D01*
X37894330Y-28484575D01*
X38092639Y-28392102D01*
X38271877Y-28266598D01*
X38426598Y-28111877D01*
X38552102Y-27932639D01*
X38644575Y-27734330D01*
X38701207Y-27522977D01*
X38720277Y-27305000D01*
X38719779Y-27299313D01*
X38714970Y-27244336D01*
X38701207Y-27087023D01*
X38656029Y-26918418D01*
X38644577Y-26875677D01*
X38644576Y-26875676D01*
X38644575Y-26875670D01*
X38552102Y-26677362D01*
X38552100Y-26677359D01*
X38552099Y-26677357D01*
X38426599Y-26498124D01*
X38349677Y-26421202D01*
X38271877Y-26343402D01*
X38108403Y-26228936D01*
X38092638Y-26217897D01*
X37992673Y-26171283D01*
X37894330Y-26125425D01*
X37894326Y-26125424D01*
X37894322Y-26125422D01*
X37682977Y-26068793D01*
X37465002Y-26049723D01*
X37464998Y-26049723D01*
X37336020Y-26061007D01*
X37247023Y-26068793D01*
X37247020Y-26068793D01*
X37035677Y-26125422D01*
X37035668Y-26125426D01*
X36837361Y-26217898D01*
X36837357Y-26217900D01*
X36658121Y-26343402D01*
X36503402Y-26498121D01*
X36413425Y-26626623D01*
X36358848Y-26670248D01*
X36311850Y-26679500D01*
X35608401Y-26679500D01*
X35541362Y-26659815D01*
X35511610Y-26627898D01*
X35509112Y-26629769D01*
X35417547Y-26507455D01*
X35417544Y-26507452D01*
X35302335Y-26421206D01*
X35302328Y-26421202D01*
X35167482Y-26370908D01*
X35167483Y-26370908D01*
X35107883Y-26364501D01*
X35107881Y-26364500D01*
X35107873Y-26364500D01*
X35107865Y-26364500D01*
X32509451Y-26364500D01*
X32442412Y-26344815D01*
X32396657Y-26292011D01*
X32386713Y-26222853D01*
X32415738Y-26159297D01*
X32421770Y-26152819D01*
X32907202Y-25667388D01*
X33562771Y-25011818D01*
X33624095Y-24978333D01*
X33650453Y-24975499D01*
X35107871Y-24975499D01*
X35107872Y-24975499D01*
X35167483Y-24969091D01*
X35302331Y-24918796D01*
X35417546Y-24832546D01*
X35503796Y-24717331D01*
X35554091Y-24582483D01*
X35560500Y-24522873D01*
X35560499Y-23547128D01*
X35554091Y-23487517D01*
X35551300Y-23480035D01*
X35503797Y-23352671D01*
X35503793Y-23352664D01*
X35417547Y-23237455D01*
X35417544Y-23237452D01*
X35302335Y-23151206D01*
X35302328Y-23151202D01*
X35167482Y-23100908D01*
X35167483Y-23100908D01*
X35107883Y-23094501D01*
X35107881Y-23094500D01*
X35107873Y-23094500D01*
X35107864Y-23094500D01*
X32202129Y-23094500D01*
X32202123Y-23094501D01*
X32142516Y-23100908D01*
X32007671Y-23151202D01*
X32007664Y-23151206D01*
X31892455Y-23237452D01*
X31892452Y-23237455D01*
X31806206Y-23352664D01*
X31806202Y-23352671D01*
X31755908Y-23487517D01*
X31749501Y-23547116D01*
X31749501Y-23547123D01*
X31749500Y-23547135D01*
X31749500Y-24522870D01*
X31749501Y-24522876D01*
X31755908Y-24582483D01*
X31806202Y-24717328D01*
X31806204Y-24717331D01*
X31862486Y-24792514D01*
X31886904Y-24857977D01*
X31872053Y-24926250D01*
X31850901Y-24954506D01*
X31178686Y-25626721D01*
X31117363Y-25660206D01*
X31047673Y-25655222D01*
X30982485Y-25630909D01*
X30982483Y-25630908D01*
X30922883Y-25624501D01*
X30922881Y-25624500D01*
X30922873Y-25624500D01*
X30922865Y-25624500D01*
X30169046Y-25624500D01*
X30102007Y-25604815D01*
X30056252Y-25552011D01*
X30046308Y-25482853D01*
X30075333Y-25419297D01*
X30125712Y-25384318D01*
X30167331Y-25368796D01*
X30282546Y-25282546D01*
X30368796Y-25167331D01*
X30419091Y-25032483D01*
X30425500Y-24972873D01*
X30425499Y-23977128D01*
X30419091Y-23917517D01*
X30418742Y-23916582D01*
X30368797Y-23782671D01*
X30368793Y-23782664D01*
X30282547Y-23667455D01*
X30282544Y-23667452D01*
X30167335Y-23581206D01*
X30167328Y-23581202D01*
X30032482Y-23530908D01*
X30032483Y-23530908D01*
X29972883Y-23524501D01*
X29972881Y-23524500D01*
X29972873Y-23524500D01*
X29972864Y-23524500D01*
X29077129Y-23524500D01*
X29077123Y-23524501D01*
X29017516Y-23530908D01*
X28882671Y-23581202D01*
X28882664Y-23581206D01*
X28767455Y-23667452D01*
X28767452Y-23667455D01*
X28681207Y-23782663D01*
X28679973Y-23784924D01*
X28678150Y-23786746D01*
X28675888Y-23789769D01*
X28675453Y-23789443D01*
X28630569Y-23834331D01*
X28571139Y-23849500D01*
X28217737Y-23849500D01*
X28202120Y-23847776D01*
X28202093Y-23848062D01*
X28194331Y-23847327D01*
X28125203Y-23849500D01*
X28095650Y-23849500D01*
X28094929Y-23849590D01*
X28088757Y-23850369D01*
X28082945Y-23850826D01*
X28036372Y-23852290D01*
X28036369Y-23852291D01*
X28017126Y-23857881D01*
X27998083Y-23861825D01*
X27978204Y-23864336D01*
X27978203Y-23864337D01*
X27934878Y-23881490D01*
X27929352Y-23883382D01*
X27884608Y-23896383D01*
X27884604Y-23896385D01*
X27867365Y-23906580D01*
X27849898Y-23915137D01*
X27831269Y-23922512D01*
X27831267Y-23922513D01*
X27793564Y-23949906D01*
X27788682Y-23953112D01*
X27748580Y-23976828D01*
X27734408Y-23991000D01*
X27719623Y-24003628D01*
X27703412Y-24015407D01*
X27673709Y-24051310D01*
X27669777Y-24055631D01*
X26287226Y-25438181D01*
X26225903Y-25471666D01*
X26199545Y-25474500D01*
X25534998Y-25474500D01*
X25534980Y-25474501D01*
X25432203Y-25485000D01*
X25432200Y-25485001D01*
X25265668Y-25540185D01*
X25265663Y-25540187D01*
X25116342Y-25632289D01*
X24992289Y-25756342D01*
X24900187Y-25905663D01*
X24900185Y-25905668D01*
X24879156Y-25969129D01*
X24845001Y-26072203D01*
X24845001Y-26072204D01*
X24845000Y-26072204D01*
X24834500Y-26174983D01*
X24834500Y-26975001D01*
X24834501Y-26975019D01*
X24845000Y-27077796D01*
X24845001Y-27077799D01*
X24900185Y-27244331D01*
X24900187Y-27244336D01*
X24914372Y-27267334D01*
X24992288Y-27393656D01*
X25116344Y-27517712D01*
X25265666Y-27609814D01*
X25265668Y-27609815D01*
X25286110Y-27616588D01*
X25324502Y-27629310D01*
X25381947Y-27669081D01*
X25408772Y-27733596D01*
X25409500Y-27747016D01*
X25409500Y-28249546D01*
X25389815Y-28316585D01*
X25373181Y-28337227D01*
X22680646Y-31029761D01*
X22619323Y-31063246D01*
X22560873Y-31061855D01*
X22460408Y-31034937D01*
X22225001Y-31014341D01*
X22224999Y-31014341D01*
X21989596Y-31034936D01*
X21989586Y-31034938D01*
X21761344Y-31096094D01*
X21761335Y-31096098D01*
X21547171Y-31195964D01*
X21547169Y-31195965D01*
X21353597Y-31331505D01*
X21186505Y-31498597D01*
X21050965Y-31692169D01*
X21050964Y-31692171D01*
X20951098Y-31906335D01*
X20951094Y-31906344D01*
X20889938Y-32134586D01*
X20889936Y-32134596D01*
X20869341Y-32369999D01*
X20869341Y-32370000D01*
X18410500Y-32370000D01*
X18410500Y-24362212D01*
X18410658Y-24357788D01*
X18415492Y-24290203D01*
X18427049Y-24143360D01*
X18428276Y-24135045D01*
X18428277Y-24135044D01*
X18445491Y-24055909D01*
X18448902Y-24040231D01*
X18454862Y-24015407D01*
X18476860Y-23923774D01*
X18479051Y-23916598D01*
X18514989Y-23820246D01*
X18558943Y-23714133D01*
X18561797Y-23708167D01*
X18611563Y-23617027D01*
X18613053Y-23614453D01*
X18671500Y-23519075D01*
X18674690Y-23514375D01*
X18737458Y-23430527D01*
X18739873Y-23427508D01*
X18812020Y-23343036D01*
X18815278Y-23339511D01*
X18889511Y-23265278D01*
X18893036Y-23262020D01*
X18977508Y-23189873D01*
X18980527Y-23187458D01*
X19064375Y-23124690D01*
X19069075Y-23121500D01*
X19164453Y-23063053D01*
X19167027Y-23061563D01*
X19258167Y-23011797D01*
X19264133Y-23008943D01*
X19370246Y-22964989D01*
X19466611Y-22929046D01*
X19473764Y-22926863D01*
X19590191Y-22898910D01*
X19685058Y-22878273D01*
X19693351Y-22877050D01*
X19840203Y-22865492D01*
X19907792Y-22860657D01*
X19912213Y-22860500D01*
X21315082Y-22860500D01*
X21323234Y-22862893D01*
X21351222Y-22860691D01*
X21356089Y-22860500D01*
X21467316Y-22860500D01*
X21467318Y-22860500D01*
X21568665Y-22845928D01*
X21573466Y-22846618D01*
X21584997Y-22843850D01*
X21590648Y-22842767D01*
X21595943Y-22842006D01*
X21602819Y-22841018D01*
X21606779Y-22840578D01*
X21669913Y-22835609D01*
X21686618Y-22827943D01*
X21699480Y-22824166D01*
X21794584Y-22796241D01*
X21800215Y-22796241D01*
X21810851Y-22791835D01*
X21817113Y-22789626D01*
X21817377Y-22789548D01*
X21843716Y-22781814D01*
X21846659Y-22781030D01*
X21888615Y-22770957D01*
X21903077Y-22761552D01*
X22007337Y-22713938D01*
X22014137Y-22712960D01*
X22024550Y-22706580D01*
X22031191Y-22703044D01*
X22080950Y-22680321D01*
X22080953Y-22680318D01*
X22081393Y-22680118D01*
X22086790Y-22677536D01*
X22095124Y-22674083D01*
X22107110Y-22663508D01*
X22204353Y-22601015D01*
X22212181Y-22598716D01*
X22221898Y-22590417D01*
X22228640Y-22585406D01*
X22261513Y-22564281D01*
X22265269Y-22561025D01*
X22281692Y-22549003D01*
X22284756Y-22547125D01*
X22294168Y-22535984D01*
X22356648Y-22481846D01*
X22381817Y-22460037D01*
X22390360Y-22456135D01*
X22395814Y-22449750D01*
X22408904Y-22436566D01*
X22423724Y-22423724D01*
X22436566Y-22408904D01*
X22449750Y-22395814D01*
X22453163Y-22392898D01*
X22460037Y-22381817D01*
X22535983Y-22294170D01*
X22544847Y-22288472D01*
X22549003Y-22281692D01*
X22561027Y-22265268D01*
X22564281Y-22261513D01*
X22585406Y-22228640D01*
X22590417Y-22221898D01*
X22596500Y-22214775D01*
X22601013Y-22204355D01*
X22663506Y-22107113D01*
X22672259Y-22099529D01*
X22677536Y-22086790D01*
X22680118Y-22081393D01*
X22680318Y-22080953D01*
X22680321Y-22080950D01*
X22703044Y-22031191D01*
X22706580Y-22024550D01*
X22711448Y-22016605D01*
X22713937Y-22007339D01*
X22761551Y-21903079D01*
X22769759Y-21893607D01*
X22781030Y-21846659D01*
X22781814Y-21843716D01*
X22789625Y-21817113D01*
X22791835Y-21810851D01*
X22795326Y-21802422D01*
X22796241Y-21794583D01*
X22799802Y-21782458D01*
X22827942Y-21686618D01*
X22835180Y-21675356D01*
X22840578Y-21606779D01*
X22841018Y-21602819D01*
X22842767Y-21590652D01*
X22843850Y-21584997D01*
X22846134Y-21575481D01*
X22845928Y-21568665D01*
X22860500Y-21467318D01*
X22860500Y-21360000D01*
X22860500Y-21359500D01*
X22860500Y-21356089D01*
X22860691Y-21351222D01*
X22862606Y-21326884D01*
X22860500Y-21315081D01*
X22860500Y-20410006D01*
X23454700Y-20410006D01*
X23473864Y-20641297D01*
X23473866Y-20641308D01*
X23530842Y-20866300D01*
X23624075Y-21078848D01*
X23751016Y-21273147D01*
X23751019Y-21273151D01*
X23751021Y-21273153D01*
X23908216Y-21443913D01*
X23908219Y-21443915D01*
X23908222Y-21443918D01*
X24091365Y-21586464D01*
X24091371Y-21586468D01*
X24091374Y-21586470D01*
X24295497Y-21696936D01*
X24403659Y-21734068D01*
X24515015Y-21772297D01*
X24515017Y-21772297D01*
X24515019Y-21772298D01*
X24743951Y-21810500D01*
X24743952Y-21810500D01*
X24976048Y-21810500D01*
X24976049Y-21810500D01*
X25204981Y-21772298D01*
X25424503Y-21696936D01*
X25628626Y-21586470D01*
X25645333Y-21573467D01*
X25761701Y-21482894D01*
X25811784Y-21443913D01*
X25968979Y-21273153D01*
X25988021Y-21244007D01*
X40498671Y-21244007D01*
X40517964Y-21538363D01*
X40517965Y-21538373D01*
X40517966Y-21538380D01*
X40573411Y-21817126D01*
X40575518Y-21827716D01*
X40575521Y-21827730D01*
X40670349Y-22107080D01*
X40800825Y-22371660D01*
X40800829Y-22371667D01*
X40964725Y-22616955D01*
X41159241Y-22838758D01*
X41381044Y-23033274D01*
X41626332Y-23197170D01*
X41626339Y-23197174D01*
X41757787Y-23261997D01*
X41890923Y-23327652D01*
X42170278Y-23422481D01*
X42459620Y-23480034D01*
X42487888Y-23481886D01*
X42753993Y-23499329D01*
X42754000Y-23499329D01*
X42754007Y-23499329D01*
X42989675Y-23483881D01*
X43048380Y-23480034D01*
X43337722Y-23422481D01*
X43617077Y-23327652D01*
X43881665Y-23197172D01*
X44126957Y-23033273D01*
X44348758Y-22838758D01*
X44543273Y-22616957D01*
X44707172Y-22371665D01*
X44837652Y-22107077D01*
X44932481Y-21827722D01*
X44990034Y-21538380D01*
X44995051Y-21461830D01*
X45009329Y-21244007D01*
X45009329Y-21243992D01*
X44990035Y-20949636D01*
X44990034Y-20949620D01*
X44932481Y-20660278D01*
X44837652Y-20380923D01*
X44707172Y-20116336D01*
X44703168Y-20110344D01*
X44598502Y-19953700D01*
X44543273Y-19871043D01*
X44483322Y-19802682D01*
X44348758Y-19649241D01*
X44126955Y-19454725D01*
X43881667Y-19290829D01*
X43881660Y-19290825D01*
X43617080Y-19160349D01*
X43337730Y-19065521D01*
X43337724Y-19065519D01*
X43337722Y-19065519D01*
X43048380Y-19007966D01*
X43048373Y-19007965D01*
X43048363Y-19007964D01*
X42754007Y-18988671D01*
X42753993Y-18988671D01*
X42459636Y-19007964D01*
X42459624Y-19007965D01*
X42459620Y-19007966D01*
X42459612Y-19007967D01*
X42459609Y-19007968D01*
X42170283Y-19065518D01*
X42170269Y-19065521D01*
X41890919Y-19160349D01*
X41626334Y-19290828D01*
X41381041Y-19454728D01*
X41159241Y-19649241D01*
X40964728Y-19871041D01*
X40800828Y-20116334D01*
X40670349Y-20380919D01*
X40575521Y-20660269D01*
X40575518Y-20660283D01*
X40517968Y-20949609D01*
X40517964Y-20949636D01*
X40498671Y-21243992D01*
X40498671Y-21244007D01*
X25988021Y-21244007D01*
X26095924Y-21078849D01*
X26189157Y-20866300D01*
X26246134Y-20641305D01*
X26265300Y-20410000D01*
X26265300Y-20409993D01*
X26246135Y-20178702D01*
X26246133Y-20178691D01*
X26189157Y-19953699D01*
X26095924Y-19741151D01*
X25968983Y-19546852D01*
X25968980Y-19546849D01*
X25968979Y-19546847D01*
X25811784Y-19376087D01*
X25811779Y-19376083D01*
X25811777Y-19376081D01*
X25628634Y-19233535D01*
X25628628Y-19233531D01*
X25424504Y-19123064D01*
X25424495Y-19123061D01*
X25204984Y-19047702D01*
X25033282Y-19019050D01*
X24976049Y-19009500D01*
X24743951Y-19009500D01*
X24698164Y-19017140D01*
X24515015Y-19047702D01*
X24295504Y-19123061D01*
X24295495Y-19123064D01*
X24091371Y-19233531D01*
X24091365Y-19233535D01*
X23908222Y-19376081D01*
X23908219Y-19376084D01*
X23751016Y-19546852D01*
X23624075Y-19741151D01*
X23530842Y-19953699D01*
X23473866Y-20178691D01*
X23473864Y-20178702D01*
X23454700Y-20409993D01*
X23454700Y-20410006D01*
X22860500Y-20410006D01*
X22860500Y-19912212D01*
X22860658Y-19907787D01*
X22865483Y-19840337D01*
X22873288Y-19741151D01*
X22877049Y-19693360D01*
X22878276Y-19685045D01*
X22878277Y-19685044D01*
X22898902Y-19590231D01*
X22912040Y-19535506D01*
X22926860Y-19473774D01*
X22929051Y-19466598D01*
X22964989Y-19370246D01*
X23008943Y-19264133D01*
X23011797Y-19258167D01*
X23061563Y-19167027D01*
X23063053Y-19164453D01*
X23121500Y-19069075D01*
X23124690Y-19064375D01*
X23187458Y-18980527D01*
X23189873Y-18977508D01*
X23262020Y-18893036D01*
X23265278Y-18889511D01*
X23339511Y-18815278D01*
X23343036Y-18812020D01*
X23427508Y-18739873D01*
X23430527Y-18737458D01*
X23514375Y-18674690D01*
X23519075Y-18671500D01*
X23614453Y-18613053D01*
X23617027Y-18611563D01*
X23708167Y-18561797D01*
X23714133Y-18558943D01*
X23820246Y-18514989D01*
X23916611Y-18479046D01*
X23923764Y-18476863D01*
X24040191Y-18448910D01*
X24135058Y-18428273D01*
X24143351Y-18427050D01*
X24290203Y-18415492D01*
X24357792Y-18410657D01*
X24362213Y-18410500D01*
X81357787Y-18410500D01*
X81362207Y-18410657D01*
G37*
%TD.AperFunction*%
%TD*%
M02*
