%TF.GenerationSoftware,KiCad,Pcbnew,7.0.6*%
%TF.CreationDate,2024-01-24T15:29:16+09:00*%
%TF.ProjectId,EVO2_ICS_CARD,45564f32-5f49-4435-935f-434152442e6b,rev?*%
%TF.SameCoordinates,Original*%
%TF.FileFunction,Paste,Bot*%
%TF.FilePolarity,Positive*%
%FSLAX46Y46*%
G04 Gerber Fmt 4.6, Leading zero omitted, Abs format (unit mm)*
G04 Created by KiCad (PCBNEW 7.0.6) date 2024-01-24 15:29:16*
%MOMM*%
%LPD*%
G01*
G04 APERTURE LIST*
G04 Aperture macros list*
%AMRoundRect*
0 Rectangle with rounded corners*
0 $1 Rounding radius*
0 $2 $3 $4 $5 $6 $7 $8 $9 X,Y pos of 4 corners*
0 Add a 4 corners polygon primitive as box body*
4,1,4,$2,$3,$4,$5,$6,$7,$8,$9,$2,$3,0*
0 Add four circle primitives for the rounded corners*
1,1,$1+$1,$2,$3*
1,1,$1+$1,$4,$5*
1,1,$1+$1,$6,$7*
1,1,$1+$1,$8,$9*
0 Add four rect primitives between the rounded corners*
20,1,$1+$1,$2,$3,$4,$5,0*
20,1,$1+$1,$4,$5,$6,$7,0*
20,1,$1+$1,$6,$7,$8,$9,0*
20,1,$1+$1,$8,$9,$2,$3,0*%
G04 Aperture macros list end*
%ADD10RoundRect,0.250000X-0.337500X-0.475000X0.337500X-0.475000X0.337500X0.475000X-0.337500X0.475000X0*%
%ADD11RoundRect,0.250000X-0.450000X0.350000X-0.450000X-0.350000X0.450000X-0.350000X0.450000X0.350000X0*%
%ADD12RoundRect,0.250000X-0.350000X-0.450000X0.350000X-0.450000X0.350000X0.450000X-0.350000X0.450000X0*%
%ADD13R,0.900000X0.600000*%
%ADD14R,1.475000X0.450000*%
%ADD15RoundRect,0.250000X-0.475000X0.337500X-0.475000X-0.337500X0.475000X-0.337500X0.475000X0.337500X0*%
%ADD16R,2.000000X1.100000*%
%ADD17R,0.800000X1.100000*%
G04 APERTURE END LIST*
D10*
%TO.C,C4*%
X66438000Y-35885000D03*
X68513000Y-35885000D03*
%TD*%
D11*
%TO.C,R3*%
X58166000Y-23622000D03*
X58166000Y-25622000D03*
%TD*%
D12*
%TO.C,R4*%
X66675000Y-26670000D03*
X68675000Y-26670000D03*
%TD*%
D13*
%TO.C,IC3*%
X69238000Y-31445000D03*
X69238000Y-32395000D03*
X69238000Y-33345000D03*
X66438000Y-33345000D03*
X66438000Y-31445000D03*
%TD*%
D11*
%TO.C,R2*%
X50038000Y-23368000D03*
X50038000Y-25368000D03*
%TD*%
D14*
%TO.C,IC2*%
X61358000Y-28190000D03*
X61358000Y-28840000D03*
X61358000Y-29490000D03*
X61358000Y-30140000D03*
X61358000Y-30790000D03*
X61358000Y-31440000D03*
X61358000Y-32090000D03*
X61358000Y-32740000D03*
X61358000Y-33390000D03*
X61358000Y-34040000D03*
X55482000Y-34040000D03*
X55482000Y-33390000D03*
X55482000Y-32740000D03*
X55482000Y-32090000D03*
X55482000Y-31440000D03*
X55482000Y-30790000D03*
X55482000Y-30140000D03*
X55482000Y-29490000D03*
X55482000Y-28840000D03*
X55482000Y-28190000D03*
%TD*%
D10*
%TO.C,C3*%
X66675000Y-29210000D03*
X68750000Y-29210000D03*
%TD*%
D15*
%TO.C,C5*%
X51435000Y-30805000D03*
X51435000Y-32880000D03*
%TD*%
D12*
%TO.C,R6*%
X66438000Y-38425000D03*
X68438000Y-38425000D03*
%TD*%
D16*
%TO.C,D1*%
X57780000Y-44450000D03*
D17*
X55880000Y-44450000D03*
%TD*%
M02*
