M48
METRIC,TZ
T1C0.400
T2C1.000
T3C1.600
T4C2.500
%
G90
G05
T1
X19685Y-27305
X19685Y-38100
X22225Y-25400
X24130Y-43180
X24765Y-38735
X26035Y-24575
X26670Y-30480
X27305Y-46355
X28575Y-21590
X28575Y-26575
X28575Y-41275
X29845Y-30480
X29845Y-37465
X31115Y-43815
X31580Y-29210
X33655Y-39370
X33782Y-25654
X34544Y-21590
X35560Y-40640
X36195Y-36195
X37846Y-29972
X39370Y-44450
X40640Y-33782
X42418Y-26670
X42926Y-38608
X46228Y-33020
X46990Y-27305
X48260Y-29464
X49276Y-38354
X49530Y-44450
X51435Y-30805
X51435Y-32880
X53340Y-31530
X53522Y-33400
X53594Y-34536
X54102Y-44196
X56816Y-33109
X57150Y-38100
X57780Y-44450
X59690Y-28448
X59690Y-29845
X59739Y-27111
X60325Y-40640
X60960Y-24130
X60960Y-44450
X61595Y-27305
X61595Y-38100
X62709Y-28485
X62865Y-33361
X64770Y-38100
X66040Y-46355
X66438Y-38425
X66675Y-26670
X66675Y-29210
X67945Y-19685
X68513Y-35885
X68580Y-40005
X71120Y-37465
X72137Y-24095
X74422Y-32766
X75565Y-24130
X76200Y-40005
X76200Y-46355
X77470Y-19685
X78093Y-35943
X78740Y-26035
X82550Y-30480
X82550Y-36195
X86360Y-40640
T2
X22225Y-29830
X22225Y-32370
X22225Y-34910
X49444Y-20574
X51984Y-20574
X54524Y-20574
X57064Y-20574
X85090Y-25400
X85090Y-27940
X85090Y-30480
X85090Y-33020
X85090Y-35560
T3
X24860Y-20410
X24860Y-45310
X80860Y-20410
X80860Y-45310
T4
X42754Y-21244
X42754Y-43304
X63754Y-21244
X63754Y-43304
T0
M30
