%TF.GenerationSoftware,KiCad,Pcbnew,7.0.6*%
%TF.CreationDate,2024-01-24T15:29:16+09:00*%
%TF.ProjectId,EVO2_ICS_CARD,45564f32-5f49-4435-935f-434152442e6b,rev?*%
%TF.SameCoordinates,Original*%
%TF.FileFunction,Legend,Top*%
%TF.FilePolarity,Positive*%
%FSLAX46Y46*%
G04 Gerber Fmt 4.6, Leading zero omitted, Abs format (unit mm)*
G04 Created by KiCad (PCBNEW 7.0.6) date 2024-01-24 15:29:16*
%MOMM*%
%LPD*%
G01*
G04 APERTURE LIST*
%ADD10C,0.254000*%
%ADD11C,0.150000*%
%ADD12C,0.100000*%
%ADD13C,0.120000*%
%ADD14C,0.200000*%
G04 APERTURE END LIST*
D10*
X39690318Y-34211381D02*
X38420318Y-34211381D01*
X38420318Y-34211381D02*
X38420318Y-33909000D01*
X38420318Y-33909000D02*
X38480794Y-33727571D01*
X38480794Y-33727571D02*
X38601746Y-33606619D01*
X38601746Y-33606619D02*
X38722699Y-33546142D01*
X38722699Y-33546142D02*
X38964603Y-33485666D01*
X38964603Y-33485666D02*
X39146032Y-33485666D01*
X39146032Y-33485666D02*
X39387937Y-33546142D01*
X39387937Y-33546142D02*
X39508889Y-33606619D01*
X39508889Y-33606619D02*
X39629842Y-33727571D01*
X39629842Y-33727571D02*
X39690318Y-33909000D01*
X39690318Y-33909000D02*
X39690318Y-34211381D01*
X38541270Y-33001857D02*
X38480794Y-32941381D01*
X38480794Y-32941381D02*
X38420318Y-32820428D01*
X38420318Y-32820428D02*
X38420318Y-32518047D01*
X38420318Y-32518047D02*
X38480794Y-32397095D01*
X38480794Y-32397095D02*
X38541270Y-32336619D01*
X38541270Y-32336619D02*
X38662222Y-32276142D01*
X38662222Y-32276142D02*
X38783175Y-32276142D01*
X38783175Y-32276142D02*
X38964603Y-32336619D01*
X38964603Y-32336619D02*
X39690318Y-33062333D01*
X39690318Y-33062333D02*
X39690318Y-32276142D01*
D11*
X36306286Y-39332819D02*
X36639619Y-40332819D01*
X36639619Y-40332819D02*
X36972952Y-39332819D01*
X37211048Y-39332819D02*
X37830095Y-39332819D01*
X37830095Y-39332819D02*
X37496762Y-39713771D01*
X37496762Y-39713771D02*
X37639619Y-39713771D01*
X37639619Y-39713771D02*
X37734857Y-39761390D01*
X37734857Y-39761390D02*
X37782476Y-39809009D01*
X37782476Y-39809009D02*
X37830095Y-39904247D01*
X37830095Y-39904247D02*
X37830095Y-40142342D01*
X37830095Y-40142342D02*
X37782476Y-40237580D01*
X37782476Y-40237580D02*
X37734857Y-40285200D01*
X37734857Y-40285200D02*
X37639619Y-40332819D01*
X37639619Y-40332819D02*
X37353905Y-40332819D01*
X37353905Y-40332819D02*
X37258667Y-40285200D01*
X37258667Y-40285200D02*
X37211048Y-40237580D01*
X38163429Y-39332819D02*
X38782476Y-39332819D01*
X38782476Y-39332819D02*
X38449143Y-39713771D01*
X38449143Y-39713771D02*
X38592000Y-39713771D01*
X38592000Y-39713771D02*
X38687238Y-39761390D01*
X38687238Y-39761390D02*
X38734857Y-39809009D01*
X38734857Y-39809009D02*
X38782476Y-39904247D01*
X38782476Y-39904247D02*
X38782476Y-40142342D01*
X38782476Y-40142342D02*
X38734857Y-40237580D01*
X38734857Y-40237580D02*
X38687238Y-40285200D01*
X38687238Y-40285200D02*
X38592000Y-40332819D01*
X38592000Y-40332819D02*
X38306286Y-40332819D01*
X38306286Y-40332819D02*
X38211048Y-40285200D01*
X38211048Y-40285200D02*
X38163429Y-40237580D01*
X32450833Y-41761580D02*
X32403214Y-41809200D01*
X32403214Y-41809200D02*
X32260357Y-41856819D01*
X32260357Y-41856819D02*
X32165119Y-41856819D01*
X32165119Y-41856819D02*
X32022262Y-41809200D01*
X32022262Y-41809200D02*
X31927024Y-41713961D01*
X31927024Y-41713961D02*
X31879405Y-41618723D01*
X31879405Y-41618723D02*
X31831786Y-41428247D01*
X31831786Y-41428247D02*
X31831786Y-41285390D01*
X31831786Y-41285390D02*
X31879405Y-41094914D01*
X31879405Y-41094914D02*
X31927024Y-40999676D01*
X31927024Y-40999676D02*
X32022262Y-40904438D01*
X32022262Y-40904438D02*
X32165119Y-40856819D01*
X32165119Y-40856819D02*
X32260357Y-40856819D01*
X32260357Y-40856819D02*
X32403214Y-40904438D01*
X32403214Y-40904438D02*
X32450833Y-40952057D01*
X32831786Y-40952057D02*
X32879405Y-40904438D01*
X32879405Y-40904438D02*
X32974643Y-40856819D01*
X32974643Y-40856819D02*
X33212738Y-40856819D01*
X33212738Y-40856819D02*
X33307976Y-40904438D01*
X33307976Y-40904438D02*
X33355595Y-40952057D01*
X33355595Y-40952057D02*
X33403214Y-41047295D01*
X33403214Y-41047295D02*
X33403214Y-41142533D01*
X33403214Y-41142533D02*
X33355595Y-41285390D01*
X33355595Y-41285390D02*
X32784167Y-41856819D01*
X32784167Y-41856819D02*
X33403214Y-41856819D01*
D10*
X29851047Y-23301270D02*
X29730095Y-23240794D01*
X29730095Y-23240794D02*
X29609142Y-23119842D01*
X29609142Y-23119842D02*
X29427714Y-22938413D01*
X29427714Y-22938413D02*
X29306761Y-22877937D01*
X29306761Y-22877937D02*
X29185809Y-22877937D01*
X29246285Y-23180318D02*
X29125333Y-23119842D01*
X29125333Y-23119842D02*
X29004380Y-22998889D01*
X29004380Y-22998889D02*
X28943904Y-22756984D01*
X28943904Y-22756984D02*
X28943904Y-22333651D01*
X28943904Y-22333651D02*
X29004380Y-22091746D01*
X29004380Y-22091746D02*
X29125333Y-21970794D01*
X29125333Y-21970794D02*
X29246285Y-21910318D01*
X29246285Y-21910318D02*
X29488190Y-21910318D01*
X29488190Y-21910318D02*
X29609142Y-21970794D01*
X29609142Y-21970794D02*
X29730095Y-22091746D01*
X29730095Y-22091746D02*
X29790571Y-22333651D01*
X29790571Y-22333651D02*
X29790571Y-22756984D01*
X29790571Y-22756984D02*
X29730095Y-22998889D01*
X29730095Y-22998889D02*
X29609142Y-23119842D01*
X29609142Y-23119842D02*
X29488190Y-23180318D01*
X29488190Y-23180318D02*
X29246285Y-23180318D01*
X31000095Y-23180318D02*
X30274380Y-23180318D01*
X30637237Y-23180318D02*
X30637237Y-21910318D01*
X30637237Y-21910318D02*
X30516285Y-22091746D01*
X30516285Y-22091746D02*
X30395333Y-22212699D01*
X30395333Y-22212699D02*
X30274380Y-22273175D01*
D11*
X21248810Y-37694819D02*
X21248810Y-36694819D01*
X22296428Y-37599580D02*
X22248809Y-37647200D01*
X22248809Y-37647200D02*
X22105952Y-37694819D01*
X22105952Y-37694819D02*
X22010714Y-37694819D01*
X22010714Y-37694819D02*
X21867857Y-37647200D01*
X21867857Y-37647200D02*
X21772619Y-37551961D01*
X21772619Y-37551961D02*
X21725000Y-37456723D01*
X21725000Y-37456723D02*
X21677381Y-37266247D01*
X21677381Y-37266247D02*
X21677381Y-37123390D01*
X21677381Y-37123390D02*
X21725000Y-36932914D01*
X21725000Y-36932914D02*
X21772619Y-36837676D01*
X21772619Y-36837676D02*
X21867857Y-36742438D01*
X21867857Y-36742438D02*
X22010714Y-36694819D01*
X22010714Y-36694819D02*
X22105952Y-36694819D01*
X22105952Y-36694819D02*
X22248809Y-36742438D01*
X22248809Y-36742438D02*
X22296428Y-36790057D01*
X22677381Y-37647200D02*
X22820238Y-37694819D01*
X22820238Y-37694819D02*
X23058333Y-37694819D01*
X23058333Y-37694819D02*
X23153571Y-37647200D01*
X23153571Y-37647200D02*
X23201190Y-37599580D01*
X23201190Y-37599580D02*
X23248809Y-37504342D01*
X23248809Y-37504342D02*
X23248809Y-37409104D01*
X23248809Y-37409104D02*
X23201190Y-37313866D01*
X23201190Y-37313866D02*
X23153571Y-37266247D01*
X23153571Y-37266247D02*
X23058333Y-37218628D01*
X23058333Y-37218628D02*
X22867857Y-37171009D01*
X22867857Y-37171009D02*
X22772619Y-37123390D01*
X22772619Y-37123390D02*
X22725000Y-37075771D01*
X22725000Y-37075771D02*
X22677381Y-36980533D01*
X22677381Y-36980533D02*
X22677381Y-36885295D01*
X22677381Y-36885295D02*
X22725000Y-36790057D01*
X22725000Y-36790057D02*
X22772619Y-36742438D01*
X22772619Y-36742438D02*
X22867857Y-36694819D01*
X22867857Y-36694819D02*
X23105952Y-36694819D01*
X23105952Y-36694819D02*
X23248809Y-36742438D01*
X21439285Y-39351580D02*
X21391666Y-39399200D01*
X21391666Y-39399200D02*
X21248809Y-39446819D01*
X21248809Y-39446819D02*
X21153571Y-39446819D01*
X21153571Y-39446819D02*
X21010714Y-39399200D01*
X21010714Y-39399200D02*
X20915476Y-39303961D01*
X20915476Y-39303961D02*
X20867857Y-39208723D01*
X20867857Y-39208723D02*
X20820238Y-39018247D01*
X20820238Y-39018247D02*
X20820238Y-38875390D01*
X20820238Y-38875390D02*
X20867857Y-38684914D01*
X20867857Y-38684914D02*
X20915476Y-38589676D01*
X20915476Y-38589676D02*
X21010714Y-38494438D01*
X21010714Y-38494438D02*
X21153571Y-38446819D01*
X21153571Y-38446819D02*
X21248809Y-38446819D01*
X21248809Y-38446819D02*
X21391666Y-38494438D01*
X21391666Y-38494438D02*
X21439285Y-38542057D01*
X22058333Y-38446819D02*
X22248809Y-38446819D01*
X22248809Y-38446819D02*
X22344047Y-38494438D01*
X22344047Y-38494438D02*
X22439285Y-38589676D01*
X22439285Y-38589676D02*
X22486904Y-38780152D01*
X22486904Y-38780152D02*
X22486904Y-39113485D01*
X22486904Y-39113485D02*
X22439285Y-39303961D01*
X22439285Y-39303961D02*
X22344047Y-39399200D01*
X22344047Y-39399200D02*
X22248809Y-39446819D01*
X22248809Y-39446819D02*
X22058333Y-39446819D01*
X22058333Y-39446819D02*
X21963095Y-39399200D01*
X21963095Y-39399200D02*
X21867857Y-39303961D01*
X21867857Y-39303961D02*
X21820238Y-39113485D01*
X21820238Y-39113485D02*
X21820238Y-38780152D01*
X21820238Y-38780152D02*
X21867857Y-38589676D01*
X21867857Y-38589676D02*
X21963095Y-38494438D01*
X21963095Y-38494438D02*
X22058333Y-38446819D01*
X22915476Y-39446819D02*
X22915476Y-38446819D01*
X22915476Y-38446819D02*
X23248809Y-39161104D01*
X23248809Y-39161104D02*
X23582142Y-38446819D01*
X23582142Y-38446819D02*
X23582142Y-39446819D01*
X36131667Y-25111819D02*
X36465000Y-26111819D01*
X36465000Y-26111819D02*
X36798333Y-25111819D01*
X37131667Y-26111819D02*
X37131667Y-25111819D01*
X37131667Y-25111819D02*
X37369762Y-25111819D01*
X37369762Y-25111819D02*
X37512619Y-25159438D01*
X37512619Y-25159438D02*
X37607857Y-25254676D01*
X37607857Y-25254676D02*
X37655476Y-25349914D01*
X37655476Y-25349914D02*
X37703095Y-25540390D01*
X37703095Y-25540390D02*
X37703095Y-25683247D01*
X37703095Y-25683247D02*
X37655476Y-25873723D01*
X37655476Y-25873723D02*
X37607857Y-25968961D01*
X37607857Y-25968961D02*
X37512619Y-26064200D01*
X37512619Y-26064200D02*
X37369762Y-26111819D01*
X37369762Y-26111819D02*
X37131667Y-26111819D01*
X38131667Y-26111819D02*
X38131667Y-25111819D01*
X38131667Y-25111819D02*
X38369762Y-25111819D01*
X38369762Y-25111819D02*
X38512619Y-25159438D01*
X38512619Y-25159438D02*
X38607857Y-25254676D01*
X38607857Y-25254676D02*
X38655476Y-25349914D01*
X38655476Y-25349914D02*
X38703095Y-25540390D01*
X38703095Y-25540390D02*
X38703095Y-25683247D01*
X38703095Y-25683247D02*
X38655476Y-25873723D01*
X38655476Y-25873723D02*
X38607857Y-25968961D01*
X38607857Y-25968961D02*
X38512619Y-26064200D01*
X38512619Y-26064200D02*
X38369762Y-26111819D01*
X38369762Y-26111819D02*
X38131667Y-26111819D01*
D10*
X29165237Y-34864318D02*
X29165237Y-33594318D01*
X30495714Y-34743365D02*
X30435238Y-34803842D01*
X30435238Y-34803842D02*
X30253809Y-34864318D01*
X30253809Y-34864318D02*
X30132857Y-34864318D01*
X30132857Y-34864318D02*
X29951428Y-34803842D01*
X29951428Y-34803842D02*
X29830476Y-34682889D01*
X29830476Y-34682889D02*
X29769999Y-34561937D01*
X29769999Y-34561937D02*
X29709523Y-34320032D01*
X29709523Y-34320032D02*
X29709523Y-34138603D01*
X29709523Y-34138603D02*
X29769999Y-33896699D01*
X29769999Y-33896699D02*
X29830476Y-33775746D01*
X29830476Y-33775746D02*
X29951428Y-33654794D01*
X29951428Y-33654794D02*
X30132857Y-33594318D01*
X30132857Y-33594318D02*
X30253809Y-33594318D01*
X30253809Y-33594318D02*
X30435238Y-33654794D01*
X30435238Y-33654794D02*
X30495714Y-33715270D01*
X31705238Y-34864318D02*
X30979523Y-34864318D01*
X31342380Y-34864318D02*
X31342380Y-33594318D01*
X31342380Y-33594318D02*
X31221428Y-33775746D01*
X31221428Y-33775746D02*
X31100476Y-33896699D01*
X31100476Y-33896699D02*
X30979523Y-33957175D01*
D11*
X79147765Y-41901532D02*
X79248780Y-41329113D01*
X78743704Y-41497471D02*
X79450811Y-40790365D01*
X79450811Y-40790365D02*
X79720185Y-41059739D01*
X79720185Y-41059739D02*
X79753857Y-41160754D01*
X79753857Y-41160754D02*
X79753857Y-41228097D01*
X79753857Y-41228097D02*
X79720185Y-41329113D01*
X79720185Y-41329113D02*
X79619170Y-41430128D01*
X79619170Y-41430128D02*
X79518154Y-41463800D01*
X79518154Y-41463800D02*
X79450811Y-41463800D01*
X79450811Y-41463800D02*
X79349796Y-41430128D01*
X79349796Y-41430128D02*
X79080422Y-41160754D01*
X79484483Y-42238250D02*
X79619170Y-42372937D01*
X79619170Y-42372937D02*
X79720185Y-42406609D01*
X79720185Y-42406609D02*
X79787528Y-42406609D01*
X79787528Y-42406609D02*
X79955887Y-42372937D01*
X79955887Y-42372937D02*
X80124246Y-42271922D01*
X80124246Y-42271922D02*
X80393620Y-42002548D01*
X80393620Y-42002548D02*
X80427292Y-41901532D01*
X80427292Y-41901532D02*
X80427292Y-41834189D01*
X80427292Y-41834189D02*
X80393620Y-41733174D01*
X80393620Y-41733174D02*
X80258933Y-41598487D01*
X80258933Y-41598487D02*
X80157918Y-41564815D01*
X80157918Y-41564815D02*
X80090574Y-41564815D01*
X80090574Y-41564815D02*
X79989559Y-41598487D01*
X79989559Y-41598487D02*
X79821200Y-41766845D01*
X79821200Y-41766845D02*
X79787528Y-41867861D01*
X79787528Y-41867861D02*
X79787528Y-41935204D01*
X79787528Y-41935204D02*
X79821200Y-42036219D01*
X79821200Y-42036219D02*
X79955887Y-42170906D01*
X79955887Y-42170906D02*
X80056902Y-42204578D01*
X80056902Y-42204578D02*
X80124246Y-42204578D01*
X80124246Y-42204578D02*
X80225261Y-42170906D01*
X66870542Y-25603754D02*
X66971557Y-25031335D01*
X66466481Y-25199693D02*
X67173588Y-24492587D01*
X67173588Y-24492587D02*
X67442962Y-24761961D01*
X67442962Y-24761961D02*
X67476634Y-24862976D01*
X67476634Y-24862976D02*
X67476634Y-24930319D01*
X67476634Y-24930319D02*
X67442962Y-25031335D01*
X67442962Y-25031335D02*
X67341947Y-25132350D01*
X67341947Y-25132350D02*
X67240931Y-25166022D01*
X67240931Y-25166022D02*
X67173588Y-25166022D01*
X67173588Y-25166022D02*
X67072573Y-25132350D01*
X67072573Y-25132350D02*
X66803199Y-24862976D01*
X68217412Y-25536411D02*
X67880695Y-25199693D01*
X67880695Y-25199693D02*
X67510305Y-25502739D01*
X67510305Y-25502739D02*
X67577649Y-25502739D01*
X67577649Y-25502739D02*
X67678664Y-25536411D01*
X67678664Y-25536411D02*
X67847023Y-25704770D01*
X67847023Y-25704770D02*
X67880695Y-25805785D01*
X67880695Y-25805785D02*
X67880695Y-25873128D01*
X67880695Y-25873128D02*
X67847023Y-25974144D01*
X67847023Y-25974144D02*
X67678664Y-26142502D01*
X67678664Y-26142502D02*
X67577649Y-26176174D01*
X67577649Y-26176174D02*
X67510305Y-26176174D01*
X67510305Y-26176174D02*
X67409290Y-26142502D01*
X67409290Y-26142502D02*
X67240931Y-25974144D01*
X67240931Y-25974144D02*
X67207260Y-25873128D01*
X67207260Y-25873128D02*
X67207260Y-25805785D01*
X79922857Y-23267200D02*
X80065714Y-23314819D01*
X80065714Y-23314819D02*
X80303809Y-23314819D01*
X80303809Y-23314819D02*
X80399047Y-23267200D01*
X80399047Y-23267200D02*
X80446666Y-23219580D01*
X80446666Y-23219580D02*
X80494285Y-23124342D01*
X80494285Y-23124342D02*
X80494285Y-23029104D01*
X80494285Y-23029104D02*
X80446666Y-22933866D01*
X80446666Y-22933866D02*
X80399047Y-22886247D01*
X80399047Y-22886247D02*
X80303809Y-22838628D01*
X80303809Y-22838628D02*
X80113333Y-22791009D01*
X80113333Y-22791009D02*
X80018095Y-22743390D01*
X80018095Y-22743390D02*
X79970476Y-22695771D01*
X79970476Y-22695771D02*
X79922857Y-22600533D01*
X79922857Y-22600533D02*
X79922857Y-22505295D01*
X79922857Y-22505295D02*
X79970476Y-22410057D01*
X79970476Y-22410057D02*
X80018095Y-22362438D01*
X80018095Y-22362438D02*
X80113333Y-22314819D01*
X80113333Y-22314819D02*
X80351428Y-22314819D01*
X80351428Y-22314819D02*
X80494285Y-22362438D01*
X80827619Y-22314819D02*
X81065714Y-23314819D01*
X81065714Y-23314819D02*
X81256190Y-22600533D01*
X81256190Y-22600533D02*
X81446666Y-23314819D01*
X81446666Y-23314819D02*
X81684762Y-22314819D01*
X82065714Y-23314819D02*
X82065714Y-22314819D01*
X82065714Y-22314819D02*
X82303809Y-22314819D01*
X82303809Y-22314819D02*
X82446666Y-22362438D01*
X82446666Y-22362438D02*
X82541904Y-22457676D01*
X82541904Y-22457676D02*
X82589523Y-22552914D01*
X82589523Y-22552914D02*
X82637142Y-22743390D01*
X82637142Y-22743390D02*
X82637142Y-22886247D01*
X82637142Y-22886247D02*
X82589523Y-23076723D01*
X82589523Y-23076723D02*
X82541904Y-23171961D01*
X82541904Y-23171961D02*
X82446666Y-23267200D01*
X82446666Y-23267200D02*
X82303809Y-23314819D01*
X82303809Y-23314819D02*
X82065714Y-23314819D01*
D10*
X32850667Y-22007080D02*
X32427333Y-22007080D01*
X32427333Y-22672318D02*
X32427333Y-21402318D01*
X32427333Y-21402318D02*
X33032095Y-21402318D01*
X34181143Y-22672318D02*
X33455428Y-22672318D01*
X33818285Y-22672318D02*
X33818285Y-21402318D01*
X33818285Y-21402318D02*
X33697333Y-21583746D01*
X33697333Y-21583746D02*
X33576381Y-21704699D01*
X33576381Y-21704699D02*
X33455428Y-21765175D01*
D11*
X70045543Y-22428754D02*
X70146558Y-21856335D01*
X69641482Y-22024693D02*
X70348589Y-21317587D01*
X70348589Y-21317587D02*
X70617963Y-21586961D01*
X70617963Y-21586961D02*
X70651635Y-21687976D01*
X70651635Y-21687976D02*
X70651635Y-21755319D01*
X70651635Y-21755319D02*
X70617963Y-21856335D01*
X70617963Y-21856335D02*
X70516948Y-21957350D01*
X70516948Y-21957350D02*
X70415932Y-21991022D01*
X70415932Y-21991022D02*
X70348589Y-21991022D01*
X70348589Y-21991022D02*
X70247574Y-21957350D01*
X70247574Y-21957350D02*
X69978200Y-21687976D01*
X70853665Y-22428754D02*
X70819993Y-22327739D01*
X70819993Y-22327739D02*
X70819993Y-22260396D01*
X70819993Y-22260396D02*
X70853665Y-22159380D01*
X70853665Y-22159380D02*
X70887337Y-22125709D01*
X70887337Y-22125709D02*
X70988352Y-22092037D01*
X70988352Y-22092037D02*
X71055696Y-22092037D01*
X71055696Y-22092037D02*
X71156711Y-22125709D01*
X71156711Y-22125709D02*
X71291398Y-22260396D01*
X71291398Y-22260396D02*
X71325070Y-22361411D01*
X71325070Y-22361411D02*
X71325070Y-22428754D01*
X71325070Y-22428754D02*
X71291398Y-22529770D01*
X71291398Y-22529770D02*
X71257726Y-22563441D01*
X71257726Y-22563441D02*
X71156711Y-22597113D01*
X71156711Y-22597113D02*
X71089367Y-22597113D01*
X71089367Y-22597113D02*
X70988352Y-22563441D01*
X70988352Y-22563441D02*
X70853665Y-22428754D01*
X70853665Y-22428754D02*
X70752650Y-22395083D01*
X70752650Y-22395083D02*
X70685306Y-22395083D01*
X70685306Y-22395083D02*
X70584291Y-22428754D01*
X70584291Y-22428754D02*
X70449604Y-22563441D01*
X70449604Y-22563441D02*
X70415932Y-22664457D01*
X70415932Y-22664457D02*
X70415932Y-22731800D01*
X70415932Y-22731800D02*
X70449604Y-22832815D01*
X70449604Y-22832815D02*
X70584291Y-22967502D01*
X70584291Y-22967502D02*
X70685306Y-23001174D01*
X70685306Y-23001174D02*
X70752650Y-23001174D01*
X70752650Y-23001174D02*
X70853665Y-22967502D01*
X70853665Y-22967502D02*
X70988352Y-22832815D01*
X70988352Y-22832815D02*
X71022024Y-22731800D01*
X71022024Y-22731800D02*
X71022024Y-22664457D01*
X71022024Y-22664457D02*
X70988352Y-22563441D01*
X68140543Y-24333754D02*
X68241558Y-23761335D01*
X67736482Y-23929693D02*
X68443589Y-23222587D01*
X68443589Y-23222587D02*
X68712963Y-23491961D01*
X68712963Y-23491961D02*
X68746635Y-23592976D01*
X68746635Y-23592976D02*
X68746635Y-23660319D01*
X68746635Y-23660319D02*
X68712963Y-23761335D01*
X68712963Y-23761335D02*
X68611948Y-23862350D01*
X68611948Y-23862350D02*
X68510932Y-23896022D01*
X68510932Y-23896022D02*
X68443589Y-23896022D01*
X68443589Y-23896022D02*
X68342574Y-23862350D01*
X68342574Y-23862350D02*
X68073200Y-23592976D01*
X69083352Y-23862350D02*
X69554757Y-24333754D01*
X69554757Y-24333754D02*
X68544604Y-24737815D01*
X59972819Y-22809189D02*
X58972819Y-22809189D01*
X58972819Y-22809189D02*
X58972819Y-22571094D01*
X58972819Y-22571094D02*
X59020438Y-22428237D01*
X59020438Y-22428237D02*
X59115676Y-22332999D01*
X59115676Y-22332999D02*
X59210914Y-22285380D01*
X59210914Y-22285380D02*
X59401390Y-22237761D01*
X59401390Y-22237761D02*
X59544247Y-22237761D01*
X59544247Y-22237761D02*
X59734723Y-22285380D01*
X59734723Y-22285380D02*
X59829961Y-22332999D01*
X59829961Y-22332999D02*
X59925200Y-22428237D01*
X59925200Y-22428237D02*
X59972819Y-22571094D01*
X59972819Y-22571094D02*
X59972819Y-22809189D01*
X59972819Y-21809189D02*
X58972819Y-21809189D01*
X59925200Y-21380618D02*
X59972819Y-21237761D01*
X59972819Y-21237761D02*
X59972819Y-20999666D01*
X59972819Y-20999666D02*
X59925200Y-20904428D01*
X59925200Y-20904428D02*
X59877580Y-20856809D01*
X59877580Y-20856809D02*
X59782342Y-20809190D01*
X59782342Y-20809190D02*
X59687104Y-20809190D01*
X59687104Y-20809190D02*
X59591866Y-20856809D01*
X59591866Y-20856809D02*
X59544247Y-20904428D01*
X59544247Y-20904428D02*
X59496628Y-20999666D01*
X59496628Y-20999666D02*
X59449009Y-21190142D01*
X59449009Y-21190142D02*
X59401390Y-21285380D01*
X59401390Y-21285380D02*
X59353771Y-21332999D01*
X59353771Y-21332999D02*
X59258533Y-21380618D01*
X59258533Y-21380618D02*
X59163295Y-21380618D01*
X59163295Y-21380618D02*
X59068057Y-21332999D01*
X59068057Y-21332999D02*
X59020438Y-21285380D01*
X59020438Y-21285380D02*
X58972819Y-21190142D01*
X58972819Y-21190142D02*
X58972819Y-20952047D01*
X58972819Y-20952047D02*
X59020438Y-20809190D01*
X59972819Y-20380618D02*
X58972819Y-20380618D01*
X58972819Y-20380618D02*
X58972819Y-19999666D01*
X58972819Y-19999666D02*
X59020438Y-19904428D01*
X59020438Y-19904428D02*
X59068057Y-19856809D01*
X59068057Y-19856809D02*
X59163295Y-19809190D01*
X59163295Y-19809190D02*
X59306152Y-19809190D01*
X59306152Y-19809190D02*
X59401390Y-19856809D01*
X59401390Y-19856809D02*
X59449009Y-19904428D01*
X59449009Y-19904428D02*
X59496628Y-19999666D01*
X59496628Y-19999666D02*
X59496628Y-20380618D01*
D10*
X74269961Y-32832501D02*
X74355487Y-33003553D01*
X74355487Y-33003553D02*
X74569303Y-33217369D01*
X74569303Y-33217369D02*
X74697592Y-33260132D01*
X74697592Y-33260132D02*
X74783119Y-33260132D01*
X74783119Y-33260132D02*
X74911408Y-33217369D01*
X74911408Y-33217369D02*
X74996934Y-33131842D01*
X74996934Y-33131842D02*
X75039697Y-33003553D01*
X75039697Y-33003553D02*
X75039697Y-32918027D01*
X75039697Y-32918027D02*
X74996934Y-32789737D01*
X74996934Y-32789737D02*
X74868645Y-32575922D01*
X74868645Y-32575922D02*
X74825882Y-32447632D01*
X74825882Y-32447632D02*
X74825882Y-32362106D01*
X74825882Y-32362106D02*
X74868645Y-32233817D01*
X74868645Y-32233817D02*
X74954171Y-32148291D01*
X74954171Y-32148291D02*
X75082461Y-32105527D01*
X75082461Y-32105527D02*
X75167987Y-32105527D01*
X75167987Y-32105527D02*
X75296276Y-32148291D01*
X75296276Y-32148291D02*
X75510092Y-32362106D01*
X75510092Y-32362106D02*
X75595618Y-32533159D01*
X75595618Y-34243684D02*
X75082461Y-33730526D01*
X75339039Y-33987105D02*
X76237065Y-33089079D01*
X76237065Y-33089079D02*
X76023249Y-33131843D01*
X76023249Y-33131843D02*
X75852197Y-33131843D01*
X75852197Y-33131843D02*
X75723908Y-33089079D01*
D11*
X84313825Y-41142036D02*
X84414840Y-40569617D01*
X83909764Y-40737975D02*
X84616871Y-40030869D01*
X84616871Y-40030869D02*
X84886245Y-40300243D01*
X84886245Y-40300243D02*
X84919917Y-40401258D01*
X84919917Y-40401258D02*
X84919917Y-40468601D01*
X84919917Y-40468601D02*
X84886245Y-40569617D01*
X84886245Y-40569617D02*
X84785230Y-40670632D01*
X84785230Y-40670632D02*
X84684214Y-40704304D01*
X84684214Y-40704304D02*
X84616871Y-40704304D01*
X84616871Y-40704304D02*
X84515856Y-40670632D01*
X84515856Y-40670632D02*
X84246482Y-40401258D01*
X84987260Y-41815471D02*
X84583199Y-41411410D01*
X84785230Y-41613441D02*
X85492336Y-40906334D01*
X85492336Y-40906334D02*
X85323978Y-40940006D01*
X85323978Y-40940006D02*
X85189291Y-40940006D01*
X85189291Y-40940006D02*
X85088275Y-40906334D01*
X86132100Y-41546098D02*
X86199443Y-41613441D01*
X86199443Y-41613441D02*
X86233115Y-41714456D01*
X86233115Y-41714456D02*
X86233115Y-41781800D01*
X86233115Y-41781800D02*
X86199443Y-41882815D01*
X86199443Y-41882815D02*
X86098428Y-42051174D01*
X86098428Y-42051174D02*
X85930069Y-42219533D01*
X85930069Y-42219533D02*
X85761711Y-42320548D01*
X85761711Y-42320548D02*
X85660695Y-42354220D01*
X85660695Y-42354220D02*
X85593352Y-42354220D01*
X85593352Y-42354220D02*
X85492337Y-42320548D01*
X85492337Y-42320548D02*
X85424993Y-42253204D01*
X85424993Y-42253204D02*
X85391321Y-42152189D01*
X85391321Y-42152189D02*
X85391321Y-42084846D01*
X85391321Y-42084846D02*
X85424993Y-41983830D01*
X85424993Y-41983830D02*
X85526008Y-41815472D01*
X85526008Y-41815472D02*
X85694367Y-41647113D01*
X85694367Y-41647113D02*
X85862726Y-41546098D01*
X85862726Y-41546098D02*
X85963741Y-41512426D01*
X85963741Y-41512426D02*
X86031085Y-41512426D01*
X86031085Y-41512426D02*
X86132100Y-41546098D01*
X26489819Y-22772666D02*
X26013628Y-23105999D01*
X26489819Y-23344094D02*
X25489819Y-23344094D01*
X25489819Y-23344094D02*
X25489819Y-22963142D01*
X25489819Y-22963142D02*
X25537438Y-22867904D01*
X25537438Y-22867904D02*
X25585057Y-22820285D01*
X25585057Y-22820285D02*
X25680295Y-22772666D01*
X25680295Y-22772666D02*
X25823152Y-22772666D01*
X25823152Y-22772666D02*
X25918390Y-22820285D01*
X25918390Y-22820285D02*
X25966009Y-22867904D01*
X25966009Y-22867904D02*
X26013628Y-22963142D01*
X26013628Y-22963142D02*
X26013628Y-23344094D01*
X26489819Y-21820285D02*
X26489819Y-22391713D01*
X26489819Y-22105999D02*
X25489819Y-22105999D01*
X25489819Y-22105999D02*
X25632676Y-22201237D01*
X25632676Y-22201237D02*
X25727914Y-22296475D01*
X25727914Y-22296475D02*
X25775533Y-22391713D01*
X35647333Y-29569580D02*
X35599714Y-29617200D01*
X35599714Y-29617200D02*
X35456857Y-29664819D01*
X35456857Y-29664819D02*
X35361619Y-29664819D01*
X35361619Y-29664819D02*
X35218762Y-29617200D01*
X35218762Y-29617200D02*
X35123524Y-29521961D01*
X35123524Y-29521961D02*
X35075905Y-29426723D01*
X35075905Y-29426723D02*
X35028286Y-29236247D01*
X35028286Y-29236247D02*
X35028286Y-29093390D01*
X35028286Y-29093390D02*
X35075905Y-28902914D01*
X35075905Y-28902914D02*
X35123524Y-28807676D01*
X35123524Y-28807676D02*
X35218762Y-28712438D01*
X35218762Y-28712438D02*
X35361619Y-28664819D01*
X35361619Y-28664819D02*
X35456857Y-28664819D01*
X35456857Y-28664819D02*
X35599714Y-28712438D01*
X35599714Y-28712438D02*
X35647333Y-28760057D01*
X36599714Y-29664819D02*
X36028286Y-29664819D01*
X36314000Y-29664819D02*
X36314000Y-28664819D01*
X36314000Y-28664819D02*
X36218762Y-28807676D01*
X36218762Y-28807676D02*
X36123524Y-28902914D01*
X36123524Y-28902914D02*
X36028286Y-28950533D01*
X21463095Y-23254438D02*
X21367857Y-23206819D01*
X21367857Y-23206819D02*
X21225000Y-23206819D01*
X21225000Y-23206819D02*
X21082143Y-23254438D01*
X21082143Y-23254438D02*
X20986905Y-23349676D01*
X20986905Y-23349676D02*
X20939286Y-23444914D01*
X20939286Y-23444914D02*
X20891667Y-23635390D01*
X20891667Y-23635390D02*
X20891667Y-23778247D01*
X20891667Y-23778247D02*
X20939286Y-23968723D01*
X20939286Y-23968723D02*
X20986905Y-24063961D01*
X20986905Y-24063961D02*
X21082143Y-24159200D01*
X21082143Y-24159200D02*
X21225000Y-24206819D01*
X21225000Y-24206819D02*
X21320238Y-24206819D01*
X21320238Y-24206819D02*
X21463095Y-24159200D01*
X21463095Y-24159200D02*
X21510714Y-24111580D01*
X21510714Y-24111580D02*
X21510714Y-23778247D01*
X21510714Y-23778247D02*
X21320238Y-23778247D01*
X21939286Y-24206819D02*
X21939286Y-23206819D01*
X21939286Y-23206819D02*
X22510714Y-24206819D01*
X22510714Y-24206819D02*
X22510714Y-23206819D01*
X22986905Y-24206819D02*
X22986905Y-23206819D01*
X22986905Y-23206819D02*
X23225000Y-23206819D01*
X23225000Y-23206819D02*
X23367857Y-23254438D01*
X23367857Y-23254438D02*
X23463095Y-23349676D01*
X23463095Y-23349676D02*
X23510714Y-23444914D01*
X23510714Y-23444914D02*
X23558333Y-23635390D01*
X23558333Y-23635390D02*
X23558333Y-23778247D01*
X23558333Y-23778247D02*
X23510714Y-23968723D01*
X23510714Y-23968723D02*
X23463095Y-24063961D01*
X23463095Y-24063961D02*
X23367857Y-24159200D01*
X23367857Y-24159200D02*
X23225000Y-24206819D01*
X23225000Y-24206819D02*
X22986905Y-24206819D01*
D12*
%TO.C,D2*%
X37465000Y-30720000D02*
X37465000Y-30720000D01*
X37465000Y-30820000D02*
X37465000Y-30820000D01*
X37465000Y-30820000D02*
G75*
G03*
X37465000Y-30720000I0J50000D01*
G01*
X37465000Y-30720000D02*
G75*
G03*
X37465000Y-30820000I0J-50000D01*
G01*
D13*
%TO.C,V33*%
X38415000Y-37846000D02*
G75*
G03*
X38415000Y-37846000I-950000J0D01*
G01*
%TO.C,C2*%
X32356248Y-38635000D02*
X32878752Y-38635000D01*
X32356248Y-40105000D02*
X32878752Y-40105000D01*
D12*
%TO.C,Q1*%
X28075000Y-24625000D02*
X28075000Y-26025000D01*
D14*
X28425000Y-27425000D02*
X28425000Y-27425000D01*
D12*
X28525000Y-24625000D02*
X28075000Y-24625000D01*
D14*
X28625000Y-27425000D02*
X28625000Y-27425000D01*
D12*
X29125000Y-26425000D02*
X29925000Y-26425000D01*
X30525000Y-24625000D02*
X30975000Y-24625000D01*
X30975000Y-24625000D02*
X30975000Y-26025000D01*
D14*
X28625000Y-27425000D02*
G75*
G03*
X28425000Y-27425000I-100000J0D01*
G01*
X28425000Y-27425000D02*
G75*
G03*
X28625000Y-27425000I100000J0D01*
G01*
D13*
%TO.C,ICS*%
X23555000Y-36240000D02*
X22225000Y-36240000D01*
X23555000Y-34910000D02*
X23555000Y-36240000D01*
X23555000Y-33640000D02*
X23555000Y-28500000D01*
X23555000Y-33640000D02*
X20895000Y-33640000D01*
X23555000Y-28500000D02*
X20895000Y-28500000D01*
X20895000Y-33640000D02*
X20895000Y-28500000D01*
%TO.C,COM*%
X23175000Y-40640000D02*
G75*
G03*
X23175000Y-40640000I-950000J0D01*
G01*
%TO.C,VDD*%
X38415000Y-27305000D02*
G75*
G03*
X38415000Y-27305000I-950000J0D01*
G01*
D14*
%TO.C,IC1*%
X34430000Y-37390000D02*
X32580000Y-37390000D01*
X32155000Y-37540000D02*
X28655000Y-37540000D01*
X32155000Y-31040000D02*
X32155000Y-37540000D01*
X28655000Y-37540000D02*
X28655000Y-31040000D01*
X28655000Y-31040000D02*
X32155000Y-31040000D01*
D13*
%TO.C,R9*%
X80394783Y-41211334D02*
X80073666Y-40890217D01*
X81434230Y-40171887D02*
X81113113Y-39850770D01*
%TO.C,R5*%
X69611007Y-27713662D02*
X69932124Y-28034779D01*
X68571560Y-28753109D02*
X68892677Y-29074226D01*
%TO.C,SWD*%
X83760000Y-24070000D02*
X85090000Y-24070000D01*
X83760000Y-25400000D02*
X83760000Y-24070000D01*
X83760000Y-26670000D02*
X83760000Y-36890000D01*
X83760000Y-26670000D02*
X86420000Y-26670000D01*
X83760000Y-36890000D02*
X86420000Y-36890000D01*
X86420000Y-26670000D02*
X86420000Y-36890000D01*
D14*
%TO.C,F1*%
X34843000Y-25670000D02*
X32467000Y-25670000D01*
D13*
%TO.C,R8*%
X73203109Y-24121560D02*
X73524226Y-24442677D01*
X72163662Y-25161007D02*
X72484779Y-25482124D01*
%TO.C,R7*%
X71407058Y-25917611D02*
X71728175Y-26238728D01*
X70367611Y-26957058D02*
X70688728Y-27278175D01*
%TO.C,DISP*%
X58394000Y-19244000D02*
X58394000Y-20574000D01*
X57064000Y-19244000D02*
X58394000Y-19244000D01*
X55794000Y-19244000D02*
X48114000Y-19244000D01*
X55794000Y-19244000D02*
X55794000Y-21904000D01*
X48114000Y-19244000D02*
X48114000Y-21904000D01*
X55794000Y-21904000D02*
X48114000Y-21904000D01*
D12*
X65754000Y-19244000D02*
X40754000Y-19244000D01*
X40754000Y-19244000D02*
X40754000Y-45304000D01*
X40754000Y-45304000D02*
X65754000Y-45304000D01*
X65754000Y-45304000D02*
X65754000Y-19244000D01*
D14*
%TO.C,S1*%
X75565000Y-28111699D02*
X74468984Y-29207715D01*
X75565000Y-28111699D02*
X77332767Y-29879466D01*
X70261699Y-33415000D02*
X71357715Y-32318984D01*
X70261699Y-33415000D02*
X72029466Y-35182767D01*
X80868301Y-33415000D02*
X79100534Y-31647233D01*
X80868301Y-33415000D02*
X79772285Y-34511016D01*
X75565000Y-38718301D02*
X73797233Y-36950534D01*
X75565000Y-38718301D02*
X76661016Y-37622285D01*
X73670199Y-28455353D02*
G75*
G03*
X73670199Y-28455353I-72370J0D01*
G01*
D13*
%TO.C,R10*%
X82190835Y-39415282D02*
X81869718Y-39094165D01*
X83230282Y-38375835D02*
X82909165Y-38054718D01*
%TO.C,R1*%
X25300000Y-25802064D02*
X25300000Y-25347936D01*
X26770000Y-25802064D02*
X26770000Y-25347936D01*
%TO.C,C1*%
X32878752Y-29945000D02*
X32356248Y-29945000D01*
X32878752Y-28475000D02*
X32356248Y-28475000D01*
%TO.C,GND*%
X23175000Y-25400000D02*
G75*
G03*
X23175000Y-25400000I-950000J0D01*
G01*
%TD*%
M02*
