%TF.GenerationSoftware,KiCad,Pcbnew,7.0.6*%
%TF.CreationDate,2024-01-24T15:29:16+09:00*%
%TF.ProjectId,EVO2_ICS_CARD,45564f32-5f49-4435-935f-434152442e6b,rev?*%
%TF.SameCoordinates,Original*%
%TF.FileFunction,Copper,L2,Bot*%
%TF.FilePolarity,Positive*%
%FSLAX46Y46*%
G04 Gerber Fmt 4.6, Leading zero omitted, Abs format (unit mm)*
G04 Created by KiCad (PCBNEW 7.0.6) date 2024-01-24 15:29:16*
%MOMM*%
%LPD*%
G01*
G04 APERTURE LIST*
G04 Aperture macros list*
%AMRoundRect*
0 Rectangle with rounded corners*
0 $1 Rounding radius*
0 $2 $3 $4 $5 $6 $7 $8 $9 X,Y pos of 4 corners*
0 Add a 4 corners polygon primitive as box body*
4,1,4,$2,$3,$4,$5,$6,$7,$8,$9,$2,$3,0*
0 Add four circle primitives for the rounded corners*
1,1,$1+$1,$2,$3*
1,1,$1+$1,$4,$5*
1,1,$1+$1,$6,$7*
1,1,$1+$1,$8,$9*
0 Add four rect primitives between the rounded corners*
20,1,$1+$1,$2,$3,$4,$5,0*
20,1,$1+$1,$4,$5,$6,$7,0*
20,1,$1+$1,$6,$7,$8,$9,0*
20,1,$1+$1,$8,$9,$2,$3,0*%
%AMFreePoly0*
4,1,6,1.000000,0.000000,0.500000,-0.750000,-0.500000,-0.750000,-0.500000,0.750000,0.500000,0.750000,1.000000,0.000000,1.000000,0.000000,$1*%
%AMFreePoly1*
4,1,6,0.500000,-0.750000,-0.650000,-0.750000,-0.150000,0.000000,-0.650000,0.750000,0.500000,0.750000,0.500000,-0.750000,0.500000,-0.750000,$1*%
G04 Aperture macros list end*
%TA.AperFunction,ComponentPad*%
%ADD10R,1.700000X1.700000*%
%TD*%
%TA.AperFunction,ComponentPad*%
%ADD11O,1.700000X1.700000*%
%TD*%
%TA.AperFunction,ComponentPad*%
%ADD12C,1.800000*%
%TD*%
%TA.AperFunction,ComponentPad*%
%ADD13C,3.500000*%
%TD*%
%TA.AperFunction,SMDPad,CuDef*%
%ADD14FreePoly0,180.000000*%
%TD*%
%TA.AperFunction,SMDPad,CuDef*%
%ADD15FreePoly1,180.000000*%
%TD*%
%TA.AperFunction,SMDPad,CuDef*%
%ADD16RoundRect,0.250000X-0.337500X-0.475000X0.337500X-0.475000X0.337500X0.475000X-0.337500X0.475000X0*%
%TD*%
%TA.AperFunction,SMDPad,CuDef*%
%ADD17FreePoly0,270.000000*%
%TD*%
%TA.AperFunction,SMDPad,CuDef*%
%ADD18FreePoly1,270.000000*%
%TD*%
%TA.AperFunction,SMDPad,CuDef*%
%ADD19RoundRect,0.250000X-0.450000X0.350000X-0.450000X-0.350000X0.450000X-0.350000X0.450000X0.350000X0*%
%TD*%
%TA.AperFunction,SMDPad,CuDef*%
%ADD20RoundRect,0.250000X-0.350000X-0.450000X0.350000X-0.450000X0.350000X0.450000X-0.350000X0.450000X0*%
%TD*%
%TA.AperFunction,SMDPad,CuDef*%
%ADD21R,0.900000X0.600000*%
%TD*%
%TA.AperFunction,SMDPad,CuDef*%
%ADD22R,1.475000X0.450000*%
%TD*%
%TA.AperFunction,SMDPad,CuDef*%
%ADD23FreePoly0,0.000000*%
%TD*%
%TA.AperFunction,SMDPad,CuDef*%
%ADD24FreePoly1,0.000000*%
%TD*%
%TA.AperFunction,SMDPad,CuDef*%
%ADD25RoundRect,0.250000X-0.475000X0.337500X-0.475000X-0.337500X0.475000X-0.337500X0.475000X0.337500X0*%
%TD*%
%TA.AperFunction,SMDPad,CuDef*%
%ADD26R,2.000000X1.100000*%
%TD*%
%TA.AperFunction,SMDPad,CuDef*%
%ADD27R,0.800000X1.100000*%
%TD*%
%TA.AperFunction,ViaPad*%
%ADD28C,0.800000*%
%TD*%
%TA.AperFunction,Conductor*%
%ADD29C,0.250000*%
%TD*%
G04 APERTURE END LIST*
D10*
%TO.P,ICS,1,Pin_1*%
%TO.N,/RX*%
X22225000Y-34910000D03*
D11*
%TO.P,ICS,2,Pin_2*%
%TO.N,Net-(J1-Pin_2)*%
X22225000Y-32370000D03*
%TO.P,ICS,3,Pin_3*%
%TO.N,GND*%
X22225000Y-29830000D03*
%TD*%
D12*
%TO.P,REF\u002A\u002A,1*%
%TO.N,N/C*%
X80860000Y-20410000D03*
%TD*%
%TO.P,REF\u002A\u002A,1*%
%TO.N,N/C*%
X80860000Y-45310000D03*
%TD*%
D10*
%TO.P,SWD,1,Pin_1*%
%TO.N,/SWCLK*%
X85090000Y-25400000D03*
D11*
%TO.P,SWD,2,Pin_2*%
%TO.N,/SWDIO*%
X85090000Y-27940000D03*
%TO.P,SWD,3,Pin_3*%
%TO.N,/NRST*%
X85090000Y-30480000D03*
%TO.P,SWD,4,Pin_4*%
%TO.N,+3.3V*%
X85090000Y-33020000D03*
%TO.P,SWD,5,Pin_5*%
%TO.N,GND*%
X85090000Y-35560000D03*
%TD*%
D12*
%TO.P,REF\u002A\u002A,1*%
%TO.N,N/C*%
X24860000Y-45310000D03*
%TD*%
D13*
%TO.P,DISP,*%
%TO.N,*%
X63754000Y-21244000D03*
X42754000Y-21244000D03*
X63754000Y-43304000D03*
X42754000Y-43304000D03*
D11*
%TO.P,DISP,1,Pin_1*%
%TO.N,GND*%
X49444000Y-20574000D03*
%TO.P,DISP,2,Pin_2*%
%TO.N,+3.3V*%
X51984000Y-20574000D03*
%TO.P,DISP,3,Pin_3*%
%TO.N,/SCL*%
X54524000Y-20574000D03*
D10*
%TO.P,DISP,4,Pin_4*%
%TO.N,/SDA*%
X57064000Y-20574000D03*
%TD*%
D12*
%TO.P,REF\u002A\u002A,1*%
%TO.N,N/C*%
X24860000Y-20410000D03*
%TD*%
D14*
%TO.P,JP3,1,A*%
%TO.N,/RX*%
X57965000Y-41275000D03*
D15*
%TO.P,JP3,2,B*%
%TO.N,/TX*%
X56515000Y-41275000D03*
%TD*%
D16*
%TO.P,C4,1*%
%TO.N,+3.3V*%
X66438000Y-35885000D03*
%TO.P,C4,2*%
%TO.N,GND*%
X68513000Y-35885000D03*
%TD*%
D17*
%TO.P,JP1,1,A*%
%TO.N,/SCL*%
X52324000Y-23622000D03*
D18*
%TO.P,JP1,2,B*%
%TO.N,Net-(JP1-B)*%
X52324000Y-25072000D03*
%TD*%
D19*
%TO.P,R3,1*%
%TO.N,+3.3V*%
X58166000Y-23622000D03*
%TO.P,R3,2*%
%TO.N,Net-(JP2-B)*%
X58166000Y-25622000D03*
%TD*%
D20*
%TO.P,R4,1*%
%TO.N,Net-(IC2-PB9-BOOT0)*%
X66675000Y-26670000D03*
%TO.P,R4,2*%
%TO.N,GND*%
X68675000Y-26670000D03*
%TD*%
D21*
%TO.P,IC3,1,GND*%
%TO.N,GND*%
X69238000Y-31445000D03*
%TO.P,IC3,2,NC*%
%TO.N,unconnected-(IC3-NC-Pad2)*%
X69238000Y-32395000D03*
%TO.P,IC3,3,OE/~{ST}/NC*%
%TO.N,Net-(IC3-OE{slash}~{ST}{slash}NC)*%
X69238000Y-33345000D03*
%TO.P,IC3,4,VDD*%
%TO.N,+3.3V*%
X66438000Y-33345000D03*
%TO.P,IC3,5,OUT*%
%TO.N,/CLK*%
X66438000Y-31445000D03*
%TD*%
D19*
%TO.P,R2,1*%
%TO.N,+3.3V*%
X50038000Y-23368000D03*
%TO.P,R2,2*%
%TO.N,Net-(JP1-B)*%
X50038000Y-25368000D03*
%TD*%
D22*
%TO.P,IC2,1,PB9-BOOT0*%
%TO.N,Net-(IC2-PB9-BOOT0)*%
X61358000Y-28190000D03*
%TO.P,IC2,2,PC14-OSC32_IN*%
%TO.N,unconnected-(IC2-PC14-OSC32_IN-Pad2)*%
X61358000Y-28840000D03*
%TO.P,IC2,3,PC15-OSC32_OUT*%
%TO.N,unconnected-(IC2-PC15-OSC32_OUT-Pad3)*%
X61358000Y-29490000D03*
%TO.P,IC2,4,NRST*%
%TO.N,/NRST*%
X61358000Y-30140000D03*
%TO.P,IC2,5,VDDA*%
%TO.N,+3.3V*%
X61358000Y-30790000D03*
%TO.P,IC2,6,PA0-CK_IN*%
%TO.N,/CLK*%
X61358000Y-31440000D03*
%TO.P,IC2,7,PA1*%
%TO.N,unconnected-(IC2-PA1-Pad7)*%
X61358000Y-32090000D03*
%TO.P,IC2,8,PA2*%
%TO.N,/TX*%
X61358000Y-32740000D03*
%TO.P,IC2,9,PA3*%
%TO.N,/RX*%
X61358000Y-33390000D03*
%TO.P,IC2,10,PA4*%
%TO.N,/SW_UP*%
X61358000Y-34040000D03*
%TO.P,IC2,11,PA5*%
%TO.N,/SW_DOWN*%
X55482000Y-34040000D03*
%TO.P,IC2,12,PA6*%
%TO.N,/SW_LEFT*%
X55482000Y-33390000D03*
%TO.P,IC2,13,PA7*%
%TO.N,/SW_RIGHT*%
X55482000Y-32740000D03*
%TO.P,IC2,14,PB1*%
%TO.N,/SW_PUSH*%
X55482000Y-32090000D03*
%TO.P,IC2,15,VSS*%
%TO.N,GND*%
X55482000Y-31440000D03*
%TO.P,IC2,16,VDD*%
%TO.N,+3.3V*%
X55482000Y-30790000D03*
%TO.P,IC2,17,PA9*%
%TO.N,/SCL*%
X55482000Y-30140000D03*
%TO.P,IC2,18,PA10*%
%TO.N,/SDA*%
X55482000Y-29490000D03*
%TO.P,IC2,19,PA13*%
%TO.N,/SWDIO*%
X55482000Y-28840000D03*
%TO.P,IC2,20,PA14*%
%TO.N,/SWCLK*%
X55482000Y-28190000D03*
%TD*%
D23*
%TO.P,JP4,1,A*%
%TO.N,Net-(IC2-PB9-BOOT0)*%
X66675000Y-24130000D03*
D24*
%TO.P,JP4,2,B*%
%TO.N,+3.3V*%
X68125000Y-24130000D03*
%TD*%
D16*
%TO.P,C3,1*%
%TO.N,+3.3V*%
X66675000Y-29210000D03*
%TO.P,C3,2*%
%TO.N,GND*%
X68750000Y-29210000D03*
%TD*%
D25*
%TO.P,C5,1*%
%TO.N,+3.3V*%
X51435000Y-30805000D03*
%TO.P,C5,2*%
%TO.N,GND*%
X51435000Y-32880000D03*
%TD*%
D17*
%TO.P,JP2,1,A*%
%TO.N,/SDA*%
X55880000Y-23622000D03*
D18*
%TO.P,JP2,2,B*%
%TO.N,Net-(JP2-B)*%
X55880000Y-25072000D03*
%TD*%
D20*
%TO.P,R6,1*%
%TO.N,+3.3V*%
X66438000Y-38425000D03*
%TO.P,R6,2*%
%TO.N,Net-(IC3-OE{slash}~{ST}{slash}NC)*%
X68438000Y-38425000D03*
%TD*%
D26*
%TO.P,D1,1,K*%
%TO.N,/RX*%
X57780000Y-44450000D03*
D27*
%TO.P,D1,2,A*%
%TO.N,/TX*%
X55880000Y-44450000D03*
%TD*%
D28*
%TO.N,GND*%
X68513000Y-35885000D03*
X26670000Y-30480000D03*
X35560000Y-40640000D03*
X19685000Y-38100000D03*
X51435000Y-32880000D03*
X77470000Y-19685000D03*
X49276000Y-38354000D03*
X71120000Y-37465000D03*
X29845000Y-30480000D03*
X28575000Y-41275000D03*
X22225000Y-25400000D03*
X28575000Y-26575000D03*
X24765000Y-38735000D03*
X42418000Y-26670000D03*
X40640000Y-33782000D03*
X86360000Y-40640000D03*
X36195000Y-36195000D03*
X67945000Y-19685000D03*
X60960000Y-44450000D03*
X54102000Y-44196000D03*
X57150000Y-38100000D03*
X48260000Y-29464000D03*
X39370000Y-44450000D03*
X66040000Y-46355000D03*
X24130000Y-43180000D03*
X46228000Y-33020000D03*
X27305000Y-46355000D03*
X31580000Y-29210000D03*
X31115000Y-43815000D03*
X29845000Y-37465000D03*
X46990000Y-27305000D03*
X60325000Y-40640000D03*
X34544000Y-21590000D03*
X61595000Y-38100000D03*
X37846000Y-29972000D03*
X76200000Y-46355000D03*
X33782000Y-25654000D03*
X82550000Y-36195000D03*
X28575000Y-21590000D03*
X60960000Y-24130000D03*
X33655000Y-39370000D03*
X42926000Y-38608000D03*
X26035000Y-24575000D03*
X19685000Y-27305000D03*
X78740000Y-26035000D03*
X82550000Y-30480000D03*
X76200000Y-40005000D03*
X68580000Y-40005000D03*
X49530000Y-44450000D03*
X64770000Y-38100000D03*
X75565000Y-24130000D03*
X74422000Y-32766000D03*
X78092907Y-35942907D03*
%TO.N,+3.3V*%
X59690000Y-29845000D03*
X66438000Y-38425000D03*
X72136837Y-24094735D03*
X51435000Y-30805000D03*
X66675000Y-29210000D03*
%TO.N,/RX*%
X57780000Y-44450000D03*
%TO.N,Net-(IC2-PB9-BOOT0)*%
X61595000Y-27305000D03*
X66675000Y-26670000D03*
%TO.N,/NRST*%
X62708516Y-28485500D03*
%TO.N,/SW_UP*%
X62865000Y-33361290D03*
%TO.N,/SW_DOWN*%
X53594000Y-34535790D03*
%TO.N,/SW_LEFT*%
X53521696Y-33400304D03*
%TO.N,/SW_RIGHT*%
X56816405Y-33109266D03*
%TO.N,/SW_PUSH*%
X53340000Y-31529500D03*
%TO.N,/SWDIO*%
X59690000Y-28448000D03*
%TO.N,/SWCLK*%
X59739042Y-27111054D03*
%TD*%
D29*
%TO.N,GND*%
X55482000Y-31440000D02*
X56825000Y-31440000D01*
X56825000Y-31440000D02*
X57150000Y-31115000D01*
%TO.N,+3.3V*%
X54315000Y-30790000D02*
X55482000Y-30790000D01*
X58166000Y-23622000D02*
X58420000Y-23368000D01*
X58166000Y-19304000D02*
X53340000Y-19304000D01*
X53340000Y-19304000D02*
X50038000Y-22606000D01*
X60395500Y-30790000D02*
X61358000Y-30790000D01*
X59690000Y-30084500D02*
X60395500Y-30790000D01*
X66438000Y-33345000D02*
X66438000Y-35885000D01*
X51435000Y-30805000D02*
X54300000Y-30805000D01*
X58420000Y-19558000D02*
X58166000Y-19304000D01*
X58420000Y-23368000D02*
X58420000Y-19558000D01*
X66438000Y-38425000D02*
X66438000Y-35885000D01*
X54300000Y-30805000D02*
X54315000Y-30790000D01*
X50038000Y-22606000D02*
X50038000Y-23368000D01*
X72136837Y-24094735D02*
X72101572Y-24130000D01*
X72101572Y-24130000D02*
X68125000Y-24130000D01*
X59690000Y-29845000D02*
X59690000Y-30084500D01*
%TO.N,/RX*%
X60395500Y-33390000D02*
X60295500Y-33490000D01*
X60295500Y-33490000D02*
X60295500Y-37495896D01*
X61358000Y-33390000D02*
X60395500Y-33390000D01*
X57965000Y-39826396D02*
X57965000Y-41275000D01*
X57780000Y-41460000D02*
X57780000Y-44450000D01*
X60295500Y-37495896D02*
X57965000Y-39826396D01*
%TO.N,/TX*%
X56515000Y-41275000D02*
X55880000Y-41910000D01*
X56515000Y-40640000D02*
X56515000Y-41275000D01*
X59845500Y-37309500D02*
X56515000Y-40640000D01*
X60409104Y-32740000D02*
X59845500Y-33303604D01*
X61358000Y-32740000D02*
X60409104Y-32740000D01*
X55880000Y-41910000D02*
X55880000Y-44450000D01*
X59845500Y-33303604D02*
X59845500Y-37309500D01*
%TO.N,Net-(IC2-PB9-BOOT0)*%
X61595000Y-27953000D02*
X61358000Y-28190000D01*
X61595000Y-27305000D02*
X61595000Y-27953000D01*
X66675000Y-26670000D02*
X66675000Y-24130000D01*
%TO.N,/NRST*%
X62130000Y-30140000D02*
X61358000Y-30140000D01*
X62708516Y-28485500D02*
X62708516Y-29561484D01*
X62708516Y-29561484D02*
X62130000Y-30140000D01*
%TO.N,/CLK*%
X61358000Y-31440000D02*
X66433000Y-31440000D01*
%TO.N,/SW_UP*%
X62865000Y-33361290D02*
X62186290Y-34040000D01*
X62186290Y-34040000D02*
X61358000Y-34040000D01*
%TO.N,/SW_DOWN*%
X53594000Y-34307829D02*
X53861829Y-34040000D01*
X53861829Y-34040000D02*
X55482000Y-34040000D01*
X53594000Y-34535790D02*
X53594000Y-34307829D01*
%TO.N,/SW_LEFT*%
X53978300Y-33400304D02*
X53988604Y-33390000D01*
X53521696Y-33400304D02*
X53978300Y-33400304D01*
X53988604Y-33390000D02*
X55482000Y-33390000D01*
%TO.N,/SW_RIGHT*%
X56813766Y-33109266D02*
X56444500Y-32740000D01*
X56816405Y-33109266D02*
X56813766Y-33109266D01*
X56444500Y-32740000D02*
X55482000Y-32740000D01*
%TO.N,/SW_PUSH*%
X53340000Y-31529500D02*
X53900500Y-32090000D01*
X53900500Y-32090000D02*
X55482000Y-32090000D01*
%TO.N,/SCL*%
X53906000Y-29512896D02*
X53906000Y-27686000D01*
X55482000Y-30140000D02*
X54533104Y-30140000D01*
X53906000Y-21278000D02*
X54610000Y-20574000D01*
X54533104Y-30140000D02*
X53906000Y-29512896D01*
X52324000Y-23622000D02*
X53906000Y-23622000D01*
X53906000Y-27686000D02*
X53906000Y-23622000D01*
X53906000Y-23622000D02*
X53906000Y-21278000D01*
%TO.N,/SDA*%
X54519500Y-29490000D02*
X54356000Y-29326500D01*
X56388000Y-20574000D02*
X57150000Y-20574000D01*
X55482000Y-29490000D02*
X54519500Y-29490000D01*
X54356000Y-22606000D02*
X56388000Y-20574000D01*
X55880000Y-23622000D02*
X54356000Y-23622000D01*
X54356000Y-29326500D02*
X54356000Y-23622000D01*
X54356000Y-23622000D02*
X54356000Y-22606000D01*
%TO.N,/SWDIO*%
X59298000Y-28840000D02*
X55482000Y-28840000D01*
X59690000Y-28448000D02*
X59298000Y-28840000D01*
%TO.N,/SWCLK*%
X59739042Y-27111054D02*
X59739042Y-27128958D01*
X58674000Y-28194000D02*
X55486000Y-28194000D01*
X59739042Y-27128958D02*
X58674000Y-28194000D01*
X55486000Y-28194000D02*
X55482000Y-28190000D01*
%TO.N,Net-(IC3-OE{slash}~{ST}{slash}NC)*%
X69850000Y-33957000D02*
X69238000Y-33345000D01*
X69850000Y-37013000D02*
X69850000Y-33957000D01*
X68438000Y-38425000D02*
X69850000Y-37013000D01*
%TO.N,Net-(JP1-B)*%
X50038000Y-25368000D02*
X52028000Y-25368000D01*
X52028000Y-25368000D02*
X52324000Y-25072000D01*
%TO.N,Net-(JP2-B)*%
X57616000Y-25072000D02*
X58166000Y-25622000D01*
X55880000Y-25072000D02*
X57616000Y-25072000D01*
%TD*%
%TA.AperFunction,Conductor*%
%TO.N,GND*%
G36*
X81362207Y-18410657D02*
G01*
X81429755Y-18415489D01*
X81576644Y-18427049D01*
X81584947Y-18428274D01*
X81679760Y-18448899D01*
X81796225Y-18476860D01*
X81803401Y-18479051D01*
X81899737Y-18514983D01*
X81977922Y-18547368D01*
X82005856Y-18558939D01*
X82011847Y-18561805D01*
X82102937Y-18611543D01*
X82105580Y-18613073D01*
X82200903Y-18671488D01*
X82205643Y-18674705D01*
X82289440Y-18737435D01*
X82292520Y-18739898D01*
X82369716Y-18805830D01*
X82376937Y-18811997D01*
X82380513Y-18815303D01*
X82454695Y-18889485D01*
X82458001Y-18893061D01*
X82530094Y-18977471D01*
X82532570Y-18980567D01*
X82577232Y-19040228D01*
X82595289Y-19064349D01*
X82598517Y-19069106D01*
X82633635Y-19126412D01*
X82656910Y-19164393D01*
X82658463Y-19167076D01*
X82708193Y-19258151D01*
X82711059Y-19264141D01*
X82755016Y-19370260D01*
X82790942Y-19466582D01*
X82793140Y-19473781D01*
X82821098Y-19590231D01*
X82841723Y-19685044D01*
X82842950Y-19693367D01*
X82854517Y-19840331D01*
X82859342Y-19907789D01*
X82859500Y-19912213D01*
X82859500Y-21315082D01*
X82857105Y-21323236D01*
X82859309Y-21351235D01*
X82859500Y-21356102D01*
X82859500Y-21467319D01*
X82874071Y-21568665D01*
X82873380Y-21573467D01*
X82876151Y-21585009D01*
X82877232Y-21590657D01*
X82878980Y-21602803D01*
X82879420Y-21606767D01*
X82884390Y-21669908D01*
X82892054Y-21686610D01*
X82923758Y-21794583D01*
X82923758Y-21800215D01*
X82928168Y-21810862D01*
X82930378Y-21817126D01*
X82938168Y-21843658D01*
X82938966Y-21846651D01*
X82949041Y-21888614D01*
X82958447Y-21903079D01*
X83006060Y-22007337D01*
X83007038Y-22014139D01*
X83013424Y-22024561D01*
X83016961Y-22031205D01*
X83039894Y-22081422D01*
X83042463Y-22086791D01*
X83045915Y-22095126D01*
X83056494Y-22107115D01*
X83118982Y-22204349D01*
X83121281Y-22212180D01*
X83129586Y-22221904D01*
X83134601Y-22228653D01*
X83155719Y-22261513D01*
X83155729Y-22261525D01*
X83158979Y-22265275D01*
X83170994Y-22281689D01*
X83172873Y-22284755D01*
X83184015Y-22294169D01*
X83259962Y-22381817D01*
X83263863Y-22390359D01*
X83270250Y-22395814D01*
X83283434Y-22408904D01*
X83296276Y-22423725D01*
X83296277Y-22423726D01*
X83311096Y-22436567D01*
X83324183Y-22449747D01*
X83327103Y-22453165D01*
X83338181Y-22460036D01*
X83425829Y-22535983D01*
X83431526Y-22544848D01*
X83438311Y-22549006D01*
X83454717Y-22561015D01*
X83458482Y-22564277D01*
X83458487Y-22564281D01*
X83487057Y-22582641D01*
X83491341Y-22585395D01*
X83498096Y-22590413D01*
X83505222Y-22596500D01*
X83515646Y-22601014D01*
X83612884Y-22663505D01*
X83620469Y-22672258D01*
X83633210Y-22677536D01*
X83638631Y-22680130D01*
X83688795Y-22703039D01*
X83695440Y-22706576D01*
X83703393Y-22711449D01*
X83712661Y-22713938D01*
X83816919Y-22761551D01*
X83826392Y-22769759D01*
X83873341Y-22781031D01*
X83876303Y-22781820D01*
X83900908Y-22789045D01*
X83902880Y-22789624D01*
X83909143Y-22791833D01*
X83917579Y-22795327D01*
X83925409Y-22796239D01*
X84033383Y-22827943D01*
X84044644Y-22835180D01*
X84113222Y-22840578D01*
X84117170Y-22841016D01*
X84121800Y-22841681D01*
X84129348Y-22842768D01*
X84134998Y-22843850D01*
X84144521Y-22846136D01*
X84151332Y-22845928D01*
X84252682Y-22860500D01*
X84359901Y-22860500D01*
X84363910Y-22860500D01*
X84368777Y-22860691D01*
X84393121Y-22862606D01*
X84404917Y-22860500D01*
X85807787Y-22860500D01*
X85812207Y-22860657D01*
X85879755Y-22865489D01*
X86026644Y-22877049D01*
X86034947Y-22878274D01*
X86129760Y-22898899D01*
X86246225Y-22926860D01*
X86253401Y-22929051D01*
X86349737Y-22964983D01*
X86427922Y-22997368D01*
X86455856Y-23008939D01*
X86461847Y-23011805D01*
X86552937Y-23061543D01*
X86555580Y-23063073D01*
X86650903Y-23121488D01*
X86655643Y-23124705D01*
X86739440Y-23187435D01*
X86742520Y-23189898D01*
X86793677Y-23233590D01*
X86826937Y-23261997D01*
X86830513Y-23265303D01*
X86904695Y-23339485D01*
X86908001Y-23343061D01*
X86980094Y-23427471D01*
X86982570Y-23430567D01*
X87003471Y-23458487D01*
X87045289Y-23514349D01*
X87048521Y-23519111D01*
X87106910Y-23614393D01*
X87108463Y-23617076D01*
X87158193Y-23708151D01*
X87161059Y-23714141D01*
X87205016Y-23820260D01*
X87240942Y-23916582D01*
X87243140Y-23923781D01*
X87271098Y-24040231D01*
X87291723Y-24135044D01*
X87292950Y-24143367D01*
X87304517Y-24290331D01*
X87309342Y-24357789D01*
X87309500Y-24362213D01*
X87309500Y-41357786D01*
X87309342Y-41362210D01*
X87304517Y-41429668D01*
X87292950Y-41576632D01*
X87291723Y-41584955D01*
X87271101Y-41679755D01*
X87243140Y-41796217D01*
X87240942Y-41803416D01*
X87205016Y-41899739D01*
X87161059Y-42005857D01*
X87158193Y-42011847D01*
X87108463Y-42102922D01*
X87106910Y-42105605D01*
X87048521Y-42200887D01*
X87045289Y-42205649D01*
X86982576Y-42289424D01*
X86980087Y-42292536D01*
X86908001Y-42376937D01*
X86904695Y-42380513D01*
X86830513Y-42454695D01*
X86826937Y-42458001D01*
X86742536Y-42530087D01*
X86739424Y-42532576D01*
X86655649Y-42595289D01*
X86650887Y-42598521D01*
X86555605Y-42656910D01*
X86552922Y-42658463D01*
X86461847Y-42708193D01*
X86455857Y-42711059D01*
X86349739Y-42755016D01*
X86253416Y-42790942D01*
X86246217Y-42793140D01*
X86129755Y-42821101D01*
X86034955Y-42841723D01*
X86026632Y-42842950D01*
X85879668Y-42854517D01*
X85839473Y-42857392D01*
X85812208Y-42859342D01*
X85807786Y-42859500D01*
X84404916Y-42859500D01*
X84396761Y-42857105D01*
X84368763Y-42859309D01*
X84363896Y-42859500D01*
X84252680Y-42859500D01*
X84151333Y-42874071D01*
X84146528Y-42873380D01*
X84134981Y-42876152D01*
X84129329Y-42877234D01*
X84117200Y-42878978D01*
X84113241Y-42879418D01*
X84050098Y-42884388D01*
X84033391Y-42892054D01*
X83950558Y-42916376D01*
X83933995Y-42921240D01*
X83925416Y-42923759D01*
X83919785Y-42923759D01*
X83909140Y-42928168D01*
X83902876Y-42930377D01*
X83876357Y-42938163D01*
X83873365Y-42938961D01*
X83831389Y-42949039D01*
X83816920Y-42958447D01*
X83712662Y-43006060D01*
X83705857Y-43007038D01*
X83695431Y-43013427D01*
X83688789Y-43016962D01*
X83638617Y-43039875D01*
X83633181Y-43042473D01*
X83624879Y-43045911D01*
X83612885Y-43056493D01*
X83515649Y-43118983D01*
X83507815Y-43121283D01*
X83498089Y-43129590D01*
X83491338Y-43134606D01*
X83458485Y-43155719D01*
X83458481Y-43155723D01*
X83454725Y-43158978D01*
X83438317Y-43170989D01*
X83435247Y-43172870D01*
X83425831Y-43184015D01*
X83338182Y-43259963D01*
X83329635Y-43263866D01*
X83324174Y-43270260D01*
X83311092Y-43283436D01*
X83296275Y-43296275D01*
X83283436Y-43311092D01*
X83270260Y-43324174D01*
X83266838Y-43327096D01*
X83259963Y-43338182D01*
X83184015Y-43425831D01*
X83175148Y-43431528D01*
X83170989Y-43438317D01*
X83158978Y-43454725D01*
X83155723Y-43458481D01*
X83155719Y-43458485D01*
X83134606Y-43491338D01*
X83129590Y-43498089D01*
X83123500Y-43505219D01*
X83118983Y-43515649D01*
X83056493Y-43612885D01*
X83047738Y-43620471D01*
X83042473Y-43633181D01*
X83039875Y-43638617D01*
X83016962Y-43688789D01*
X83013427Y-43695431D01*
X83008552Y-43703386D01*
X83006061Y-43712662D01*
X82958448Y-43816922D01*
X82950237Y-43826397D01*
X82938961Y-43873366D01*
X82938163Y-43876359D01*
X82930377Y-43902877D01*
X82928167Y-43909140D01*
X82924672Y-43917578D01*
X82923759Y-43925416D01*
X82892054Y-44033391D01*
X82884817Y-44044650D01*
X82879420Y-44113232D01*
X82878980Y-44117189D01*
X82877232Y-44129349D01*
X82876150Y-44135003D01*
X82873866Y-44144516D01*
X82874073Y-44151321D01*
X82859500Y-44252680D01*
X82859500Y-44363914D01*
X82859309Y-44368780D01*
X82857392Y-44393127D01*
X82859500Y-44404924D01*
X82859500Y-45807786D01*
X82859342Y-45812210D01*
X82854517Y-45879668D01*
X82842950Y-46026632D01*
X82841723Y-46034955D01*
X82821101Y-46129755D01*
X82793140Y-46246217D01*
X82790942Y-46253416D01*
X82755016Y-46349739D01*
X82711059Y-46455857D01*
X82708193Y-46461847D01*
X82658463Y-46552922D01*
X82656910Y-46555605D01*
X82598521Y-46650887D01*
X82595289Y-46655649D01*
X82532576Y-46739424D01*
X82530087Y-46742536D01*
X82458001Y-46826937D01*
X82454695Y-46830513D01*
X82380513Y-46904695D01*
X82376937Y-46908001D01*
X82292536Y-46980087D01*
X82289424Y-46982576D01*
X82205649Y-47045289D01*
X82200887Y-47048521D01*
X82105605Y-47106910D01*
X82102922Y-47108463D01*
X82011847Y-47158193D01*
X82005857Y-47161059D01*
X81899739Y-47205016D01*
X81803416Y-47240942D01*
X81796217Y-47243140D01*
X81679755Y-47271101D01*
X81584955Y-47291723D01*
X81576632Y-47292950D01*
X81429668Y-47304517D01*
X81381555Y-47307958D01*
X81362208Y-47309342D01*
X81357786Y-47309500D01*
X24362214Y-47309500D01*
X24357791Y-47309342D01*
X24329525Y-47307320D01*
X24290331Y-47304517D01*
X24143366Y-47292950D01*
X24135043Y-47291723D01*
X24040244Y-47271101D01*
X23923781Y-47243140D01*
X23916582Y-47240942D01*
X23820260Y-47205016D01*
X23714141Y-47161059D01*
X23708151Y-47158193D01*
X23617076Y-47108463D01*
X23614393Y-47106910D01*
X23519106Y-47048517D01*
X23514349Y-47045289D01*
X23430574Y-46982576D01*
X23427471Y-46980094D01*
X23343061Y-46908001D01*
X23339485Y-46904695D01*
X23265303Y-46830513D01*
X23261997Y-46826937D01*
X23189898Y-46742520D01*
X23187435Y-46739440D01*
X23124705Y-46655643D01*
X23121488Y-46650903D01*
X23063073Y-46555580D01*
X23061535Y-46552922D01*
X23011805Y-46461847D01*
X23008939Y-46455856D01*
X22997368Y-46427922D01*
X22964983Y-46349737D01*
X22929051Y-46253401D01*
X22926860Y-46246225D01*
X22898899Y-46129760D01*
X22878274Y-46034947D01*
X22877049Y-46026644D01*
X22865489Y-45879755D01*
X22860657Y-45812207D01*
X22860500Y-45807787D01*
X22860500Y-45310006D01*
X23454700Y-45310006D01*
X23473864Y-45541297D01*
X23473866Y-45541308D01*
X23530842Y-45766300D01*
X23624075Y-45978848D01*
X23751016Y-46173147D01*
X23751019Y-46173151D01*
X23751021Y-46173153D01*
X23908216Y-46343913D01*
X23908219Y-46343915D01*
X23908222Y-46343918D01*
X24091365Y-46486464D01*
X24091371Y-46486468D01*
X24091374Y-46486470D01*
X24295497Y-46596936D01*
X24364693Y-46620691D01*
X24515015Y-46672297D01*
X24515017Y-46672297D01*
X24515019Y-46672298D01*
X24743951Y-46710500D01*
X24743952Y-46710500D01*
X24976048Y-46710500D01*
X24976049Y-46710500D01*
X25204981Y-46672298D01*
X25424503Y-46596936D01*
X25628626Y-46486470D01*
X25811784Y-46343913D01*
X25968979Y-46173153D01*
X26095924Y-45978849D01*
X26189157Y-45766300D01*
X26246134Y-45541305D01*
X26246135Y-45541297D01*
X26265300Y-45310006D01*
X26265300Y-45309993D01*
X26246135Y-45078702D01*
X26246133Y-45078691D01*
X26189157Y-44853699D01*
X26095924Y-44641151D01*
X25968983Y-44446852D01*
X25968980Y-44446849D01*
X25968979Y-44446847D01*
X25811784Y-44276087D01*
X25811779Y-44276083D01*
X25811777Y-44276081D01*
X25628634Y-44133535D01*
X25628628Y-44133531D01*
X25424504Y-44023064D01*
X25424495Y-44023061D01*
X25204984Y-43947702D01*
X25024458Y-43917578D01*
X24976049Y-43909500D01*
X24743951Y-43909500D01*
X24698164Y-43917140D01*
X24515015Y-43947702D01*
X24295504Y-44023061D01*
X24295495Y-44023064D01*
X24091371Y-44133531D01*
X24091365Y-44133535D01*
X23908222Y-44276081D01*
X23908219Y-44276084D01*
X23751016Y-44446852D01*
X23624075Y-44641151D01*
X23530842Y-44853699D01*
X23473866Y-45078691D01*
X23473864Y-45078702D01*
X23454700Y-45309993D01*
X23454700Y-45310006D01*
X22860500Y-45310006D01*
X22860500Y-44404917D01*
X22862893Y-44396764D01*
X22860691Y-44368775D01*
X22860500Y-44363909D01*
X22860500Y-44252683D01*
X22848192Y-44167080D01*
X22845926Y-44151319D01*
X22846616Y-44146520D01*
X22843850Y-44134998D01*
X22842768Y-44129349D01*
X22841867Y-44123087D01*
X22841015Y-44117166D01*
X22840578Y-44113223D01*
X22835609Y-44050089D01*
X22827943Y-44033383D01*
X22824912Y-44023061D01*
X22796240Y-43925412D01*
X22796240Y-43919782D01*
X22791833Y-43909143D01*
X22789624Y-43902880D01*
X22785171Y-43887716D01*
X22781820Y-43876303D01*
X22781031Y-43873341D01*
X22770958Y-43831385D01*
X22761550Y-43816918D01*
X22713938Y-43712661D01*
X22712959Y-43705857D01*
X22706576Y-43695440D01*
X22703039Y-43688795D01*
X22680130Y-43638631D01*
X22677536Y-43633210D01*
X22674084Y-43624876D01*
X22663506Y-43612885D01*
X22601015Y-43515647D01*
X22598716Y-43507817D01*
X22590413Y-43498096D01*
X22585395Y-43491341D01*
X22582641Y-43487057D01*
X22564281Y-43458487D01*
X22564276Y-43458481D01*
X22561015Y-43454717D01*
X22549006Y-43438311D01*
X22547127Y-43435245D01*
X22535983Y-43425829D01*
X22460036Y-43338181D01*
X22456134Y-43329638D01*
X22449747Y-43324183D01*
X22436567Y-43311096D01*
X22430424Y-43304007D01*
X40498671Y-43304007D01*
X40517964Y-43598363D01*
X40517965Y-43598373D01*
X40517966Y-43598380D01*
X40572663Y-43873366D01*
X40575518Y-43887716D01*
X40575521Y-43887730D01*
X40670349Y-44167080D01*
X40800825Y-44431660D01*
X40800829Y-44431667D01*
X40964725Y-44676955D01*
X41159241Y-44898758D01*
X41381044Y-45093274D01*
X41604119Y-45242328D01*
X41626335Y-45257172D01*
X41890923Y-45387652D01*
X42170278Y-45482481D01*
X42459620Y-45540034D01*
X42479057Y-45541308D01*
X42753993Y-45559329D01*
X42754000Y-45559329D01*
X42754007Y-45559329D01*
X42989675Y-45543881D01*
X43048380Y-45540034D01*
X43337722Y-45482481D01*
X43617077Y-45387652D01*
X43881665Y-45257172D01*
X44126957Y-45093273D01*
X44348758Y-44898758D01*
X44543273Y-44676957D01*
X44707172Y-44431665D01*
X44837652Y-44167077D01*
X44932481Y-43887722D01*
X44990034Y-43598380D01*
X44999203Y-43458487D01*
X45009329Y-43304007D01*
X45009329Y-43303992D01*
X44990515Y-43016961D01*
X44990034Y-43009620D01*
X44932481Y-42720278D01*
X44837652Y-42440923D01*
X44707172Y-42176336D01*
X44701239Y-42167457D01*
X44606053Y-42025000D01*
X44543273Y-41931043D01*
X44500655Y-41882447D01*
X44348758Y-41709241D01*
X44126955Y-41514725D01*
X43881667Y-41350829D01*
X43881660Y-41350825D01*
X43617080Y-41220349D01*
X43337730Y-41125521D01*
X43337724Y-41125519D01*
X43337722Y-41125519D01*
X43048380Y-41067966D01*
X43048373Y-41067965D01*
X43048363Y-41067964D01*
X42754007Y-41048671D01*
X42753993Y-41048671D01*
X42459636Y-41067964D01*
X42459624Y-41067965D01*
X42459620Y-41067966D01*
X42459612Y-41067967D01*
X42459609Y-41067968D01*
X42170283Y-41125518D01*
X42170269Y-41125521D01*
X41890919Y-41220349D01*
X41626334Y-41350828D01*
X41381041Y-41514728D01*
X41159241Y-41709241D01*
X40964728Y-41931041D01*
X40800828Y-42176334D01*
X40670349Y-42440919D01*
X40575521Y-42720269D01*
X40575518Y-42720283D01*
X40517968Y-43009609D01*
X40517964Y-43009636D01*
X40498671Y-43303992D01*
X40498671Y-43304007D01*
X22430424Y-43304007D01*
X22423726Y-43296277D01*
X22423725Y-43296276D01*
X22408904Y-43283434D01*
X22395814Y-43270250D01*
X22392898Y-43266836D01*
X22381817Y-43259962D01*
X22294169Y-43184015D01*
X22288472Y-43175150D01*
X22281689Y-43170994D01*
X22265275Y-43158979D01*
X22261517Y-43155723D01*
X22261513Y-43155719D01*
X22228653Y-43134601D01*
X22221904Y-43129586D01*
X22214780Y-43123502D01*
X22204349Y-43118982D01*
X22107115Y-43056494D01*
X22099529Y-43047739D01*
X22086791Y-43042463D01*
X22081422Y-43039894D01*
X22031205Y-43016961D01*
X22024561Y-43013424D01*
X22016607Y-43008550D01*
X22007337Y-43006060D01*
X21903079Y-42958447D01*
X21893607Y-42950240D01*
X21846651Y-42938966D01*
X21843658Y-42938168D01*
X21825503Y-42932837D01*
X21817123Y-42930376D01*
X21810862Y-42928168D01*
X21802423Y-42924672D01*
X21794583Y-42923758D01*
X21686610Y-42892054D01*
X21675351Y-42884818D01*
X21606767Y-42879420D01*
X21602805Y-42878980D01*
X21602091Y-42878877D01*
X21590657Y-42877232D01*
X21585009Y-42876151D01*
X21575482Y-42873864D01*
X21568665Y-42874071D01*
X21467319Y-42859500D01*
X21467318Y-42859500D01*
X21360099Y-42859500D01*
X21356102Y-42859500D01*
X21351235Y-42859309D01*
X21326881Y-42857392D01*
X21315083Y-42859500D01*
X19912214Y-42859500D01*
X19907791Y-42859342D01*
X19876514Y-42857105D01*
X19840331Y-42854517D01*
X19693366Y-42842950D01*
X19685043Y-42841723D01*
X19590244Y-42821101D01*
X19473781Y-42793140D01*
X19466582Y-42790942D01*
X19370260Y-42755016D01*
X19264141Y-42711059D01*
X19258151Y-42708193D01*
X19167076Y-42658463D01*
X19164393Y-42656910D01*
X19076642Y-42603136D01*
X19069106Y-42598517D01*
X19064349Y-42595289D01*
X19022927Y-42564281D01*
X18980567Y-42532570D01*
X18977471Y-42530094D01*
X18893061Y-42458001D01*
X18889485Y-42454695D01*
X18815303Y-42380513D01*
X18811997Y-42376937D01*
X18739898Y-42292520D01*
X18737435Y-42289440D01*
X18674705Y-42205643D01*
X18671488Y-42200903D01*
X18613073Y-42105580D01*
X18611535Y-42102922D01*
X18561805Y-42011847D01*
X18558939Y-42005856D01*
X18527949Y-41931041D01*
X18514983Y-41899737D01*
X18479051Y-41803401D01*
X18476860Y-41796225D01*
X18448899Y-41679760D01*
X18428274Y-41584947D01*
X18427049Y-41576644D01*
X18415489Y-41429755D01*
X18410657Y-41362207D01*
X18410500Y-41357787D01*
X18410500Y-32370000D01*
X20869341Y-32370000D01*
X20889936Y-32605403D01*
X20889938Y-32605413D01*
X20951094Y-32833655D01*
X20951096Y-32833659D01*
X20951097Y-32833663D01*
X21037987Y-33019999D01*
X21050965Y-33047830D01*
X21050967Y-33047834D01*
X21106896Y-33127708D01*
X21186501Y-33241396D01*
X21186506Y-33241402D01*
X21308430Y-33363326D01*
X21341915Y-33424649D01*
X21336931Y-33494341D01*
X21295059Y-33550274D01*
X21264083Y-33567189D01*
X21132669Y-33616203D01*
X21132664Y-33616206D01*
X21017455Y-33702452D01*
X21017452Y-33702455D01*
X20931206Y-33817664D01*
X20931202Y-33817671D01*
X20880908Y-33952517D01*
X20875530Y-34002544D01*
X20874501Y-34012123D01*
X20874500Y-34012135D01*
X20874500Y-35807870D01*
X20874501Y-35807876D01*
X20880908Y-35867483D01*
X20931202Y-36002328D01*
X20931206Y-36002335D01*
X21017452Y-36117544D01*
X21017455Y-36117547D01*
X21132664Y-36203793D01*
X21132671Y-36203797D01*
X21267517Y-36254091D01*
X21267516Y-36254091D01*
X21274444Y-36254835D01*
X21327127Y-36260500D01*
X23122872Y-36260499D01*
X23182483Y-36254091D01*
X23317331Y-36203796D01*
X23432546Y-36117546D01*
X23518796Y-36002331D01*
X23569091Y-35867483D01*
X23575500Y-35807873D01*
X23575499Y-34012128D01*
X23569091Y-33952517D01*
X23567097Y-33947172D01*
X23518797Y-33817671D01*
X23518793Y-33817664D01*
X23432547Y-33702455D01*
X23432544Y-33702452D01*
X23317335Y-33616206D01*
X23317328Y-33616202D01*
X23185917Y-33567189D01*
X23129983Y-33525318D01*
X23105566Y-33459853D01*
X23120418Y-33391580D01*
X23141563Y-33363332D01*
X23263495Y-33241401D01*
X23399035Y-33047830D01*
X23498903Y-32833663D01*
X23560063Y-32605408D01*
X23580659Y-32370000D01*
X23580035Y-32362873D01*
X23567240Y-32216621D01*
X23560063Y-32134592D01*
X23498903Y-31906337D01*
X23399035Y-31692171D01*
X23380112Y-31665145D01*
X23263494Y-31498597D01*
X23096402Y-31331506D01*
X23096395Y-31331501D01*
X22902834Y-31195967D01*
X22902830Y-31195965D01*
X22821049Y-31157830D01*
X22688663Y-31096097D01*
X22688659Y-31096096D01*
X22688655Y-31096094D01*
X22460413Y-31034938D01*
X22460403Y-31034936D01*
X22225001Y-31014341D01*
X22224999Y-31014341D01*
X21989596Y-31034936D01*
X21989586Y-31034938D01*
X21761344Y-31096094D01*
X21761335Y-31096098D01*
X21547171Y-31195964D01*
X21547169Y-31195965D01*
X21353597Y-31331505D01*
X21186505Y-31498597D01*
X21050965Y-31692169D01*
X21050964Y-31692171D01*
X20951098Y-31906335D01*
X20951094Y-31906344D01*
X20889938Y-32134586D01*
X20889936Y-32134596D01*
X20869341Y-32369999D01*
X20869341Y-32370000D01*
X18410500Y-32370000D01*
X18410500Y-25768001D01*
X48837500Y-25768001D01*
X48837501Y-25768019D01*
X48848000Y-25870796D01*
X48848001Y-25870799D01*
X48903185Y-26037331D01*
X48903187Y-26037336D01*
X48928050Y-26077646D01*
X48995288Y-26186656D01*
X49119344Y-26310712D01*
X49268666Y-26402814D01*
X49435203Y-26457999D01*
X49537991Y-26468500D01*
X50538008Y-26468499D01*
X50538016Y-26468498D01*
X50538019Y-26468498D01*
X50594302Y-26462748D01*
X50640797Y-26457999D01*
X50807334Y-26402814D01*
X50956656Y-26310712D01*
X51080712Y-26186656D01*
X51162663Y-26053790D01*
X51214609Y-26007067D01*
X51283572Y-25995844D01*
X51319712Y-26006094D01*
X51423205Y-26053357D01*
X51431543Y-26057165D01*
X51574000Y-26077647D01*
X51574003Y-26077647D01*
X53074000Y-26077647D01*
X53147654Y-26072379D01*
X53215927Y-26087231D01*
X53265332Y-26136636D01*
X53280500Y-26196063D01*
X53280500Y-29430151D01*
X53278775Y-29445768D01*
X53279061Y-29445795D01*
X53278326Y-29453561D01*
X53280500Y-29522710D01*
X53280500Y-29552239D01*
X53280501Y-29552256D01*
X53281368Y-29559127D01*
X53281826Y-29564946D01*
X53283290Y-29611520D01*
X53283291Y-29611523D01*
X53288880Y-29630763D01*
X53292824Y-29649807D01*
X53295336Y-29669688D01*
X53302773Y-29688472D01*
X53312490Y-29713015D01*
X53314382Y-29718543D01*
X53319855Y-29737381D01*
X53327382Y-29763286D01*
X53333820Y-29774173D01*
X53337580Y-29780530D01*
X53346138Y-29797999D01*
X53353514Y-29816628D01*
X53380898Y-29854319D01*
X53384106Y-29859203D01*
X53407827Y-29899312D01*
X53407833Y-29899320D01*
X53421990Y-29913476D01*
X53434627Y-29928271D01*
X53446406Y-29944483D01*
X53465112Y-29959958D01*
X53504218Y-30017856D01*
X53505814Y-30087707D01*
X53469393Y-30147333D01*
X53406517Y-30177803D01*
X53386070Y-30179500D01*
X52683348Y-30179500D01*
X52616309Y-30159815D01*
X52577809Y-30120597D01*
X52502712Y-29998844D01*
X52378656Y-29874788D01*
X52281724Y-29815000D01*
X52229336Y-29782687D01*
X52229331Y-29782685D01*
X52222828Y-29780530D01*
X52062797Y-29727501D01*
X52062795Y-29727500D01*
X51960010Y-29717000D01*
X50909998Y-29717000D01*
X50909980Y-29717001D01*
X50807203Y-29727500D01*
X50807200Y-29727501D01*
X50640668Y-29782685D01*
X50640663Y-29782687D01*
X50491342Y-29874789D01*
X50367289Y-29998842D01*
X50275187Y-30148163D01*
X50275185Y-30148168D01*
X50273366Y-30153657D01*
X50220001Y-30314703D01*
X50220001Y-30314704D01*
X50220000Y-30314704D01*
X50209500Y-30417483D01*
X50209500Y-31192501D01*
X50209501Y-31192519D01*
X50220000Y-31295296D01*
X50220001Y-31295299D01*
X50264393Y-31429264D01*
X50275186Y-31461834D01*
X50367288Y-31611156D01*
X50491344Y-31735212D01*
X50640666Y-31827314D01*
X50807203Y-31882499D01*
X50909991Y-31893000D01*
X51960008Y-31892999D01*
X51960016Y-31892998D01*
X51960019Y-31892998D01*
X52016302Y-31887248D01*
X52062797Y-31882499D01*
X52229334Y-31827314D01*
X52312142Y-31776237D01*
X52379533Y-31757797D01*
X52446197Y-31778719D01*
X52490966Y-31832361D01*
X52495169Y-31843458D01*
X52512818Y-31897777D01*
X52512821Y-31897784D01*
X52607467Y-32061716D01*
X52685697Y-32148599D01*
X52734129Y-32202388D01*
X52887265Y-32313648D01*
X52887270Y-32313651D01*
X53063402Y-32392071D01*
X53116639Y-32437321D01*
X53136960Y-32504170D01*
X53117915Y-32571394D01*
X53073348Y-32610758D01*
X53074589Y-32612907D01*
X53068961Y-32616155D01*
X52915825Y-32727415D01*
X52789162Y-32868089D01*
X52694517Y-33032019D01*
X52694514Y-33032026D01*
X52636023Y-33212044D01*
X52636022Y-33212048D01*
X52616236Y-33400304D01*
X52636022Y-33588560D01*
X52636023Y-33588563D01*
X52694514Y-33768581D01*
X52694517Y-33768588D01*
X52789163Y-33932520D01*
X52796863Y-33941071D01*
X52797931Y-33942258D01*
X52828160Y-34005250D01*
X52819534Y-34074585D01*
X52813168Y-34087228D01*
X52766820Y-34167505D01*
X52719591Y-34312864D01*
X52708326Y-34347534D01*
X52688540Y-34535790D01*
X52708326Y-34724046D01*
X52708327Y-34724049D01*
X52766818Y-34904067D01*
X52766821Y-34904074D01*
X52861467Y-35068006D01*
X52988128Y-35208677D01*
X52988129Y-35208678D01*
X53141265Y-35319938D01*
X53141270Y-35319941D01*
X53314192Y-35396932D01*
X53314197Y-35396934D01*
X53499354Y-35436290D01*
X53499355Y-35436290D01*
X53688644Y-35436290D01*
X53688646Y-35436290D01*
X53873803Y-35396934D01*
X54046730Y-35319941D01*
X54199871Y-35208678D01*
X54326533Y-35068006D01*
X54421179Y-34904074D01*
X54446529Y-34826054D01*
X54485966Y-34768380D01*
X54550325Y-34741181D01*
X54607791Y-34748190D01*
X54637017Y-34759091D01*
X54696627Y-34765500D01*
X56267372Y-34765499D01*
X56326983Y-34759091D01*
X56461831Y-34708796D01*
X56577046Y-34622546D01*
X56663296Y-34507331D01*
X56713591Y-34372483D01*
X56720000Y-34312873D01*
X56719999Y-34133765D01*
X56739683Y-34066727D01*
X56792487Y-34020972D01*
X56843999Y-34009766D01*
X56911049Y-34009766D01*
X56911051Y-34009766D01*
X57096208Y-33970410D01*
X57269135Y-33893417D01*
X57422276Y-33782154D01*
X57548938Y-33641482D01*
X57643584Y-33477550D01*
X57702079Y-33297522D01*
X57721865Y-33109266D01*
X57702079Y-32921010D01*
X57643584Y-32740982D01*
X57548938Y-32577050D01*
X57422276Y-32436378D01*
X57422275Y-32436377D01*
X57269139Y-32325117D01*
X57269134Y-32325114D01*
X57096212Y-32248123D01*
X57096207Y-32248121D01*
X56948006Y-32216621D01*
X56911051Y-32208766D01*
X56911050Y-32208766D01*
X56843999Y-32208766D01*
X56776960Y-32189081D01*
X56731205Y-32136277D01*
X56719999Y-32084766D01*
X56719999Y-31817129D01*
X56719998Y-31817123D01*
X56717391Y-31792873D01*
X56713591Y-31757517D01*
X56711438Y-31751745D01*
X56663297Y-31622671D01*
X56663295Y-31622668D01*
X56647006Y-31600909D01*
X56582178Y-31514309D01*
X56557761Y-31448848D01*
X56572612Y-31380574D01*
X56582173Y-31365696D01*
X56663296Y-31257331D01*
X56713591Y-31122483D01*
X56720000Y-31062873D01*
X56719999Y-30517128D01*
X56719998Y-30517111D01*
X56715820Y-30478253D01*
X56715820Y-30451747D01*
X56720000Y-30412873D01*
X56719999Y-29867128D01*
X56719998Y-29867111D01*
X56715820Y-29828253D01*
X56715820Y-29801747D01*
X56720000Y-29762873D01*
X56719999Y-29589499D01*
X56739683Y-29522461D01*
X56792487Y-29476706D01*
X56843999Y-29465500D01*
X58695794Y-29465500D01*
X58762833Y-29485185D01*
X58808588Y-29537989D01*
X58818532Y-29607147D01*
X58813726Y-29627812D01*
X58812771Y-29630754D01*
X58804326Y-29656742D01*
X58801289Y-29685642D01*
X58784540Y-29845000D01*
X58804326Y-30033256D01*
X58804327Y-30033259D01*
X58862818Y-30213277D01*
X58862821Y-30213284D01*
X58957467Y-30377216D01*
X59065458Y-30497152D01*
X59084129Y-30517888D01*
X59237265Y-30629148D01*
X59237270Y-30629151D01*
X59416134Y-30708788D01*
X59415448Y-30710328D01*
X59456218Y-30735308D01*
X59894694Y-31173784D01*
X59904519Y-31186048D01*
X59904740Y-31185866D01*
X59909710Y-31191873D01*
X59909713Y-31191876D01*
X59909714Y-31191877D01*
X59960151Y-31239241D01*
X59981030Y-31260120D01*
X59986504Y-31264366D01*
X59990942Y-31268156D01*
X60024918Y-31300062D01*
X60024922Y-31300064D01*
X60042473Y-31309713D01*
X60058725Y-31320388D01*
X60072001Y-31330686D01*
X60112907Y-31387327D01*
X60120000Y-31428664D01*
X60120000Y-31712868D01*
X60120001Y-31712878D01*
X60124179Y-31751745D01*
X60124179Y-31778251D01*
X60120000Y-31817123D01*
X60120000Y-32113548D01*
X60100315Y-32180587D01*
X60059123Y-32220278D01*
X60027314Y-32239091D01*
X60022683Y-32241830D01*
X60008512Y-32256000D01*
X59993727Y-32268628D01*
X59977516Y-32280407D01*
X59947813Y-32316310D01*
X59943881Y-32320631D01*
X59461708Y-32802803D01*
X59449451Y-32812624D01*
X59449634Y-32812845D01*
X59443623Y-32817817D01*
X59396272Y-32868240D01*
X59375389Y-32889123D01*
X59375377Y-32889136D01*
X59371121Y-32894621D01*
X59367337Y-32899051D01*
X59335437Y-32933022D01*
X59335436Y-32933024D01*
X59325784Y-32950580D01*
X59315110Y-32966830D01*
X59302829Y-32982665D01*
X59302824Y-32982672D01*
X59284315Y-33025442D01*
X59281745Y-33030688D01*
X59259303Y-33071510D01*
X59254322Y-33090911D01*
X59248021Y-33109314D01*
X59240062Y-33127706D01*
X59240061Y-33127709D01*
X59232771Y-33173731D01*
X59231587Y-33179450D01*
X59220001Y-33224576D01*
X59220000Y-33224586D01*
X59220000Y-33244620D01*
X59218473Y-33264017D01*
X59215340Y-33283800D01*
X59219331Y-33326019D01*
X59219725Y-33330187D01*
X59220000Y-33336025D01*
X59220000Y-36999046D01*
X59200315Y-37066085D01*
X59183681Y-37086727D01*
X56287375Y-39983034D01*
X56226052Y-40016519D01*
X56199694Y-40019353D01*
X56015000Y-40019353D01*
X55943039Y-40024499D01*
X55943034Y-40024500D01*
X55804949Y-40065045D01*
X55683873Y-40142856D01*
X55589623Y-40251626D01*
X55589622Y-40251628D01*
X55529834Y-40382543D01*
X55509353Y-40525000D01*
X55509353Y-41341862D01*
X55489668Y-41408901D01*
X55475744Y-41426747D01*
X55430772Y-41474636D01*
X55409889Y-41495519D01*
X55409877Y-41495532D01*
X55405621Y-41501017D01*
X55401837Y-41505447D01*
X55369937Y-41539418D01*
X55369936Y-41539420D01*
X55360284Y-41556976D01*
X55349610Y-41573226D01*
X55337329Y-41589061D01*
X55337324Y-41589068D01*
X55318815Y-41631838D01*
X55316245Y-41637084D01*
X55293803Y-41677906D01*
X55288822Y-41697307D01*
X55282521Y-41715710D01*
X55274562Y-41734102D01*
X55274561Y-41734105D01*
X55267271Y-41780127D01*
X55266087Y-41785846D01*
X55254501Y-41830972D01*
X55254500Y-41830982D01*
X55254500Y-41851016D01*
X55252973Y-41870415D01*
X55249840Y-41890194D01*
X55249840Y-41890195D01*
X55254225Y-41936583D01*
X55254500Y-41942421D01*
X55254500Y-43381534D01*
X55234815Y-43448573D01*
X55204812Y-43480800D01*
X55122452Y-43542455D01*
X55036206Y-43657664D01*
X55036202Y-43657671D01*
X54985908Y-43792517D01*
X54979501Y-43852116D01*
X54979501Y-43852123D01*
X54979500Y-43852135D01*
X54979500Y-45047870D01*
X54979501Y-45047876D01*
X54985908Y-45107483D01*
X55036202Y-45242328D01*
X55036206Y-45242335D01*
X55122452Y-45357544D01*
X55122455Y-45357547D01*
X55237664Y-45443793D01*
X55237671Y-45443797D01*
X55372517Y-45494091D01*
X55372516Y-45494091D01*
X55379444Y-45494835D01*
X55432127Y-45500500D01*
X56327872Y-45500499D01*
X56387483Y-45494091D01*
X56486669Y-45457096D01*
X56556358Y-45452113D01*
X56573319Y-45457092D01*
X56672517Y-45494091D01*
X56732127Y-45500500D01*
X58827872Y-45500499D01*
X58887483Y-45494091D01*
X59022331Y-45443796D01*
X59137546Y-45357546D01*
X59223796Y-45242331D01*
X59274091Y-45107483D01*
X59280500Y-45047873D01*
X59280499Y-43852128D01*
X59274091Y-43792517D01*
X59253416Y-43737085D01*
X59223797Y-43657671D01*
X59223793Y-43657664D01*
X59137547Y-43542455D01*
X59137544Y-43542452D01*
X59022335Y-43456206D01*
X59022328Y-43456202D01*
X58887482Y-43405908D01*
X58887483Y-43405908D01*
X58827883Y-43399501D01*
X58827881Y-43399500D01*
X58827873Y-43399500D01*
X58827865Y-43399500D01*
X58529500Y-43399500D01*
X58462461Y-43379815D01*
X58416706Y-43327011D01*
X58411702Y-43304007D01*
X61498671Y-43304007D01*
X61517964Y-43598363D01*
X61517965Y-43598373D01*
X61517966Y-43598380D01*
X61572663Y-43873366D01*
X61575518Y-43887716D01*
X61575521Y-43887730D01*
X61670349Y-44167080D01*
X61800825Y-44431660D01*
X61800829Y-44431667D01*
X61964725Y-44676955D01*
X62159241Y-44898758D01*
X62381044Y-45093274D01*
X62604119Y-45242328D01*
X62626335Y-45257172D01*
X62890923Y-45387652D01*
X63170278Y-45482481D01*
X63459620Y-45540034D01*
X63479057Y-45541308D01*
X63753993Y-45559329D01*
X63754000Y-45559329D01*
X63754007Y-45559329D01*
X63989675Y-45543881D01*
X64048380Y-45540034D01*
X64337722Y-45482481D01*
X64617077Y-45387652D01*
X64774528Y-45310006D01*
X79454700Y-45310006D01*
X79473864Y-45541297D01*
X79473866Y-45541308D01*
X79530842Y-45766300D01*
X79624075Y-45978848D01*
X79751016Y-46173147D01*
X79751019Y-46173151D01*
X79751021Y-46173153D01*
X79908216Y-46343913D01*
X79908219Y-46343915D01*
X79908222Y-46343918D01*
X80091365Y-46486464D01*
X80091371Y-46486468D01*
X80091374Y-46486470D01*
X80295497Y-46596936D01*
X80364693Y-46620691D01*
X80515015Y-46672297D01*
X80515017Y-46672297D01*
X80515019Y-46672298D01*
X80743951Y-46710500D01*
X80743952Y-46710500D01*
X80976048Y-46710500D01*
X80976049Y-46710500D01*
X81204981Y-46672298D01*
X81424503Y-46596936D01*
X81628626Y-46486470D01*
X81811784Y-46343913D01*
X81968979Y-46173153D01*
X82095924Y-45978849D01*
X82189157Y-45766300D01*
X82246134Y-45541305D01*
X82246135Y-45541297D01*
X82265300Y-45310006D01*
X82265300Y-45309993D01*
X82246135Y-45078702D01*
X82246133Y-45078691D01*
X82189157Y-44853699D01*
X82095924Y-44641151D01*
X81968983Y-44446852D01*
X81968980Y-44446849D01*
X81968979Y-44446847D01*
X81811784Y-44276087D01*
X81811779Y-44276083D01*
X81811777Y-44276081D01*
X81628634Y-44133535D01*
X81628628Y-44133531D01*
X81424504Y-44023064D01*
X81424495Y-44023061D01*
X81204984Y-43947702D01*
X81024458Y-43917578D01*
X80976049Y-43909500D01*
X80743951Y-43909500D01*
X80698164Y-43917140D01*
X80515015Y-43947702D01*
X80295504Y-44023061D01*
X80295495Y-44023064D01*
X80091371Y-44133531D01*
X80091365Y-44133535D01*
X79908222Y-44276081D01*
X79908219Y-44276084D01*
X79751016Y-44446852D01*
X79624075Y-44641151D01*
X79530842Y-44853699D01*
X79473866Y-45078691D01*
X79473864Y-45078702D01*
X79454700Y-45309993D01*
X79454700Y-45310006D01*
X64774528Y-45310006D01*
X64881665Y-45257172D01*
X65126957Y-45093273D01*
X65348758Y-44898758D01*
X65543273Y-44676957D01*
X65707172Y-44431665D01*
X65837652Y-44167077D01*
X65932481Y-43887722D01*
X65990034Y-43598380D01*
X65999203Y-43458487D01*
X66009329Y-43304007D01*
X66009329Y-43303992D01*
X65990515Y-43016961D01*
X65990034Y-43009620D01*
X65932481Y-42720278D01*
X65837652Y-42440923D01*
X65707172Y-42176336D01*
X65701239Y-42167457D01*
X65606053Y-42025000D01*
X65543273Y-41931043D01*
X65500655Y-41882447D01*
X65348758Y-41709241D01*
X65126955Y-41514725D01*
X64881667Y-41350829D01*
X64881660Y-41350825D01*
X64617080Y-41220349D01*
X64337730Y-41125521D01*
X64337724Y-41125519D01*
X64337722Y-41125519D01*
X64048380Y-41067966D01*
X64048373Y-41067965D01*
X64048363Y-41067964D01*
X63754007Y-41048671D01*
X63753993Y-41048671D01*
X63459636Y-41067964D01*
X63459624Y-41067965D01*
X63459620Y-41067966D01*
X63459612Y-41067967D01*
X63459609Y-41067968D01*
X63170283Y-41125518D01*
X63170269Y-41125521D01*
X62890919Y-41220349D01*
X62626334Y-41350828D01*
X62381041Y-41514728D01*
X62159241Y-41709241D01*
X61964728Y-41931041D01*
X61800828Y-42176334D01*
X61670349Y-42440919D01*
X61575521Y-42720269D01*
X61575518Y-42720283D01*
X61517968Y-43009609D01*
X61517964Y-43009636D01*
X61498671Y-43303992D01*
X61498671Y-43304007D01*
X58411702Y-43304007D01*
X58405500Y-43275500D01*
X58405500Y-42650350D01*
X58425185Y-42583311D01*
X58477989Y-42537556D01*
X58520656Y-42526666D01*
X58536961Y-42525500D01*
X58536963Y-42525499D01*
X58536965Y-42525499D01*
X58675050Y-42484954D01*
X58675050Y-42484953D01*
X58675053Y-42484953D01*
X58796128Y-42407143D01*
X58890377Y-42298373D01*
X58950165Y-42167457D01*
X58970647Y-42025000D01*
X58970647Y-40525000D01*
X58965500Y-40453039D01*
X58924953Y-40314947D01*
X58847143Y-40193872D01*
X58752228Y-40111628D01*
X58714454Y-40052850D01*
X58714454Y-39982980D01*
X58745748Y-39930236D01*
X59750983Y-38925001D01*
X65337500Y-38925001D01*
X65337501Y-38925019D01*
X65348000Y-39027796D01*
X65348001Y-39027799D01*
X65403185Y-39194331D01*
X65403186Y-39194334D01*
X65495288Y-39343656D01*
X65619344Y-39467712D01*
X65768666Y-39559814D01*
X65935203Y-39614999D01*
X66037991Y-39625500D01*
X66838008Y-39625499D01*
X66838016Y-39625498D01*
X66838019Y-39625498D01*
X66894302Y-39619748D01*
X66940797Y-39614999D01*
X67107334Y-39559814D01*
X67256656Y-39467712D01*
X67350318Y-39374049D01*
X67411642Y-39340564D01*
X67481334Y-39345548D01*
X67525681Y-39374049D01*
X67619344Y-39467712D01*
X67768666Y-39559814D01*
X67935203Y-39614999D01*
X68037991Y-39625500D01*
X68838008Y-39625499D01*
X68838016Y-39625498D01*
X68838019Y-39625498D01*
X68894302Y-39619748D01*
X68940797Y-39614999D01*
X69107334Y-39559814D01*
X69256656Y-39467712D01*
X69380712Y-39343656D01*
X69472814Y-39194334D01*
X69527999Y-39027797D01*
X69538500Y-38925009D01*
X69538499Y-38260450D01*
X69558183Y-38193412D01*
X69574813Y-38172775D01*
X70233786Y-37513802D01*
X70246048Y-37503980D01*
X70245865Y-37503759D01*
X70251867Y-37498792D01*
X70251877Y-37498786D01*
X70299241Y-37448348D01*
X70320120Y-37427470D01*
X70324373Y-37421986D01*
X70328150Y-37417563D01*
X70360062Y-37383582D01*
X70369714Y-37366023D01*
X70380389Y-37349772D01*
X70392674Y-37333936D01*
X70411186Y-37291152D01*
X70413742Y-37285935D01*
X70436197Y-37245092D01*
X70441180Y-37225680D01*
X70447477Y-37207291D01*
X70455438Y-37188895D01*
X70462729Y-37142853D01*
X70463908Y-37137162D01*
X70475500Y-37092019D01*
X70475500Y-37071982D01*
X70477027Y-37052582D01*
X70480160Y-37032804D01*
X70475775Y-36986415D01*
X70475500Y-36980577D01*
X70475500Y-34039742D01*
X70477224Y-34024122D01*
X70476939Y-34024095D01*
X70477673Y-34016333D01*
X70475500Y-33947172D01*
X70475500Y-33917656D01*
X70475500Y-33917650D01*
X70474631Y-33910779D01*
X70474173Y-33904952D01*
X70472710Y-33858373D01*
X70467119Y-33839130D01*
X70463173Y-33820078D01*
X70460664Y-33800208D01*
X70443504Y-33756867D01*
X70441624Y-33751379D01*
X70428618Y-33706610D01*
X70420493Y-33692872D01*
X70418423Y-33689371D01*
X70409861Y-33671894D01*
X70402487Y-33653270D01*
X70402486Y-33653268D01*
X70375079Y-33615545D01*
X70371888Y-33610686D01*
X70348172Y-33570583D01*
X70348165Y-33570574D01*
X70334006Y-33556415D01*
X70321368Y-33541619D01*
X70309594Y-33525413D01*
X70309479Y-33525318D01*
X70273688Y-33495709D01*
X70269376Y-33491786D01*
X70224817Y-33447227D01*
X70191333Y-33385905D01*
X70188499Y-33359547D01*
X70188499Y-33020000D01*
X83734341Y-33020000D01*
X83754936Y-33255403D01*
X83754938Y-33255413D01*
X83816094Y-33483655D01*
X83816096Y-33483659D01*
X83816097Y-33483663D01*
X83913649Y-33692864D01*
X83915965Y-33697830D01*
X83915967Y-33697834D01*
X84001558Y-33820069D01*
X84051505Y-33891401D01*
X84218599Y-34058495D01*
X84270087Y-34094547D01*
X84412165Y-34194032D01*
X84412167Y-34194033D01*
X84412170Y-34194035D01*
X84626337Y-34293903D01*
X84854592Y-34355063D01*
X85042918Y-34371539D01*
X85089999Y-34375659D01*
X85090000Y-34375659D01*
X85090001Y-34375659D01*
X85129234Y-34372226D01*
X85325408Y-34355063D01*
X85553663Y-34293903D01*
X85767830Y-34194035D01*
X85961401Y-34058495D01*
X86128495Y-33891401D01*
X86264035Y-33697830D01*
X86363903Y-33483663D01*
X86425063Y-33255408D01*
X86445659Y-33020000D01*
X86443657Y-32997123D01*
X86438443Y-32937518D01*
X86425063Y-32784592D01*
X86369453Y-32577050D01*
X86363905Y-32556344D01*
X86363904Y-32556343D01*
X86363903Y-32556337D01*
X86264035Y-32342171D01*
X86252093Y-32325115D01*
X86128494Y-32148597D01*
X85961402Y-31981506D01*
X85961396Y-31981501D01*
X85775842Y-31851575D01*
X85732217Y-31796998D01*
X85725023Y-31727500D01*
X85756546Y-31665145D01*
X85775842Y-31648425D01*
X85829066Y-31611157D01*
X85961401Y-31518495D01*
X86128495Y-31351401D01*
X86264035Y-31157830D01*
X86363903Y-30943663D01*
X86425063Y-30715408D01*
X86445659Y-30480000D01*
X86425063Y-30244592D01*
X86363903Y-30016337D01*
X86264035Y-29802171D01*
X86258016Y-29793574D01*
X86128494Y-29608597D01*
X85961402Y-29441506D01*
X85961396Y-29441501D01*
X85775842Y-29311575D01*
X85732217Y-29256998D01*
X85725023Y-29187500D01*
X85756546Y-29125145D01*
X85775842Y-29108425D01*
X85798026Y-29092891D01*
X85961401Y-28978495D01*
X86128495Y-28811401D01*
X86264035Y-28617830D01*
X86363903Y-28403663D01*
X86425063Y-28175408D01*
X86445659Y-27940000D01*
X86425063Y-27704592D01*
X86363903Y-27476337D01*
X86264035Y-27262171D01*
X86203224Y-27175324D01*
X86128496Y-27068600D01*
X86128495Y-27068599D01*
X86006567Y-26946671D01*
X85973084Y-26885351D01*
X85978068Y-26815659D01*
X86019939Y-26759725D01*
X86050915Y-26742810D01*
X86182331Y-26693796D01*
X86297546Y-26607546D01*
X86383796Y-26492331D01*
X86434091Y-26357483D01*
X86440500Y-26297873D01*
X86440499Y-24502128D01*
X86434091Y-24442517D01*
X86433396Y-24440654D01*
X86383797Y-24307671D01*
X86383793Y-24307664D01*
X86297547Y-24192455D01*
X86297544Y-24192452D01*
X86182335Y-24106206D01*
X86182328Y-24106202D01*
X86047482Y-24055908D01*
X86047483Y-24055908D01*
X85987883Y-24049501D01*
X85987881Y-24049500D01*
X85987873Y-24049500D01*
X85987864Y-24049500D01*
X84192129Y-24049500D01*
X84192123Y-24049501D01*
X84132516Y-24055908D01*
X83997671Y-24106202D01*
X83997664Y-24106206D01*
X83882455Y-24192452D01*
X83882452Y-24192455D01*
X83796206Y-24307664D01*
X83796202Y-24307671D01*
X83745908Y-24442517D01*
X83739501Y-24502116D01*
X83739501Y-24502123D01*
X83739500Y-24502135D01*
X83739500Y-26297870D01*
X83739501Y-26297876D01*
X83745908Y-26357483D01*
X83796202Y-26492328D01*
X83796206Y-26492335D01*
X83882452Y-26607544D01*
X83882455Y-26607547D01*
X83997664Y-26693793D01*
X83997671Y-26693797D01*
X84129081Y-26742810D01*
X84185015Y-26784681D01*
X84209432Y-26850145D01*
X84194580Y-26918418D01*
X84173430Y-26946673D01*
X84051503Y-27068600D01*
X83915965Y-27262169D01*
X83915964Y-27262171D01*
X83816098Y-27476335D01*
X83816094Y-27476344D01*
X83754938Y-27704586D01*
X83754936Y-27704596D01*
X83734341Y-27939999D01*
X83734341Y-27940000D01*
X83754936Y-28175403D01*
X83754938Y-28175413D01*
X83816094Y-28403655D01*
X83816096Y-28403659D01*
X83816097Y-28403663D01*
X83899350Y-28582200D01*
X83915965Y-28617830D01*
X83915967Y-28617834D01*
X84051501Y-28811395D01*
X84051506Y-28811402D01*
X84218597Y-28978493D01*
X84218603Y-28978498D01*
X84404158Y-29108425D01*
X84447783Y-29163002D01*
X84454977Y-29232500D01*
X84423454Y-29294855D01*
X84404158Y-29311575D01*
X84218597Y-29441505D01*
X84051505Y-29608597D01*
X83915965Y-29802169D01*
X83915964Y-29802171D01*
X83816098Y-30016335D01*
X83816094Y-30016344D01*
X83754938Y-30244586D01*
X83754936Y-30244596D01*
X83734341Y-30479999D01*
X83734341Y-30480000D01*
X83754936Y-30715403D01*
X83754938Y-30715413D01*
X83816094Y-30943655D01*
X83816096Y-30943659D01*
X83816097Y-30943663D01*
X83887179Y-31096098D01*
X83915965Y-31157830D01*
X83915967Y-31157834D01*
X84051501Y-31351395D01*
X84051506Y-31351402D01*
X84218597Y-31518493D01*
X84218603Y-31518498D01*
X84404158Y-31648425D01*
X84447783Y-31703002D01*
X84454977Y-31772500D01*
X84423454Y-31834855D01*
X84404158Y-31851575D01*
X84218597Y-31981505D01*
X84051505Y-32148597D01*
X83915965Y-32342169D01*
X83915964Y-32342171D01*
X83816098Y-32556335D01*
X83816094Y-32556344D01*
X83754938Y-32784586D01*
X83754936Y-32784596D01*
X83734341Y-33019999D01*
X83734341Y-33020000D01*
X70188499Y-33020000D01*
X70188499Y-32997129D01*
X70188498Y-32997123D01*
X70188056Y-32993012D01*
X70182091Y-32937517D01*
X70173070Y-32913333D01*
X70168085Y-32843644D01*
X70173066Y-32826677D01*
X70182091Y-32802483D01*
X70188500Y-32742873D01*
X70188499Y-32047128D01*
X70182091Y-31987517D01*
X70179847Y-31981501D01*
X70131797Y-31852671D01*
X70131793Y-31852664D01*
X70045547Y-31737455D01*
X70045544Y-31737452D01*
X69930335Y-31651206D01*
X69930328Y-31651202D01*
X69795482Y-31600908D01*
X69795483Y-31600908D01*
X69735883Y-31594501D01*
X69735881Y-31594500D01*
X69735873Y-31594500D01*
X69735864Y-31594500D01*
X68740129Y-31594500D01*
X68740123Y-31594501D01*
X68680516Y-31600908D01*
X68545671Y-31651202D01*
X68545664Y-31651206D01*
X68430455Y-31737452D01*
X68430452Y-31737455D01*
X68344206Y-31852664D01*
X68344202Y-31852671D01*
X68293910Y-31987513D01*
X68293909Y-31987517D01*
X68287500Y-32047127D01*
X68287500Y-32047134D01*
X68287500Y-32047135D01*
X68287500Y-32742870D01*
X68287501Y-32742876D01*
X68293909Y-32802484D01*
X68302929Y-32826670D01*
X68307911Y-32896361D01*
X68302929Y-32913330D01*
X68293910Y-32937512D01*
X68293910Y-32937513D01*
X68293909Y-32937517D01*
X68287500Y-32997127D01*
X68287500Y-32997134D01*
X68287500Y-32997135D01*
X68287500Y-33692870D01*
X68287501Y-33692876D01*
X68293908Y-33752483D01*
X68344202Y-33887328D01*
X68344206Y-33887335D01*
X68430452Y-34002544D01*
X68430455Y-34002547D01*
X68545664Y-34088793D01*
X68545671Y-34088797D01*
X68560592Y-34094362D01*
X68680517Y-34139091D01*
X68740127Y-34145500D01*
X69100500Y-34145499D01*
X69167539Y-34165183D01*
X69213294Y-34217987D01*
X69224500Y-34269499D01*
X69224500Y-36702547D01*
X69204815Y-36769586D01*
X69188181Y-36790228D01*
X68790227Y-37188181D01*
X68728904Y-37221666D01*
X68702546Y-37224500D01*
X68037998Y-37224500D01*
X68037980Y-37224501D01*
X67935203Y-37235000D01*
X67935200Y-37235001D01*
X67768668Y-37290185D01*
X67768663Y-37290187D01*
X67619345Y-37382287D01*
X67525680Y-37475952D01*
X67464356Y-37509436D01*
X67394665Y-37504452D01*
X67350322Y-37475954D01*
X67256656Y-37382288D01*
X67122402Y-37299480D01*
X67075679Y-37247533D01*
X67063500Y-37193942D01*
X67063500Y-37133347D01*
X67083185Y-37066308D01*
X67122401Y-37027810D01*
X67244156Y-36952712D01*
X67368212Y-36828656D01*
X67460314Y-36679334D01*
X67515499Y-36512797D01*
X67526000Y-36410009D01*
X67525999Y-35359992D01*
X67521907Y-35319938D01*
X67515499Y-35257203D01*
X67515498Y-35257200D01*
X67499419Y-35208678D01*
X67460314Y-35090666D01*
X67368212Y-34941344D01*
X67244156Y-34817288D01*
X67122402Y-34742190D01*
X67075679Y-34690243D01*
X67063500Y-34636652D01*
X67063500Y-34198861D01*
X67083185Y-34131822D01*
X67123418Y-34094362D01*
X67123231Y-34094112D01*
X67125565Y-34092364D01*
X67128076Y-34090027D01*
X67130323Y-34088798D01*
X67130331Y-34088796D01*
X67245546Y-34002546D01*
X67331796Y-33887331D01*
X67382091Y-33752483D01*
X67388500Y-33692873D01*
X67388499Y-32997128D01*
X67382091Y-32937517D01*
X67382089Y-32937512D01*
X67331797Y-32802671D01*
X67331793Y-32802664D01*
X67245547Y-32687455D01*
X67245544Y-32687452D01*
X67130335Y-32601206D01*
X67130328Y-32601202D01*
X66995482Y-32550908D01*
X66995483Y-32550908D01*
X66935883Y-32544501D01*
X66935881Y-32544500D01*
X66935873Y-32544500D01*
X66935864Y-32544500D01*
X65940129Y-32544500D01*
X65940123Y-32544501D01*
X65880516Y-32550908D01*
X65745671Y-32601202D01*
X65745664Y-32601206D01*
X65630455Y-32687452D01*
X65630452Y-32687455D01*
X65544206Y-32802664D01*
X65544202Y-32802671D01*
X65493910Y-32937513D01*
X65493909Y-32937517D01*
X65487500Y-32997127D01*
X65487500Y-32997134D01*
X65487500Y-32997135D01*
X65487500Y-33692870D01*
X65487501Y-33692876D01*
X65493908Y-33752483D01*
X65544202Y-33887328D01*
X65544206Y-33887335D01*
X65630452Y-34002544D01*
X65630455Y-34002547D01*
X65745662Y-34088792D01*
X65747919Y-34090024D01*
X65749738Y-34091843D01*
X65752769Y-34094112D01*
X65752443Y-34094547D01*
X65797328Y-34139426D01*
X65812499Y-34198860D01*
X65812499Y-34636652D01*
X65792814Y-34703691D01*
X65753596Y-34742191D01*
X65631842Y-34817289D01*
X65507789Y-34941342D01*
X65415687Y-35090663D01*
X65415685Y-35090666D01*
X65415686Y-35090666D01*
X65360501Y-35257203D01*
X65360501Y-35257204D01*
X65360500Y-35257204D01*
X65350000Y-35359983D01*
X65350000Y-36410001D01*
X65350001Y-36410019D01*
X65360500Y-36512796D01*
X65360501Y-36512799D01*
X65415685Y-36679331D01*
X65415687Y-36679336D01*
X65507789Y-36828657D01*
X65631844Y-36952712D01*
X65753595Y-37027808D01*
X65800320Y-37079756D01*
X65812499Y-37133347D01*
X65812499Y-37193942D01*
X65792814Y-37260981D01*
X65753596Y-37299481D01*
X65619342Y-37382289D01*
X65495289Y-37506342D01*
X65403187Y-37655663D01*
X65403185Y-37655668D01*
X65391752Y-37690170D01*
X65348001Y-37822203D01*
X65348001Y-37822204D01*
X65348000Y-37822204D01*
X65337500Y-37924983D01*
X65337500Y-38925001D01*
X59750983Y-38925001D01*
X60679286Y-37996698D01*
X60691548Y-37986876D01*
X60691365Y-37986655D01*
X60697367Y-37981688D01*
X60697377Y-37981682D01*
X60744741Y-37931244D01*
X60765620Y-37910366D01*
X60769873Y-37904882D01*
X60773650Y-37900459D01*
X60805562Y-37866478D01*
X60815214Y-37848919D01*
X60825889Y-37832668D01*
X60838174Y-37816832D01*
X60856686Y-37774048D01*
X60859242Y-37768831D01*
X60881697Y-37727988D01*
X60886680Y-37708576D01*
X60892977Y-37690187D01*
X60900938Y-37671791D01*
X60908229Y-37625749D01*
X60909408Y-37620058D01*
X60921000Y-37574915D01*
X60921000Y-37554878D01*
X60922527Y-37535478D01*
X60925660Y-37515699D01*
X60925660Y-37515696D01*
X60924061Y-37498786D01*
X60921272Y-37469290D01*
X60920999Y-37463495D01*
X60920999Y-34889498D01*
X60940684Y-34822460D01*
X60993488Y-34776705D01*
X61044999Y-34765499D01*
X62143371Y-34765499D01*
X62143372Y-34765499D01*
X62202983Y-34759091D01*
X62337831Y-34708796D01*
X62453046Y-34622546D01*
X62453047Y-34622544D01*
X62453049Y-34622543D01*
X62459318Y-34616275D01*
X62460681Y-34617638D01*
X62483951Y-34597407D01*
X62483708Y-34597073D01*
X62487534Y-34594292D01*
X62488911Y-34593096D01*
X62490011Y-34592489D01*
X62490022Y-34592486D01*
X62527739Y-34565082D01*
X62532595Y-34561892D01*
X62572710Y-34538170D01*
X62586879Y-34523999D01*
X62601669Y-34511368D01*
X62617877Y-34499594D01*
X62647589Y-34463676D01*
X62651492Y-34459386D01*
X62812772Y-34298107D01*
X62874095Y-34264624D01*
X62900452Y-34261790D01*
X62959644Y-34261790D01*
X62959646Y-34261790D01*
X63144803Y-34222434D01*
X63317730Y-34145441D01*
X63470871Y-34034178D01*
X63597533Y-33893506D01*
X63692179Y-33729574D01*
X63750674Y-33549546D01*
X63770460Y-33361290D01*
X63750674Y-33173034D01*
X63692179Y-32993006D01*
X63597533Y-32829074D01*
X63470871Y-32688402D01*
X63469568Y-32687455D01*
X63317734Y-32577141D01*
X63317729Y-32577138D01*
X63144807Y-32500147D01*
X63144802Y-32500145D01*
X62984218Y-32466013D01*
X62959646Y-32460790D01*
X62770354Y-32460790D01*
X62770352Y-32460790D01*
X62745778Y-32466013D01*
X62676111Y-32460695D01*
X62620378Y-32418557D01*
X62596274Y-32352977D01*
X62595999Y-32344750D01*
X62595999Y-32189498D01*
X62615684Y-32122461D01*
X62668488Y-32076706D01*
X62719999Y-32065500D01*
X65542045Y-32065500D01*
X65609084Y-32085185D01*
X65629720Y-32101812D01*
X65630455Y-32102547D01*
X65745664Y-32188793D01*
X65745671Y-32188797D01*
X65880517Y-32239091D01*
X65880516Y-32239091D01*
X65887444Y-32239835D01*
X65940127Y-32245500D01*
X66935872Y-32245499D01*
X66995483Y-32239091D01*
X67130331Y-32188796D01*
X67245546Y-32102546D01*
X67331796Y-31987331D01*
X67382091Y-31852483D01*
X67388500Y-31792873D01*
X67388499Y-31097128D01*
X67382091Y-31037517D01*
X67381128Y-31034936D01*
X67331797Y-30902671D01*
X67331793Y-30902664D01*
X67245547Y-30787455D01*
X67245544Y-30787452D01*
X67130335Y-30701206D01*
X67130328Y-30701202D01*
X67054073Y-30672761D01*
X66998139Y-30630890D01*
X66973722Y-30565425D01*
X66988574Y-30497152D01*
X67037979Y-30447747D01*
X67084803Y-30433221D01*
X67165297Y-30424999D01*
X67331834Y-30369814D01*
X67481156Y-30277712D01*
X67605212Y-30153656D01*
X67697314Y-30004334D01*
X67752499Y-29837797D01*
X67763000Y-29735009D01*
X67762999Y-28684992D01*
X67752499Y-28582203D01*
X67697314Y-28415666D01*
X67605212Y-28266344D01*
X67481156Y-28142288D01*
X67331834Y-28050186D01*
X67323052Y-28047276D01*
X67265609Y-28007504D01*
X67238786Y-27942988D01*
X67251101Y-27874212D01*
X67298644Y-27823013D01*
X67323049Y-27811866D01*
X67344334Y-27804814D01*
X67493656Y-27712712D01*
X67617712Y-27588656D01*
X67709814Y-27439334D01*
X67764999Y-27272797D01*
X67775500Y-27170009D01*
X67775499Y-26169992D01*
X67771077Y-26126708D01*
X67764999Y-26067203D01*
X67764998Y-26067200D01*
X67740576Y-25993500D01*
X67709814Y-25900666D01*
X67617712Y-25751344D01*
X67493656Y-25627288D01*
X67493652Y-25627285D01*
X67474035Y-25615185D01*
X67427310Y-25563237D01*
X67416089Y-25494275D01*
X67443932Y-25430193D01*
X67502001Y-25391337D01*
X67539132Y-25385647D01*
X68625000Y-25385647D01*
X68696961Y-25380500D01*
X68696963Y-25380499D01*
X68696965Y-25380499D01*
X68835050Y-25339954D01*
X68835050Y-25339953D01*
X68835053Y-25339953D01*
X68956128Y-25262143D01*
X69050377Y-25153373D01*
X69110165Y-25022457D01*
X69130647Y-24880000D01*
X69130647Y-24879500D01*
X69130694Y-24879339D01*
X69130963Y-24875580D01*
X69131780Y-24875638D01*
X69150332Y-24812461D01*
X69203136Y-24766706D01*
X69254647Y-24755500D01*
X71473990Y-24755500D01*
X71541029Y-24775185D01*
X71546875Y-24779182D01*
X71684102Y-24878883D01*
X71684107Y-24878886D01*
X71857029Y-24955877D01*
X71857034Y-24955879D01*
X72042191Y-24995235D01*
X72042192Y-24995235D01*
X72231481Y-24995235D01*
X72231483Y-24995235D01*
X72416640Y-24955879D01*
X72589567Y-24878886D01*
X72742708Y-24767623D01*
X72869370Y-24626951D01*
X72964016Y-24463019D01*
X73022511Y-24282991D01*
X73042297Y-24094735D01*
X73022511Y-23906479D01*
X72964016Y-23726451D01*
X72869370Y-23562519D01*
X72742708Y-23421847D01*
X72742707Y-23421846D01*
X72589571Y-23310586D01*
X72589566Y-23310583D01*
X72416644Y-23233592D01*
X72416639Y-23233590D01*
X72270837Y-23202600D01*
X72231483Y-23194235D01*
X72042191Y-23194235D01*
X72009734Y-23201133D01*
X71857034Y-23233590D01*
X71857029Y-23233592D01*
X71684107Y-23310583D01*
X71684102Y-23310586D01*
X71530967Y-23421845D01*
X71530960Y-23421851D01*
X71493486Y-23463472D01*
X71434000Y-23500121D01*
X71401336Y-23504500D01*
X69254647Y-23504500D01*
X69187608Y-23484815D01*
X69141853Y-23432011D01*
X69130647Y-23380500D01*
X69130647Y-23380000D01*
X69125500Y-23308039D01*
X69125499Y-23308034D01*
X69084954Y-23169949D01*
X69053810Y-23121488D01*
X69007143Y-23048872D01*
X68898373Y-22954623D01*
X68837588Y-22926863D01*
X68767456Y-22894834D01*
X68652285Y-22878276D01*
X68625000Y-22874353D01*
X67475000Y-22874353D01*
X67474995Y-22874353D01*
X67394645Y-22880778D01*
X67394629Y-22880781D01*
X67366239Y-22889638D01*
X67311668Y-22894002D01*
X67175000Y-22874353D01*
X66175000Y-22874353D01*
X66103039Y-22879499D01*
X66103034Y-22879500D01*
X65964949Y-22920045D01*
X65843873Y-22997856D01*
X65749623Y-23106626D01*
X65749622Y-23106628D01*
X65689834Y-23237543D01*
X65669353Y-23380000D01*
X65669353Y-24880000D01*
X65674499Y-24951960D01*
X65674500Y-24951965D01*
X65715045Y-25090050D01*
X65715047Y-25090053D01*
X65792857Y-25211128D01*
X65901627Y-25305377D01*
X65964291Y-25333995D01*
X66017093Y-25379748D01*
X66036778Y-25446788D01*
X66017094Y-25513827D01*
X65977875Y-25552326D01*
X65856347Y-25627285D01*
X65856343Y-25627288D01*
X65732289Y-25751342D01*
X65640187Y-25900663D01*
X65640185Y-25900666D01*
X65640186Y-25900666D01*
X65585001Y-26067203D01*
X65585001Y-26067204D01*
X65585000Y-26067204D01*
X65574500Y-26169983D01*
X65574500Y-27170001D01*
X65574501Y-27170019D01*
X65585000Y-27272796D01*
X65585001Y-27272799D01*
X65640185Y-27439331D01*
X65640187Y-27439336D01*
X65663008Y-27476335D01*
X65732288Y-27588656D01*
X65856344Y-27712712D01*
X66005666Y-27804814D01*
X66026947Y-27811865D01*
X66084391Y-27851639D01*
X66111213Y-27916155D01*
X66098898Y-27984930D01*
X66051354Y-28036130D01*
X66026948Y-28047276D01*
X66018170Y-28050184D01*
X66018163Y-28050187D01*
X65868842Y-28142289D01*
X65744789Y-28266342D01*
X65652687Y-28415663D01*
X65652685Y-28415666D01*
X65652686Y-28415666D01*
X65597501Y-28582203D01*
X65597501Y-28582204D01*
X65597500Y-28582204D01*
X65587000Y-28684983D01*
X65587000Y-29735001D01*
X65587001Y-29735019D01*
X65597500Y-29837796D01*
X65597501Y-29837799D01*
X65643282Y-29975955D01*
X65652686Y-30004334D01*
X65744788Y-30153656D01*
X65868844Y-30277712D01*
X66018166Y-30369814D01*
X66117696Y-30402795D01*
X66175140Y-30442566D01*
X66201964Y-30507082D01*
X66189649Y-30575858D01*
X66142107Y-30627058D01*
X66078693Y-30644500D01*
X65940130Y-30644500D01*
X65940123Y-30644501D01*
X65880516Y-30650908D01*
X65745671Y-30701202D01*
X65745664Y-30701206D01*
X65627365Y-30789766D01*
X65561901Y-30814184D01*
X65553054Y-30814500D01*
X62720000Y-30814500D01*
X62652961Y-30794815D01*
X62607206Y-30742011D01*
X62596000Y-30690502D01*
X62595999Y-30609954D01*
X62615683Y-30542914D01*
X62632313Y-30522276D01*
X63092304Y-30062285D01*
X63104558Y-30052470D01*
X63104375Y-30052248D01*
X63110382Y-30047276D01*
X63110393Y-30047270D01*
X63141291Y-30014366D01*
X63157743Y-29996848D01*
X63168187Y-29986402D01*
X63178636Y-29975955D01*
X63182895Y-29970462D01*
X63186668Y-29966045D01*
X63218578Y-29932066D01*
X63228229Y-29914508D01*
X63238912Y-29898245D01*
X63251189Y-29882420D01*
X63269701Y-29839637D01*
X63272254Y-29834425D01*
X63294713Y-29793576D01*
X63299696Y-29774164D01*
X63305997Y-29755764D01*
X63313953Y-29737380D01*
X63321245Y-29691336D01*
X63322422Y-29685655D01*
X63334016Y-29640503D01*
X63334016Y-29620466D01*
X63335543Y-29601066D01*
X63338676Y-29581288D01*
X63334291Y-29534899D01*
X63334016Y-29529061D01*
X63334016Y-29184187D01*
X63353701Y-29117148D01*
X63365866Y-29101215D01*
X63384407Y-29080622D01*
X63441049Y-29017716D01*
X63535695Y-28853784D01*
X63594190Y-28673756D01*
X63613976Y-28485500D01*
X63594190Y-28297244D01*
X63535695Y-28117216D01*
X63441049Y-27953284D01*
X63314387Y-27812612D01*
X63303653Y-27804813D01*
X63161250Y-27701351D01*
X63161245Y-27701348D01*
X62988323Y-27624357D01*
X62988318Y-27624355D01*
X62842516Y-27593365D01*
X62803162Y-27585000D01*
X62613870Y-27585000D01*
X62608747Y-27585000D01*
X62541708Y-27565315D01*
X62495953Y-27512511D01*
X62485426Y-27448039D01*
X62486341Y-27439334D01*
X62500460Y-27305000D01*
X62480674Y-27116744D01*
X62422179Y-26936716D01*
X62327533Y-26772784D01*
X62200871Y-26632112D01*
X62200384Y-26631758D01*
X62047734Y-26520851D01*
X62047729Y-26520848D01*
X61874807Y-26443857D01*
X61874802Y-26443855D01*
X61729000Y-26412865D01*
X61689646Y-26404500D01*
X61500354Y-26404500D01*
X61467897Y-26411398D01*
X61315197Y-26443855D01*
X61315192Y-26443857D01*
X61142270Y-26520848D01*
X61142265Y-26520851D01*
X60989129Y-26632111D01*
X60862467Y-26772783D01*
X60818397Y-26849115D01*
X60767830Y-26897330D01*
X60699222Y-26910552D01*
X60634358Y-26884584D01*
X60593830Y-26827670D01*
X60593079Y-26825431D01*
X60566224Y-26742778D01*
X60566222Y-26742774D01*
X60566221Y-26742770D01*
X60471575Y-26578838D01*
X60344913Y-26438166D01*
X60298576Y-26404500D01*
X60191776Y-26326905D01*
X60191771Y-26326902D01*
X60018849Y-26249911D01*
X60018844Y-26249909D01*
X59873043Y-26218919D01*
X59833688Y-26210554D01*
X59644396Y-26210554D01*
X59644394Y-26210554D01*
X59507072Y-26239742D01*
X59437405Y-26234426D01*
X59381672Y-26192288D01*
X59357567Y-26126708D01*
X59357933Y-26105858D01*
X59366500Y-26022009D01*
X59366499Y-25221992D01*
X59359489Y-25153373D01*
X59355999Y-25119203D01*
X59355998Y-25119200D01*
X59305892Y-24967991D01*
X59300814Y-24952666D01*
X59208712Y-24803344D01*
X59115048Y-24709680D01*
X59081564Y-24648356D01*
X59086548Y-24578665D01*
X59115045Y-24534322D01*
X59208712Y-24440656D01*
X59300814Y-24291334D01*
X59355999Y-24124797D01*
X59366500Y-24022009D01*
X59366499Y-23221992D01*
X59363963Y-23197170D01*
X59355999Y-23119203D01*
X59355998Y-23119200D01*
X59337399Y-23063073D01*
X59300814Y-22952666D01*
X59208712Y-22803344D01*
X59084656Y-22679288D01*
X59084655Y-22679287D01*
X59081818Y-22676450D01*
X59048334Y-22615127D01*
X59045500Y-22588769D01*
X59045500Y-21244007D01*
X61498671Y-21244007D01*
X61517964Y-21538363D01*
X61517965Y-21538373D01*
X61517966Y-21538380D01*
X61573411Y-21817126D01*
X61575518Y-21827716D01*
X61575521Y-21827730D01*
X61670349Y-22107080D01*
X61800825Y-22371660D01*
X61800829Y-22371667D01*
X61964725Y-22616955D01*
X62159241Y-22838758D01*
X62381044Y-23033274D01*
X62626332Y-23197170D01*
X62626339Y-23197174D01*
X62757787Y-23261997D01*
X62890923Y-23327652D01*
X63170278Y-23422481D01*
X63459620Y-23480034D01*
X63487888Y-23481886D01*
X63753993Y-23499329D01*
X63754000Y-23499329D01*
X63754007Y-23499329D01*
X63989675Y-23483881D01*
X64048380Y-23480034D01*
X64337722Y-23422481D01*
X64617077Y-23327652D01*
X64881665Y-23197172D01*
X65126957Y-23033273D01*
X65348758Y-22838758D01*
X65543273Y-22616957D01*
X65707172Y-22371665D01*
X65837652Y-22107077D01*
X65932481Y-21827722D01*
X65990034Y-21538380D01*
X65996129Y-21445396D01*
X66009329Y-21244007D01*
X66009329Y-21243992D01*
X65990035Y-20949636D01*
X65990034Y-20949620D01*
X65932481Y-20660278D01*
X65847524Y-20410006D01*
X79454700Y-20410006D01*
X79473864Y-20641297D01*
X79473866Y-20641308D01*
X79530842Y-20866300D01*
X79624075Y-21078848D01*
X79751016Y-21273147D01*
X79751019Y-21273151D01*
X79751021Y-21273153D01*
X79908216Y-21443913D01*
X79908219Y-21443915D01*
X79908222Y-21443918D01*
X80091365Y-21586464D01*
X80091371Y-21586468D01*
X80091374Y-21586470D01*
X80295497Y-21696936D01*
X80409487Y-21736068D01*
X80515015Y-21772297D01*
X80515017Y-21772297D01*
X80515019Y-21772298D01*
X80743951Y-21810500D01*
X80743952Y-21810500D01*
X80976048Y-21810500D01*
X80976049Y-21810500D01*
X81204981Y-21772298D01*
X81424503Y-21696936D01*
X81628626Y-21586470D01*
X81645333Y-21573467D01*
X81690434Y-21538363D01*
X81811784Y-21443913D01*
X81968979Y-21273153D01*
X82095924Y-21078849D01*
X82189157Y-20866300D01*
X82246134Y-20641305D01*
X82265300Y-20410000D01*
X82265300Y-20409993D01*
X82246135Y-20178702D01*
X82246133Y-20178691D01*
X82189157Y-19953699D01*
X82095924Y-19741151D01*
X81968983Y-19546852D01*
X81968980Y-19546849D01*
X81968979Y-19546847D01*
X81811784Y-19376087D01*
X81811779Y-19376083D01*
X81811777Y-19376081D01*
X81628634Y-19233535D01*
X81628628Y-19233531D01*
X81424504Y-19123064D01*
X81424495Y-19123061D01*
X81204984Y-19047702D01*
X81033281Y-19019050D01*
X80976049Y-19009500D01*
X80743951Y-19009500D01*
X80698164Y-19017140D01*
X80515015Y-19047702D01*
X80295504Y-19123061D01*
X80295495Y-19123064D01*
X80091371Y-19233531D01*
X80091365Y-19233535D01*
X79908222Y-19376081D01*
X79908219Y-19376084D01*
X79908216Y-19376086D01*
X79908216Y-19376087D01*
X79885091Y-19401208D01*
X79751016Y-19546852D01*
X79624075Y-19741151D01*
X79530842Y-19953699D01*
X79473866Y-20178691D01*
X79473864Y-20178702D01*
X79454700Y-20409993D01*
X79454700Y-20410006D01*
X65847524Y-20410006D01*
X65837652Y-20380923D01*
X65707172Y-20116336D01*
X65703168Y-20110344D01*
X65598502Y-19953700D01*
X65543273Y-19871043D01*
X65483322Y-19802682D01*
X65348758Y-19649241D01*
X65126955Y-19454725D01*
X64881667Y-19290829D01*
X64881660Y-19290825D01*
X64617080Y-19160349D01*
X64337730Y-19065521D01*
X64337724Y-19065519D01*
X64337722Y-19065519D01*
X64048380Y-19007966D01*
X64048373Y-19007965D01*
X64048363Y-19007964D01*
X63754007Y-18988671D01*
X63753993Y-18988671D01*
X63459636Y-19007964D01*
X63459624Y-19007965D01*
X63459620Y-19007966D01*
X63459612Y-19007967D01*
X63459609Y-19007968D01*
X63170283Y-19065518D01*
X63170269Y-19065521D01*
X62890919Y-19160349D01*
X62626334Y-19290828D01*
X62381041Y-19454728D01*
X62159241Y-19649241D01*
X61964728Y-19871041D01*
X61800828Y-20116334D01*
X61670349Y-20380919D01*
X61575521Y-20660269D01*
X61575518Y-20660283D01*
X61517968Y-20949609D01*
X61517964Y-20949636D01*
X61498671Y-21243992D01*
X61498671Y-21244007D01*
X59045500Y-21244007D01*
X59045500Y-21134785D01*
X59045500Y-19640727D01*
X59047225Y-19625123D01*
X59046938Y-19625096D01*
X59047672Y-19617333D01*
X59045500Y-19548203D01*
X59045500Y-19518651D01*
X59045500Y-19518650D01*
X59044629Y-19511759D01*
X59044172Y-19505945D01*
X59042709Y-19459372D01*
X59037122Y-19440144D01*
X59033174Y-19421084D01*
X59030664Y-19401208D01*
X59013507Y-19357875D01*
X59011619Y-19352359D01*
X58998619Y-19307612D01*
X58988418Y-19290363D01*
X58979860Y-19272894D01*
X58972486Y-19254268D01*
X58972483Y-19254264D01*
X58972483Y-19254263D01*
X58945098Y-19216571D01*
X58941890Y-19211687D01*
X58918172Y-19171582D01*
X58918163Y-19171571D01*
X58904005Y-19157413D01*
X58891370Y-19142620D01*
X58879593Y-19126412D01*
X58843693Y-19096713D01*
X58839381Y-19092790D01*
X58666802Y-18920211D01*
X58656980Y-18907950D01*
X58656759Y-18908134D01*
X58651786Y-18902123D01*
X58633159Y-18884631D01*
X58601364Y-18854773D01*
X58590919Y-18844328D01*
X58580475Y-18833883D01*
X58574986Y-18829625D01*
X58570561Y-18825847D01*
X58536582Y-18793938D01*
X58536580Y-18793936D01*
X58536577Y-18793935D01*
X58519029Y-18784288D01*
X58502763Y-18773604D01*
X58486933Y-18761325D01*
X58444168Y-18742818D01*
X58438922Y-18740248D01*
X58398093Y-18717803D01*
X58398092Y-18717802D01*
X58378693Y-18712822D01*
X58360281Y-18706518D01*
X58341898Y-18698562D01*
X58341892Y-18698560D01*
X58295874Y-18691272D01*
X58290152Y-18690087D01*
X58245021Y-18678500D01*
X58245019Y-18678500D01*
X58224984Y-18678500D01*
X58205586Y-18676973D01*
X58191291Y-18674709D01*
X58185805Y-18673840D01*
X58185804Y-18673840D01*
X58139416Y-18678225D01*
X58133578Y-18678500D01*
X53422737Y-18678500D01*
X53407120Y-18676776D01*
X53407093Y-18677062D01*
X53399331Y-18676327D01*
X53330203Y-18678500D01*
X53300650Y-18678500D01*
X53299929Y-18678590D01*
X53293757Y-18679369D01*
X53287945Y-18679826D01*
X53241373Y-18681290D01*
X53241372Y-18681290D01*
X53222129Y-18686881D01*
X53203079Y-18690825D01*
X53183211Y-18693334D01*
X53183209Y-18693335D01*
X53139884Y-18710488D01*
X53134357Y-18712380D01*
X53089610Y-18725381D01*
X53089609Y-18725382D01*
X53072367Y-18735579D01*
X53054899Y-18744137D01*
X53036269Y-18751513D01*
X53036267Y-18751514D01*
X52998576Y-18778898D01*
X52993694Y-18782105D01*
X52953579Y-18805830D01*
X52939408Y-18820000D01*
X52924623Y-18832628D01*
X52908412Y-18844407D01*
X52878709Y-18880310D01*
X52874777Y-18884631D01*
X52507472Y-19251935D01*
X52446149Y-19285420D01*
X52387698Y-19284029D01*
X52219413Y-19238938D01*
X52219403Y-19238936D01*
X51984001Y-19218341D01*
X51983999Y-19218341D01*
X51748596Y-19238936D01*
X51748586Y-19238938D01*
X51520344Y-19300094D01*
X51520335Y-19300098D01*
X51306171Y-19399964D01*
X51306169Y-19399965D01*
X51112597Y-19535505D01*
X50945505Y-19702597D01*
X50809965Y-19896169D01*
X50809964Y-19896171D01*
X50710098Y-20110335D01*
X50710094Y-20110344D01*
X50648938Y-20338586D01*
X50648936Y-20338596D01*
X50628341Y-20573999D01*
X50628341Y-20574000D01*
X50648936Y-20809403D01*
X50648938Y-20809413D01*
X50694029Y-20977698D01*
X50692366Y-21047548D01*
X50661935Y-21097472D01*
X49654208Y-22105199D01*
X49641951Y-22115020D01*
X49642134Y-22115241D01*
X49636123Y-22120213D01*
X49588772Y-22170636D01*
X49567889Y-22191519D01*
X49567874Y-22191535D01*
X49563620Y-22197017D01*
X49559836Y-22201448D01*
X49525258Y-22238271D01*
X49465018Y-22273667D01*
X49447473Y-22276746D01*
X49435215Y-22277998D01*
X49435201Y-22278001D01*
X49268668Y-22333185D01*
X49268663Y-22333187D01*
X49119342Y-22425289D01*
X48995289Y-22549342D01*
X48903187Y-22698663D01*
X48903185Y-22698668D01*
X48882348Y-22761550D01*
X48848001Y-22865203D01*
X48848001Y-22865204D01*
X48848000Y-22865204D01*
X48837500Y-22967983D01*
X48837500Y-23768001D01*
X48837501Y-23768019D01*
X48848000Y-23870796D01*
X48848001Y-23870799D01*
X48903185Y-24037331D01*
X48903187Y-24037336D01*
X48995289Y-24186657D01*
X49088951Y-24280319D01*
X49122436Y-24341642D01*
X49117452Y-24411334D01*
X49088951Y-24455681D01*
X48995289Y-24549342D01*
X48903187Y-24698663D01*
X48903185Y-24698666D01*
X48903186Y-24698666D01*
X48848001Y-24865203D01*
X48848001Y-24865204D01*
X48848000Y-24865204D01*
X48837500Y-24967983D01*
X48837500Y-25768001D01*
X18410500Y-25768001D01*
X18410500Y-24362212D01*
X18410658Y-24357788D01*
X18415492Y-24290203D01*
X18427049Y-24143360D01*
X18428276Y-24135045D01*
X18428277Y-24135044D01*
X18445491Y-24055909D01*
X18448902Y-24040231D01*
X18453275Y-24022016D01*
X18476860Y-23923774D01*
X18479051Y-23916598D01*
X18514989Y-23820246D01*
X18558943Y-23714133D01*
X18561797Y-23708167D01*
X18611563Y-23617027D01*
X18613053Y-23614453D01*
X18671500Y-23519075D01*
X18674690Y-23514375D01*
X18737458Y-23430527D01*
X18739873Y-23427508D01*
X18812020Y-23343036D01*
X18815278Y-23339511D01*
X18889511Y-23265278D01*
X18893036Y-23262020D01*
X18977508Y-23189873D01*
X18980527Y-23187458D01*
X19064375Y-23124690D01*
X19069075Y-23121500D01*
X19164453Y-23063053D01*
X19167027Y-23061563D01*
X19258167Y-23011797D01*
X19264133Y-23008943D01*
X19370246Y-22964989D01*
X19466611Y-22929046D01*
X19473764Y-22926863D01*
X19590191Y-22898910D01*
X19685058Y-22878273D01*
X19693351Y-22877050D01*
X19840203Y-22865492D01*
X19907792Y-22860657D01*
X19912213Y-22860500D01*
X21315082Y-22860500D01*
X21323234Y-22862893D01*
X21351222Y-22860691D01*
X21356089Y-22860500D01*
X21467316Y-22860500D01*
X21467318Y-22860500D01*
X21568665Y-22845928D01*
X21573466Y-22846618D01*
X21584997Y-22843850D01*
X21590648Y-22842767D01*
X21595943Y-22842006D01*
X21602819Y-22841018D01*
X21606779Y-22840578D01*
X21669913Y-22835609D01*
X21686618Y-22827943D01*
X21699480Y-22824166D01*
X21794584Y-22796241D01*
X21800215Y-22796241D01*
X21810851Y-22791835D01*
X21817113Y-22789626D01*
X21817377Y-22789548D01*
X21843716Y-22781814D01*
X21846659Y-22781030D01*
X21888615Y-22770957D01*
X21903077Y-22761552D01*
X22007337Y-22713938D01*
X22014137Y-22712960D01*
X22024550Y-22706580D01*
X22031191Y-22703044D01*
X22080950Y-22680321D01*
X22080953Y-22680318D01*
X22081393Y-22680118D01*
X22086790Y-22677536D01*
X22095124Y-22674083D01*
X22107110Y-22663508D01*
X22204353Y-22601015D01*
X22212181Y-22598716D01*
X22221898Y-22590417D01*
X22228640Y-22585406D01*
X22261513Y-22564281D01*
X22265269Y-22561025D01*
X22281692Y-22549003D01*
X22284756Y-22547125D01*
X22294168Y-22535984D01*
X22381816Y-22460037D01*
X22390360Y-22456135D01*
X22395814Y-22449750D01*
X22408904Y-22436566D01*
X22423724Y-22423724D01*
X22436566Y-22408904D01*
X22449750Y-22395814D01*
X22453163Y-22392898D01*
X22460037Y-22381817D01*
X22535983Y-22294170D01*
X22544847Y-22288472D01*
X22549003Y-22281692D01*
X22561027Y-22265268D01*
X22564281Y-22261513D01*
X22585406Y-22228640D01*
X22590417Y-22221898D01*
X22596500Y-22214775D01*
X22601013Y-22204355D01*
X22663506Y-22107113D01*
X22672259Y-22099529D01*
X22677536Y-22086790D01*
X22680118Y-22081393D01*
X22680318Y-22080953D01*
X22680321Y-22080950D01*
X22703044Y-22031191D01*
X22706580Y-22024550D01*
X22711448Y-22016605D01*
X22713937Y-22007339D01*
X22761551Y-21903079D01*
X22769759Y-21893607D01*
X22781030Y-21846659D01*
X22781814Y-21843716D01*
X22789625Y-21817113D01*
X22791835Y-21810851D01*
X22795326Y-21802422D01*
X22796241Y-21794583D01*
X22799802Y-21782458D01*
X22827942Y-21686618D01*
X22835180Y-21675356D01*
X22840578Y-21606779D01*
X22841018Y-21602819D01*
X22842767Y-21590652D01*
X22843850Y-21584997D01*
X22846134Y-21575481D01*
X22845928Y-21568665D01*
X22860500Y-21467318D01*
X22860500Y-21360000D01*
X22860500Y-21359500D01*
X22860500Y-21356089D01*
X22860691Y-21351222D01*
X22862606Y-21326884D01*
X22860500Y-21315081D01*
X22860500Y-20410006D01*
X23454700Y-20410006D01*
X23473864Y-20641297D01*
X23473866Y-20641308D01*
X23530842Y-20866300D01*
X23624075Y-21078848D01*
X23751016Y-21273147D01*
X23751019Y-21273151D01*
X23751021Y-21273153D01*
X23908216Y-21443913D01*
X23908219Y-21443915D01*
X23908222Y-21443918D01*
X24091365Y-21586464D01*
X24091371Y-21586468D01*
X24091374Y-21586470D01*
X24295497Y-21696936D01*
X24409487Y-21736068D01*
X24515015Y-21772297D01*
X24515017Y-21772297D01*
X24515019Y-21772298D01*
X24743951Y-21810500D01*
X24743952Y-21810500D01*
X24976048Y-21810500D01*
X24976049Y-21810500D01*
X25204981Y-21772298D01*
X25424503Y-21696936D01*
X25628626Y-21586470D01*
X25645333Y-21573467D01*
X25690434Y-21538363D01*
X25811784Y-21443913D01*
X25968979Y-21273153D01*
X25988021Y-21244007D01*
X40498671Y-21244007D01*
X40517964Y-21538363D01*
X40517965Y-21538373D01*
X40517966Y-21538380D01*
X40573411Y-21817126D01*
X40575518Y-21827716D01*
X40575521Y-21827730D01*
X40670349Y-22107080D01*
X40800825Y-22371660D01*
X40800829Y-22371667D01*
X40964725Y-22616955D01*
X41159241Y-22838758D01*
X41381044Y-23033274D01*
X41626332Y-23197170D01*
X41626339Y-23197174D01*
X41757787Y-23261997D01*
X41890923Y-23327652D01*
X42170278Y-23422481D01*
X42459620Y-23480034D01*
X42487888Y-23481886D01*
X42753993Y-23499329D01*
X42754000Y-23499329D01*
X42754007Y-23499329D01*
X42989675Y-23483881D01*
X43048380Y-23480034D01*
X43337722Y-23422481D01*
X43617077Y-23327652D01*
X43881665Y-23197172D01*
X44126957Y-23033273D01*
X44348758Y-22838758D01*
X44543273Y-22616957D01*
X44707172Y-22371665D01*
X44837652Y-22107077D01*
X44932481Y-21827722D01*
X44990034Y-21538380D01*
X44996129Y-21445396D01*
X45009329Y-21244007D01*
X45009329Y-21243992D01*
X44990035Y-20949636D01*
X44990034Y-20949620D01*
X44932481Y-20660278D01*
X44837652Y-20380923D01*
X44707172Y-20116336D01*
X44703168Y-20110344D01*
X44598502Y-19953700D01*
X44543273Y-19871043D01*
X44483322Y-19802682D01*
X44348758Y-19649241D01*
X44126955Y-19454725D01*
X43881667Y-19290829D01*
X43881660Y-19290825D01*
X43617080Y-19160349D01*
X43337730Y-19065521D01*
X43337724Y-19065519D01*
X43337722Y-19065519D01*
X43048380Y-19007966D01*
X43048373Y-19007965D01*
X43048363Y-19007964D01*
X42754007Y-18988671D01*
X42753993Y-18988671D01*
X42459636Y-19007964D01*
X42459624Y-19007965D01*
X42459620Y-19007966D01*
X42459612Y-19007967D01*
X42459609Y-19007968D01*
X42170283Y-19065518D01*
X42170269Y-19065521D01*
X41890919Y-19160349D01*
X41626334Y-19290828D01*
X41381041Y-19454728D01*
X41159241Y-19649241D01*
X40964728Y-19871041D01*
X40800828Y-20116334D01*
X40670349Y-20380919D01*
X40575521Y-20660269D01*
X40575518Y-20660283D01*
X40517968Y-20949609D01*
X40517964Y-20949636D01*
X40498671Y-21243992D01*
X40498671Y-21244007D01*
X25988021Y-21244007D01*
X26095924Y-21078849D01*
X26189157Y-20866300D01*
X26246134Y-20641305D01*
X26265300Y-20410000D01*
X26265300Y-20409993D01*
X26246135Y-20178702D01*
X26246133Y-20178691D01*
X26189157Y-19953699D01*
X26095924Y-19741151D01*
X25968983Y-19546852D01*
X25968980Y-19546849D01*
X25968979Y-19546847D01*
X25811784Y-19376087D01*
X25811779Y-19376083D01*
X25811777Y-19376081D01*
X25628634Y-19233535D01*
X25628628Y-19233531D01*
X25424504Y-19123064D01*
X25424495Y-19123061D01*
X25204984Y-19047702D01*
X25033282Y-19019050D01*
X24976049Y-19009500D01*
X24743951Y-19009500D01*
X24698164Y-19017140D01*
X24515015Y-19047702D01*
X24295504Y-19123061D01*
X24295495Y-19123064D01*
X24091371Y-19233531D01*
X24091365Y-19233535D01*
X23908222Y-19376081D01*
X23908219Y-19376084D01*
X23908216Y-19376086D01*
X23908216Y-19376087D01*
X23885091Y-19401208D01*
X23751016Y-19546852D01*
X23624075Y-19741151D01*
X23530842Y-19953699D01*
X23473866Y-20178691D01*
X23473864Y-20178702D01*
X23454700Y-20409993D01*
X23454700Y-20410006D01*
X22860500Y-20410006D01*
X22860500Y-19912212D01*
X22860658Y-19907787D01*
X22865483Y-19840337D01*
X22873288Y-19741151D01*
X22877049Y-19693360D01*
X22878276Y-19685045D01*
X22878277Y-19685044D01*
X22890893Y-19627048D01*
X22898902Y-19590231D01*
X22909316Y-19546852D01*
X22926860Y-19473774D01*
X22929051Y-19466598D01*
X22964989Y-19370246D01*
X23008943Y-19264133D01*
X23011797Y-19258167D01*
X23061563Y-19167027D01*
X23063053Y-19164453D01*
X23121500Y-19069075D01*
X23124690Y-19064375D01*
X23187458Y-18980527D01*
X23189873Y-18977508D01*
X23262020Y-18893036D01*
X23265278Y-18889511D01*
X23339511Y-18815278D01*
X23343036Y-18812020D01*
X23427508Y-18739873D01*
X23430527Y-18737458D01*
X23514375Y-18674690D01*
X23519075Y-18671500D01*
X23614453Y-18613053D01*
X23617027Y-18611563D01*
X23708167Y-18561797D01*
X23714133Y-18558943D01*
X23820246Y-18514989D01*
X23916611Y-18479046D01*
X23923764Y-18476863D01*
X24040191Y-18448910D01*
X24135058Y-18428273D01*
X24143351Y-18427050D01*
X24290203Y-18415492D01*
X24357792Y-18410657D01*
X24362213Y-18410500D01*
X81357787Y-18410500D01*
X81362207Y-18410657D01*
G37*
%TD.AperFunction*%
%TD*%
M02*
